<?xml version="1.0" encoding="utf-8" standalone="no"?>
<!DOCTYPE svg PUBLIC "-//W3C//DTD SVG 1.1//EN"
  "http://www.w3.org/Graphics/SVG/1.1/DTD/svg11.dtd">
<svg xmlns:xlink="http://www.w3.org/1999/xlink" width="460.8pt" height="345.6pt" viewBox="0 0 460.8 345.6" xmlns="http://www.w3.org/2000/svg" version="1.1">
 <metadata>
  <rdf:RDF xmlns:dc="http://purl.org/dc/elements/1.1/" xmlns:cc="http://creativecommons.org/ns#" xmlns:rdf="http://www.w3.org/1999/02/22-rdf-syntax-ns#">
   <cc:Work>
    <dc:type rdf:resource="http://purl.org/dc/dcmitype/StillImage"/>
    <dc:date>2022-12-16T11:32:10.585193</dc:date>
    <dc:format>image/svg+xml</dc:format>
    <dc:creator>
     <cc:Agent>
      <dc:title>Matplotlib v3.5.1, https://matplotlib.org/</dc:title>
     </cc:Agent>
    </dc:creator>
   </cc:Work>
  </rdf:RDF>
 </metadata>
 <defs>
  <style type="text/css">*{stroke-linejoin: round; stroke-linecap: butt}</style>
 </defs>
 <g id="figure_1">
  <g id="patch_1">
   <path d="M 0 345.6 
L 460.8 345.6 
L 460.8 0 
L 0 0 
z
" style="fill: #ffffff"/>
  </g>
  <g id="axes_1">
   <g id="patch_2">
    <path d="M 47.81 303.64 
L 450 303.64 
L 450 26.88 
L 47.81 26.88 
z
" style="fill: #ffffff"/>
   </g>
   <g id="PolyCollection_1">
    <defs>
     <path id="m4cf19ef2f6" d="M 66.091364 -282.921506 
L 66.091364 -219.46227 
L 69.784568 -212.072299 
L 73.477773 -206.986329 
L 77.170978 -204.623862 
L 80.864183 -203.276585 
L 84.557388 -202.441305 
L 88.250592 -201.667025 
L 91.943797 -201.039333 
L 95.637002 -200.492286 
L 99.330207 -199.901852 
L 103.023411 -198.839832 
L 106.716616 -197.628272 
L 110.409821 -197.070473 
L 114.103026 -195.821149 
L 117.79623 -194.652417 
L 121.489435 -193.706742 
L 125.18264 -193.465993 
L 128.875845 -192.671226 
L 132.56905 -191.594462 
L 136.262254 -190.475615 
L 139.955459 -189.312879 
L 143.648664 -188.100514 
L 147.341869 -186.842608 
L 151.035073 -185.530201 
L 154.728278 -184.16982 
L 158.421483 -182.757008 
L 162.114688 -181.294471 
L 165.807893 -179.773574 
L 169.501097 -178.199179 
L 173.194302 -176.564961 
L 176.887507 -174.893346 
L 180.580712 -186.727481 
L 184.273916 -185.857139 
L 187.967121 -185.002888 
L 191.660326 -173.53024 
L 195.353531 -182.675712 
L 199.046736 -179.40245 
L 202.73994 -178.122658 
L 206.433145 -181.763524 
L 210.12635 -180.770496 
L 213.819555 -173.609726 
L 217.512759 -174.842288 
L 221.205964 -168.590738 
L 224.899169 -167.971632 
L 228.592374 -163.099635 
L 232.285579 -163.076687 
L 235.978783 -160.789002 
L 239.671988 -164.407805 
L 243.365193 -166.325431 
L 247.058398 -169.318344 
L 250.751602 -164.895061 
L 254.444807 -169.758625 
L 258.138012 -165.508402 
L 261.831217 -174.067995 
L 265.524421 -172.914637 
L 269.217626 -172.393744 
L 272.910831 -160.084484 
L 276.604036 -172.10459 
L 280.297241 -157.571689 
L 283.990445 -157.720498 
L 287.68365 -154.466907 
L 291.376855 -160.604538 
L 295.07006 -153.314934 
L 298.763264 -164.500733 
L 302.456469 -153.566423 
L 306.149674 -162.578 
L 309.842879 -151.001082 
L 313.536084 -161.525345 
L 317.229288 -155.202756 
L 320.922493 -157.832528 
L 324.615698 -150.363268 
L 328.308903 -161.761587 
L 332.002107 -148.864461 
L 335.695312 -158.64278 
L 339.388517 -146.936365 
L 343.081722 -149.590219 
L 346.774927 -145.530301 
L 350.468131 -152.698006 
L 354.161336 -143.692662 
L 357.854541 -153.324638 
L 361.547746 -144.19258 
L 365.24095 -149.911716 
L 368.934155 -142.785192 
L 372.62736 -151.183101 
L 376.320565 -141.496658 
L 380.01377 -151.566491 
L 383.706974 -140.880617 
L 387.400179 -150.399611 
L 391.093384 -141.072606 
L 394.786589 -145.017293 
L 398.479793 -139.729194 
L 402.172998 -141.083215 
L 405.866203 -138.817876 
L 409.559408 -142.030576 
L 413.252612 -138.238425 
L 416.945817 -144.640082 
L 420.639022 -136.911423 
L 424.332227 -139.21632 
L 428.025432 -136.393204 
L 431.718636 -138.57128 
L 431.718636 -167.272937 
L 431.718636 -167.272937 
L 428.025432 -178.220182 
L 424.332227 -171.064692 
L 420.639022 -174.600071 
L 416.945817 -168.767634 
L 413.252612 -175.732747 
L 409.559408 -173.025499 
L 405.866203 -177.590275 
L 402.172998 -175.848921 
L 398.479793 -176.58869 
L 394.786589 -168.09608 
L 391.093384 -168.16366 
L 387.400179 -168.947899 
L 383.706974 -177.364252 
L 380.01377 -173.677667 
L 376.320565 -173.910689 
L 372.62736 -175.960832 
L 368.934155 -175.388735 
L 365.24095 -178.158326 
L 361.547746 -181.705042 
L 357.854541 -181.395221 
L 354.161336 -185.837341 
L 350.468131 -188.123159 
L 346.774927 -188.613785 
L 343.081722 -181.014554 
L 339.388517 -189.101993 
L 335.695312 -188.836943 
L 332.002107 -186.598684 
L 328.308903 -190.091728 
L 324.615698 -187.557204 
L 320.922493 -187.632047 
L 317.229288 -188.355107 
L 313.536084 -184.528379 
L 309.842879 -189.735547 
L 306.149674 -188.3779 
L 302.456469 -192.779324 
L 298.763264 -189.591017 
L 295.07006 -189.840324 
L 291.376855 -185.799209 
L 287.68365 -189.514095 
L 283.990445 -189.530238 
L 280.297241 -189.695929 
L 276.604036 -189.565048 
L 272.910831 -193.263268 
L 269.217626 -191.273583 
L 265.524421 -197.698308 
L 261.831217 -195.788412 
L 258.138012 -195.700227 
L 254.444807 -193.580206 
L 250.751602 -191.508508 
L 247.058398 -194.857302 
L 243.365193 -192.927807 
L 239.671988 -194.395766 
L 235.978783 -193.617374 
L 232.285579 -194.263635 
L 228.592374 -194.730217 
L 224.899169 -196.850527 
L 221.205964 -197.836875 
L 217.512759 -198.77426 
L 213.819555 -202.084514 
L 210.12635 -201.811828 
L 206.433145 -201.581725 
L 202.73994 -201.902836 
L 199.046736 -202.216199 
L 195.353531 -199.021304 
L 191.660326 -198.828888 
L 187.967121 -203.09174 
L 184.273916 -200.125296 
L 180.580712 -203.634921 
L 176.887507 -200.529814 
L 173.194302 -201.159005 
L 169.501097 -202.223118 
L 165.807893 -203.491105 
L 162.114688 -204.79056 
L 158.421483 -204.582661 
L 154.728278 -205.338364 
L 151.035073 -206.053503 
L 147.341869 -207.744201 
L 143.648664 -206.006616 
L 139.955459 -206.266563 
L 136.262254 -207.051395 
L 132.56905 -207.622552 
L 128.875845 -208.336571 
L 125.18264 -207.991048 
L 121.489435 -207.29776 
L 117.79623 -207.523285 
L 114.103026 -207.762855 
L 110.409821 -208.041367 
L 106.716616 -208.335531 
L 103.023411 -208.629146 
L 99.330207 -208.957576 
L 95.637002 -209.331351 
L 91.943797 -209.887967 
L 88.250592 -210.826917 
L 84.557388 -212.079841 
L 80.864183 -212.282076 
L 77.170978 -212.381761 
L 73.477773 -214.211487 
L 69.784568 -225.106553 
L 66.091364 -282.921506 
z
" style="stroke: #f34a36; stroke-opacity: 0.3"/>
    </defs>
    <g clip-path="url(#pb071c6f1fd)">
     <use xlink:href="#m4cf19ef2f6" x="0" y="345.6" style="fill: #f34a36; fill-opacity: 0.3; stroke: #f34a36; stroke-opacity: 0.3"/>
    </g>
   </g>
   <g id="matplotlib.axis_1">
    <g id="xtick_1">
     <g id="line2d_1">
      <path d="M 62.398159 303.64 
L 62.398159 26.88 
" clip-path="url(#pb071c6f1fd)" style="fill: none; stroke-dasharray: 2.96,1.28; stroke-dashoffset: 0; stroke: #b0b0b0; stroke-width: 0.8"/>
     </g>
     <g id="line2d_2">
      <defs>
       <path id="mf35be8226e" d="M 0 0 
L 0 3.5 
" style="stroke: #000000; stroke-width: 0.8"/>
      </defs>
      <g>
       <use xlink:href="#mf35be8226e" x="62.398159" y="303.64" style="stroke: #000000; stroke-width: 0.8"/>
      </g>
     </g>
     <g id="text_1">
      <!-- 0 -->
      <g transform="translate(59.216909 318.238437)scale(0.1 -0.1)">
       <defs>
        <path id="DejaVuSans-30" d="M 2034 4250 
Q 1547 4250 1301 3770 
Q 1056 3291 1056 2328 
Q 1056 1369 1301 889 
Q 1547 409 2034 409 
Q 2525 409 2770 889 
Q 3016 1369 3016 2328 
Q 3016 3291 2770 3770 
Q 2525 4250 2034 4250 
z
M 2034 4750 
Q 2819 4750 3233 4129 
Q 3647 3509 3647 2328 
Q 3647 1150 3233 529 
Q 2819 -91 2034 -91 
Q 1250 -91 836 529 
Q 422 1150 422 2328 
Q 422 3509 836 4129 
Q 1250 4750 2034 4750 
z
" transform="scale(0.015625)"/>
       </defs>
       <use xlink:href="#DejaVuSans-30"/>
      </g>
     </g>
    </g>
    <g id="xtick_2">
     <g id="line2d_3">
      <path d="M 136.262254 303.64 
L 136.262254 26.88 
" clip-path="url(#pb071c6f1fd)" style="fill: none; stroke-dasharray: 2.96,1.28; stroke-dashoffset: 0; stroke: #b0b0b0; stroke-width: 0.8"/>
     </g>
     <g id="line2d_4">
      <g>
       <use xlink:href="#mf35be8226e" x="136.262254" y="303.64" style="stroke: #000000; stroke-width: 0.8"/>
      </g>
     </g>
     <g id="text_2">
      <!-- 20 -->
      <g transform="translate(129.899754 318.238437)scale(0.1 -0.1)">
       <defs>
        <path id="DejaVuSans-32" d="M 1228 531 
L 3431 531 
L 3431 0 
L 469 0 
L 469 531 
Q 828 903 1448 1529 
Q 2069 2156 2228 2338 
Q 2531 2678 2651 2914 
Q 2772 3150 2772 3378 
Q 2772 3750 2511 3984 
Q 2250 4219 1831 4219 
Q 1534 4219 1204 4116 
Q 875 4013 500 3803 
L 500 4441 
Q 881 4594 1212 4672 
Q 1544 4750 1819 4750 
Q 2544 4750 2975 4387 
Q 3406 4025 3406 3419 
Q 3406 3131 3298 2873 
Q 3191 2616 2906 2266 
Q 2828 2175 2409 1742 
Q 1991 1309 1228 531 
z
" transform="scale(0.015625)"/>
       </defs>
       <use xlink:href="#DejaVuSans-32"/>
       <use xlink:href="#DejaVuSans-30" x="63.623047"/>
      </g>
     </g>
    </g>
    <g id="xtick_3">
     <g id="line2d_5">
      <path d="M 210.12635 303.64 
L 210.12635 26.88 
" clip-path="url(#pb071c6f1fd)" style="fill: none; stroke-dasharray: 2.96,1.28; stroke-dashoffset: 0; stroke: #b0b0b0; stroke-width: 0.8"/>
     </g>
     <g id="line2d_6">
      <g>
       <use xlink:href="#mf35be8226e" x="210.12635" y="303.64" style="stroke: #000000; stroke-width: 0.8"/>
      </g>
     </g>
     <g id="text_3">
      <!-- 40 -->
      <g transform="translate(203.76385 318.238437)scale(0.1 -0.1)">
       <defs>
        <path id="DejaVuSans-34" d="M 2419 4116 
L 825 1625 
L 2419 1625 
L 2419 4116 
z
M 2253 4666 
L 3047 4666 
L 3047 1625 
L 3713 1625 
L 3713 1100 
L 3047 1100 
L 3047 0 
L 2419 0 
L 2419 1100 
L 313 1100 
L 313 1709 
L 2253 4666 
z
" transform="scale(0.015625)"/>
       </defs>
       <use xlink:href="#DejaVuSans-34"/>
       <use xlink:href="#DejaVuSans-30" x="63.623047"/>
      </g>
     </g>
    </g>
    <g id="xtick_4">
     <g id="line2d_7">
      <path d="M 283.990445 303.64 
L 283.990445 26.88 
" clip-path="url(#pb071c6f1fd)" style="fill: none; stroke-dasharray: 2.96,1.28; stroke-dashoffset: 0; stroke: #b0b0b0; stroke-width: 0.8"/>
     </g>
     <g id="line2d_8">
      <g>
       <use xlink:href="#mf35be8226e" x="283.990445" y="303.64" style="stroke: #000000; stroke-width: 0.8"/>
      </g>
     </g>
     <g id="text_4">
      <!-- 60 -->
      <g transform="translate(277.627945 318.238437)scale(0.1 -0.1)">
       <defs>
        <path id="DejaVuSans-36" d="M 2113 2584 
Q 1688 2584 1439 2293 
Q 1191 2003 1191 1497 
Q 1191 994 1439 701 
Q 1688 409 2113 409 
Q 2538 409 2786 701 
Q 3034 994 3034 1497 
Q 3034 2003 2786 2293 
Q 2538 2584 2113 2584 
z
M 3366 4563 
L 3366 3988 
Q 3128 4100 2886 4159 
Q 2644 4219 2406 4219 
Q 1781 4219 1451 3797 
Q 1122 3375 1075 2522 
Q 1259 2794 1537 2939 
Q 1816 3084 2150 3084 
Q 2853 3084 3261 2657 
Q 3669 2231 3669 1497 
Q 3669 778 3244 343 
Q 2819 -91 2113 -91 
Q 1303 -91 875 529 
Q 447 1150 447 2328 
Q 447 3434 972 4092 
Q 1497 4750 2381 4750 
Q 2619 4750 2861 4703 
Q 3103 4656 3366 4563 
z
" transform="scale(0.015625)"/>
       </defs>
       <use xlink:href="#DejaVuSans-36"/>
       <use xlink:href="#DejaVuSans-30" x="63.623047"/>
      </g>
     </g>
    </g>
    <g id="xtick_5">
     <g id="line2d_9">
      <path d="M 357.854541 303.64 
L 357.854541 26.88 
" clip-path="url(#pb071c6f1fd)" style="fill: none; stroke-dasharray: 2.96,1.28; stroke-dashoffset: 0; stroke: #b0b0b0; stroke-width: 0.8"/>
     </g>
     <g id="line2d_10">
      <g>
       <use xlink:href="#mf35be8226e" x="357.854541" y="303.64" style="stroke: #000000; stroke-width: 0.8"/>
      </g>
     </g>
     <g id="text_5">
      <!-- 80 -->
      <g transform="translate(351.492041 318.238437)scale(0.1 -0.1)">
       <defs>
        <path id="DejaVuSans-38" d="M 2034 2216 
Q 1584 2216 1326 1975 
Q 1069 1734 1069 1313 
Q 1069 891 1326 650 
Q 1584 409 2034 409 
Q 2484 409 2743 651 
Q 3003 894 3003 1313 
Q 3003 1734 2745 1975 
Q 2488 2216 2034 2216 
z
M 1403 2484 
Q 997 2584 770 2862 
Q 544 3141 544 3541 
Q 544 4100 942 4425 
Q 1341 4750 2034 4750 
Q 2731 4750 3128 4425 
Q 3525 4100 3525 3541 
Q 3525 3141 3298 2862 
Q 3072 2584 2669 2484 
Q 3125 2378 3379 2068 
Q 3634 1759 3634 1313 
Q 3634 634 3220 271 
Q 2806 -91 2034 -91 
Q 1263 -91 848 271 
Q 434 634 434 1313 
Q 434 1759 690 2068 
Q 947 2378 1403 2484 
z
M 1172 3481 
Q 1172 3119 1398 2916 
Q 1625 2713 2034 2713 
Q 2441 2713 2670 2916 
Q 2900 3119 2900 3481 
Q 2900 3844 2670 4047 
Q 2441 4250 2034 4250 
Q 1625 4250 1398 4047 
Q 1172 3844 1172 3481 
z
" transform="scale(0.015625)"/>
       </defs>
       <use xlink:href="#DejaVuSans-38"/>
       <use xlink:href="#DejaVuSans-30" x="63.623047"/>
      </g>
     </g>
    </g>
    <g id="xtick_6">
     <g id="line2d_11">
      <path d="M 431.718636 303.64 
L 431.718636 26.88 
" clip-path="url(#pb071c6f1fd)" style="fill: none; stroke-dasharray: 2.96,1.28; stroke-dashoffset: 0; stroke: #b0b0b0; stroke-width: 0.8"/>
     </g>
     <g id="line2d_12">
      <g>
       <use xlink:href="#mf35be8226e" x="431.718636" y="303.64" style="stroke: #000000; stroke-width: 0.8"/>
      </g>
     </g>
     <g id="text_6">
      <!-- 100 -->
      <g transform="translate(422.174886 318.238437)scale(0.1 -0.1)">
       <defs>
        <path id="DejaVuSans-31" d="M 794 531 
L 1825 531 
L 1825 4091 
L 703 3866 
L 703 4441 
L 1819 4666 
L 2450 4666 
L 2450 531 
L 3481 531 
L 3481 0 
L 794 0 
L 794 531 
z
" transform="scale(0.015625)"/>
       </defs>
       <use xlink:href="#DejaVuSans-31"/>
       <use xlink:href="#DejaVuSans-30" x="63.623047"/>
       <use xlink:href="#DejaVuSans-30" x="127.246094"/>
      </g>
     </g>
    </g>
    <g id="text_7">
     <!-- Epoch -->
     <g transform="translate(233.594063 331.916562)scale(0.1 -0.1)">
      <defs>
       <path id="DejaVuSans-45" d="M 628 4666 
L 3578 4666 
L 3578 4134 
L 1259 4134 
L 1259 2753 
L 3481 2753 
L 3481 2222 
L 1259 2222 
L 1259 531 
L 3634 531 
L 3634 0 
L 628 0 
L 628 4666 
z
" transform="scale(0.015625)"/>
       <path id="DejaVuSans-70" d="M 1159 525 
L 1159 -1331 
L 581 -1331 
L 581 3500 
L 1159 3500 
L 1159 2969 
Q 1341 3281 1617 3432 
Q 1894 3584 2278 3584 
Q 2916 3584 3314 3078 
Q 3713 2572 3713 1747 
Q 3713 922 3314 415 
Q 2916 -91 2278 -91 
Q 1894 -91 1617 61 
Q 1341 213 1159 525 
z
M 3116 1747 
Q 3116 2381 2855 2742 
Q 2594 3103 2138 3103 
Q 1681 3103 1420 2742 
Q 1159 2381 1159 1747 
Q 1159 1113 1420 752 
Q 1681 391 2138 391 
Q 2594 391 2855 752 
Q 3116 1113 3116 1747 
z
" transform="scale(0.015625)"/>
       <path id="DejaVuSans-6f" d="M 1959 3097 
Q 1497 3097 1228 2736 
Q 959 2375 959 1747 
Q 959 1119 1226 758 
Q 1494 397 1959 397 
Q 2419 397 2687 759 
Q 2956 1122 2956 1747 
Q 2956 2369 2687 2733 
Q 2419 3097 1959 3097 
z
M 1959 3584 
Q 2709 3584 3137 3096 
Q 3566 2609 3566 1747 
Q 3566 888 3137 398 
Q 2709 -91 1959 -91 
Q 1206 -91 779 398 
Q 353 888 353 1747 
Q 353 2609 779 3096 
Q 1206 3584 1959 3584 
z
" transform="scale(0.015625)"/>
       <path id="DejaVuSans-63" d="M 3122 3366 
L 3122 2828 
Q 2878 2963 2633 3030 
Q 2388 3097 2138 3097 
Q 1578 3097 1268 2742 
Q 959 2388 959 1747 
Q 959 1106 1268 751 
Q 1578 397 2138 397 
Q 2388 397 2633 464 
Q 2878 531 3122 666 
L 3122 134 
Q 2881 22 2623 -34 
Q 2366 -91 2075 -91 
Q 1284 -91 818 406 
Q 353 903 353 1747 
Q 353 2603 823 3093 
Q 1294 3584 2113 3584 
Q 2378 3584 2631 3529 
Q 2884 3475 3122 3366 
z
" transform="scale(0.015625)"/>
       <path id="DejaVuSans-68" d="M 3513 2113 
L 3513 0 
L 2938 0 
L 2938 2094 
Q 2938 2591 2744 2837 
Q 2550 3084 2163 3084 
Q 1697 3084 1428 2787 
Q 1159 2491 1159 1978 
L 1159 0 
L 581 0 
L 581 4863 
L 1159 4863 
L 1159 2956 
Q 1366 3272 1645 3428 
Q 1925 3584 2291 3584 
Q 2894 3584 3203 3211 
Q 3513 2838 3513 2113 
z
" transform="scale(0.015625)"/>
      </defs>
      <use xlink:href="#DejaVuSans-45"/>
      <use xlink:href="#DejaVuSans-70" x="63.183594"/>
      <use xlink:href="#DejaVuSans-6f" x="126.660156"/>
      <use xlink:href="#DejaVuSans-63" x="187.841797"/>
      <use xlink:href="#DejaVuSans-68" x="242.822266"/>
     </g>
    </g>
   </g>
   <g id="matplotlib.axis_2">
    <g id="ytick_1">
     <g id="line2d_13">
      <path d="M 47.81 278.48 
L 450 278.48 
" clip-path="url(#pb071c6f1fd)" style="fill: none; stroke-dasharray: 2.96,1.28; stroke-dashoffset: 0; stroke: #b0b0b0; stroke-width: 0.8"/>
     </g>
     <g id="line2d_14">
      <defs>
       <path id="mad0d566590" d="M 0 0 
L -3.5 0 
" style="stroke: #000000; stroke-width: 0.8"/>
      </defs>
      <g>
       <use xlink:href="#mad0d566590" x="47.81" y="278.48" style="stroke: #000000; stroke-width: 0.8"/>
      </g>
     </g>
     <g id="text_8">
      <!-- 0.1 -->
      <g transform="translate(24.906875 282.279219)scale(0.1 -0.1)">
       <defs>
        <path id="DejaVuSans-2e" d="M 684 794 
L 1344 794 
L 1344 0 
L 684 0 
L 684 794 
z
" transform="scale(0.015625)"/>
       </defs>
       <use xlink:href="#DejaVuSans-30"/>
       <use xlink:href="#DejaVuSans-2e" x="63.623047"/>
       <use xlink:href="#DejaVuSans-31" x="95.410156"/>
      </g>
     </g>
    </g>
    <g id="ytick_2">
     <g id="line2d_15">
      <path d="M 47.81 253.32 
L 450 253.32 
" clip-path="url(#pb071c6f1fd)" style="fill: none; stroke-dasharray: 2.96,1.28; stroke-dashoffset: 0; stroke: #b0b0b0; stroke-width: 0.8"/>
     </g>
     <g id="line2d_16">
      <g>
       <use xlink:href="#mad0d566590" x="47.81" y="253.32" style="stroke: #000000; stroke-width: 0.8"/>
      </g>
     </g>
     <g id="text_9">
      <!-- 0.2 -->
      <g transform="translate(24.906875 257.119219)scale(0.1 -0.1)">
       <use xlink:href="#DejaVuSans-30"/>
       <use xlink:href="#DejaVuSans-2e" x="63.623047"/>
       <use xlink:href="#DejaVuSans-32" x="95.410156"/>
      </g>
     </g>
    </g>
    <g id="ytick_3">
     <g id="line2d_17">
      <path d="M 47.81 228.16 
L 450 228.16 
" clip-path="url(#pb071c6f1fd)" style="fill: none; stroke-dasharray: 2.96,1.28; stroke-dashoffset: 0; stroke: #b0b0b0; stroke-width: 0.8"/>
     </g>
     <g id="line2d_18">
      <g>
       <use xlink:href="#mad0d566590" x="47.81" y="228.16" style="stroke: #000000; stroke-width: 0.8"/>
      </g>
     </g>
     <g id="text_10">
      <!-- 0.3 -->
      <g transform="translate(24.906875 231.959219)scale(0.1 -0.1)">
       <defs>
        <path id="DejaVuSans-33" d="M 2597 2516 
Q 3050 2419 3304 2112 
Q 3559 1806 3559 1356 
Q 3559 666 3084 287 
Q 2609 -91 1734 -91 
Q 1441 -91 1130 -33 
Q 819 25 488 141 
L 488 750 
Q 750 597 1062 519 
Q 1375 441 1716 441 
Q 2309 441 2620 675 
Q 2931 909 2931 1356 
Q 2931 1769 2642 2001 
Q 2353 2234 1838 2234 
L 1294 2234 
L 1294 2753 
L 1863 2753 
Q 2328 2753 2575 2939 
Q 2822 3125 2822 3475 
Q 2822 3834 2567 4026 
Q 2313 4219 1838 4219 
Q 1578 4219 1281 4162 
Q 984 4106 628 3988 
L 628 4550 
Q 988 4650 1302 4700 
Q 1616 4750 1894 4750 
Q 2613 4750 3031 4423 
Q 3450 4097 3450 3541 
Q 3450 3153 3228 2886 
Q 3006 2619 2597 2516 
z
" transform="scale(0.015625)"/>
       </defs>
       <use xlink:href="#DejaVuSans-30"/>
       <use xlink:href="#DejaVuSans-2e" x="63.623047"/>
       <use xlink:href="#DejaVuSans-33" x="95.410156"/>
      </g>
     </g>
    </g>
    <g id="ytick_4">
     <g id="line2d_19">
      <path d="M 47.81 203 
L 450 203 
" clip-path="url(#pb071c6f1fd)" style="fill: none; stroke-dasharray: 2.96,1.28; stroke-dashoffset: 0; stroke: #b0b0b0; stroke-width: 0.8"/>
     </g>
     <g id="line2d_20">
      <g>
       <use xlink:href="#mad0d566590" x="47.81" y="203" style="stroke: #000000; stroke-width: 0.8"/>
      </g>
     </g>
     <g id="text_11">
      <!-- 0.4 -->
      <g transform="translate(24.906875 206.799219)scale(0.1 -0.1)">
       <use xlink:href="#DejaVuSans-30"/>
       <use xlink:href="#DejaVuSans-2e" x="63.623047"/>
       <use xlink:href="#DejaVuSans-34" x="95.410156"/>
      </g>
     </g>
    </g>
    <g id="ytick_5">
     <g id="line2d_21">
      <path d="M 47.81 177.84 
L 450 177.84 
" clip-path="url(#pb071c6f1fd)" style="fill: none; stroke-dasharray: 2.96,1.28; stroke-dashoffset: 0; stroke: #b0b0b0; stroke-width: 0.8"/>
     </g>
     <g id="line2d_22">
      <g>
       <use xlink:href="#mad0d566590" x="47.81" y="177.84" style="stroke: #000000; stroke-width: 0.8"/>
      </g>
     </g>
     <g id="text_12">
      <!-- 0.5 -->
      <g transform="translate(24.906875 181.639219)scale(0.1 -0.1)">
       <defs>
        <path id="DejaVuSans-35" d="M 691 4666 
L 3169 4666 
L 3169 4134 
L 1269 4134 
L 1269 2991 
Q 1406 3038 1543 3061 
Q 1681 3084 1819 3084 
Q 2600 3084 3056 2656 
Q 3513 2228 3513 1497 
Q 3513 744 3044 326 
Q 2575 -91 1722 -91 
Q 1428 -91 1123 -41 
Q 819 9 494 109 
L 494 744 
Q 775 591 1075 516 
Q 1375 441 1709 441 
Q 2250 441 2565 725 
Q 2881 1009 2881 1497 
Q 2881 1984 2565 2268 
Q 2250 2553 1709 2553 
Q 1456 2553 1204 2497 
Q 953 2441 691 2322 
L 691 4666 
z
" transform="scale(0.015625)"/>
       </defs>
       <use xlink:href="#DejaVuSans-30"/>
       <use xlink:href="#DejaVuSans-2e" x="63.623047"/>
       <use xlink:href="#DejaVuSans-35" x="95.410156"/>
      </g>
     </g>
    </g>
    <g id="ytick_6">
     <g id="line2d_23">
      <path d="M 47.81 152.68 
L 450 152.68 
" clip-path="url(#pb071c6f1fd)" style="fill: none; stroke-dasharray: 2.96,1.28; stroke-dashoffset: 0; stroke: #b0b0b0; stroke-width: 0.8"/>
     </g>
     <g id="line2d_24">
      <g>
       <use xlink:href="#mad0d566590" x="47.81" y="152.68" style="stroke: #000000; stroke-width: 0.8"/>
      </g>
     </g>
     <g id="text_13">
      <!-- 0.6 -->
      <g transform="translate(24.906875 156.479219)scale(0.1 -0.1)">
       <use xlink:href="#DejaVuSans-30"/>
       <use xlink:href="#DejaVuSans-2e" x="63.623047"/>
       <use xlink:href="#DejaVuSans-36" x="95.410156"/>
      </g>
     </g>
    </g>
    <g id="ytick_7">
     <g id="line2d_25">
      <path d="M 47.81 127.52 
L 450 127.52 
" clip-path="url(#pb071c6f1fd)" style="fill: none; stroke-dasharray: 2.96,1.28; stroke-dashoffset: 0; stroke: #b0b0b0; stroke-width: 0.8"/>
     </g>
     <g id="line2d_26">
      <g>
       <use xlink:href="#mad0d566590" x="47.81" y="127.52" style="stroke: #000000; stroke-width: 0.8"/>
      </g>
     </g>
     <g id="text_14">
      <!-- 0.7 -->
      <g transform="translate(24.906875 131.319219)scale(0.1 -0.1)">
       <defs>
        <path id="DejaVuSans-37" d="M 525 4666 
L 3525 4666 
L 3525 4397 
L 1831 0 
L 1172 0 
L 2766 4134 
L 525 4134 
L 525 4666 
z
" transform="scale(0.015625)"/>
       </defs>
       <use xlink:href="#DejaVuSans-30"/>
       <use xlink:href="#DejaVuSans-2e" x="63.623047"/>
       <use xlink:href="#DejaVuSans-37" x="95.410156"/>
      </g>
     </g>
    </g>
    <g id="ytick_8">
     <g id="line2d_27">
      <path d="M 47.81 102.36 
L 450 102.36 
" clip-path="url(#pb071c6f1fd)" style="fill: none; stroke-dasharray: 2.96,1.28; stroke-dashoffset: 0; stroke: #b0b0b0; stroke-width: 0.8"/>
     </g>
     <g id="line2d_28">
      <g>
       <use xlink:href="#mad0d566590" x="47.81" y="102.36" style="stroke: #000000; stroke-width: 0.8"/>
      </g>
     </g>
     <g id="text_15">
      <!-- 0.8 -->
      <g transform="translate(24.906875 106.159219)scale(0.1 -0.1)">
       <use xlink:href="#DejaVuSans-30"/>
       <use xlink:href="#DejaVuSans-2e" x="63.623047"/>
       <use xlink:href="#DejaVuSans-38" x="95.410156"/>
      </g>
     </g>
    </g>
    <g id="ytick_9">
     <g id="line2d_29">
      <path d="M 47.81 77.2 
L 450 77.2 
" clip-path="url(#pb071c6f1fd)" style="fill: none; stroke-dasharray: 2.96,1.28; stroke-dashoffset: 0; stroke: #b0b0b0; stroke-width: 0.8"/>
     </g>
     <g id="line2d_30">
      <g>
       <use xlink:href="#mad0d566590" x="47.81" y="77.2" style="stroke: #000000; stroke-width: 0.8"/>
      </g>
     </g>
     <g id="text_16">
      <!-- 0.9 -->
      <g transform="translate(24.906875 80.999219)scale(0.1 -0.1)">
       <defs>
        <path id="DejaVuSans-39" d="M 703 97 
L 703 672 
Q 941 559 1184 500 
Q 1428 441 1663 441 
Q 2288 441 2617 861 
Q 2947 1281 2994 2138 
Q 2813 1869 2534 1725 
Q 2256 1581 1919 1581 
Q 1219 1581 811 2004 
Q 403 2428 403 3163 
Q 403 3881 828 4315 
Q 1253 4750 1959 4750 
Q 2769 4750 3195 4129 
Q 3622 3509 3622 2328 
Q 3622 1225 3098 567 
Q 2575 -91 1691 -91 
Q 1453 -91 1209 -44 
Q 966 3 703 97 
z
M 1959 2075 
Q 2384 2075 2632 2365 
Q 2881 2656 2881 3163 
Q 2881 3666 2632 3958 
Q 2384 4250 1959 4250 
Q 1534 4250 1286 3958 
Q 1038 3666 1038 3163 
Q 1038 2656 1286 2365 
Q 1534 2075 1959 2075 
z
" transform="scale(0.015625)"/>
       </defs>
       <use xlink:href="#DejaVuSans-30"/>
       <use xlink:href="#DejaVuSans-2e" x="63.623047"/>
       <use xlink:href="#DejaVuSans-39" x="95.410156"/>
      </g>
     </g>
    </g>
    <g id="ytick_10">
     <g id="line2d_31">
      <path d="M 47.81 52.04 
L 450 52.04 
" clip-path="url(#pb071c6f1fd)" style="fill: none; stroke-dasharray: 2.96,1.28; stroke-dashoffset: 0; stroke: #b0b0b0; stroke-width: 0.8"/>
     </g>
     <g id="line2d_32">
      <g>
       <use xlink:href="#mad0d566590" x="47.81" y="52.04" style="stroke: #000000; stroke-width: 0.8"/>
      </g>
     </g>
     <g id="text_17">
      <!-- 1.0 -->
      <g transform="translate(24.906875 55.839219)scale(0.1 -0.1)">
       <use xlink:href="#DejaVuSans-31"/>
       <use xlink:href="#DejaVuSans-2e" x="63.623047"/>
       <use xlink:href="#DejaVuSans-30" x="95.410156"/>
      </g>
     </g>
    </g>
    <g id="ytick_11">
     <g id="line2d_33">
      <path d="M 47.81 26.88 
L 450 26.88 
" clip-path="url(#pb071c6f1fd)" style="fill: none; stroke-dasharray: 2.96,1.28; stroke-dashoffset: 0; stroke: #b0b0b0; stroke-width: 0.8"/>
     </g>
     <g id="line2d_34">
      <g>
       <use xlink:href="#mad0d566590" x="47.81" y="26.88" style="stroke: #000000; stroke-width: 0.8"/>
      </g>
     </g>
     <g id="text_18">
      <!-- 1.1 -->
      <g transform="translate(24.906875 30.679219)scale(0.1 -0.1)">
       <use xlink:href="#DejaVuSans-31"/>
       <use xlink:href="#DejaVuSans-2e" x="63.623047"/>
       <use xlink:href="#DejaVuSans-31" x="95.410156"/>
      </g>
     </g>
    </g>
    <g id="text_19">
     <!-- BCE Loss -->
     <g transform="translate(18.827187 187.81)rotate(-90)scale(0.1 -0.1)">
      <defs>
       <path id="DejaVuSans-42" d="M 1259 2228 
L 1259 519 
L 2272 519 
Q 2781 519 3026 730 
Q 3272 941 3272 1375 
Q 3272 1813 3026 2020 
Q 2781 2228 2272 2228 
L 1259 2228 
z
M 1259 4147 
L 1259 2741 
L 2194 2741 
Q 2656 2741 2882 2914 
Q 3109 3088 3109 3444 
Q 3109 3797 2882 3972 
Q 2656 4147 2194 4147 
L 1259 4147 
z
M 628 4666 
L 2241 4666 
Q 2963 4666 3353 4366 
Q 3744 4066 3744 3513 
Q 3744 3084 3544 2831 
Q 3344 2578 2956 2516 
Q 3422 2416 3680 2098 
Q 3938 1781 3938 1306 
Q 3938 681 3513 340 
Q 3088 0 2303 0 
L 628 0 
L 628 4666 
z
" transform="scale(0.015625)"/>
       <path id="DejaVuSans-43" d="M 4122 4306 
L 4122 3641 
Q 3803 3938 3442 4084 
Q 3081 4231 2675 4231 
Q 1875 4231 1450 3742 
Q 1025 3253 1025 2328 
Q 1025 1406 1450 917 
Q 1875 428 2675 428 
Q 3081 428 3442 575 
Q 3803 722 4122 1019 
L 4122 359 
Q 3791 134 3420 21 
Q 3050 -91 2638 -91 
Q 1578 -91 968 557 
Q 359 1206 359 2328 
Q 359 3453 968 4101 
Q 1578 4750 2638 4750 
Q 3056 4750 3426 4639 
Q 3797 4528 4122 4306 
z
" transform="scale(0.015625)"/>
       <path id="DejaVuSans-20" transform="scale(0.015625)"/>
       <path id="DejaVuSans-4c" d="M 628 4666 
L 1259 4666 
L 1259 531 
L 3531 531 
L 3531 0 
L 628 0 
L 628 4666 
z
" transform="scale(0.015625)"/>
       <path id="DejaVuSans-73" d="M 2834 3397 
L 2834 2853 
Q 2591 2978 2328 3040 
Q 2066 3103 1784 3103 
Q 1356 3103 1142 2972 
Q 928 2841 928 2578 
Q 928 2378 1081 2264 
Q 1234 2150 1697 2047 
L 1894 2003 
Q 2506 1872 2764 1633 
Q 3022 1394 3022 966 
Q 3022 478 2636 193 
Q 2250 -91 1575 -91 
Q 1294 -91 989 -36 
Q 684 19 347 128 
L 347 722 
Q 666 556 975 473 
Q 1284 391 1588 391 
Q 1994 391 2212 530 
Q 2431 669 2431 922 
Q 2431 1156 2273 1281 
Q 2116 1406 1581 1522 
L 1381 1569 
Q 847 1681 609 1914 
Q 372 2147 372 2553 
Q 372 3047 722 3315 
Q 1072 3584 1716 3584 
Q 2034 3584 2315 3537 
Q 2597 3491 2834 3397 
z
" transform="scale(0.015625)"/>
      </defs>
      <use xlink:href="#DejaVuSans-42"/>
      <use xlink:href="#DejaVuSans-43" x="66.853516"/>
      <use xlink:href="#DejaVuSans-45" x="136.677734"/>
      <use xlink:href="#DejaVuSans-20" x="199.861328"/>
      <use xlink:href="#DejaVuSans-4c" x="231.648438"/>
      <use xlink:href="#DejaVuSans-6f" x="285.611328"/>
      <use xlink:href="#DejaVuSans-73" x="346.792969"/>
      <use xlink:href="#DejaVuSans-73" x="398.892578"/>
     </g>
    </g>
   </g>
   <g id="line2d_35">
    <path d="M 66.091364 109.499706 
L 73.477773 134.653991 
L 80.864183 137.876665 
L 88.250592 139.756655 
L 95.637002 139.916504 
L 103.023411 140.825085 
L 110.409821 142.837937 
L 117.79623 143.420517 
L 125.18264 144.39933 
L 132.56905 144.624147 
L 139.955459 145.896516 
L 147.341869 147.691538 
L 154.728278 149.892229 
L 162.114688 151.609751 
L 169.501097 153.818221 
L 176.887507 154.512605 
L 184.273916 151.056757 
L 191.660326 154.939706 
L 199.046736 153.897182 
L 206.433145 153.383141 
L 213.819555 154.593272 
L 221.205964 156.160727 
L 228.592374 157.666345 
L 235.978783 158.453217 
L 243.365193 158.050821 
L 250.751602 157.647204 
L 258.138012 159.880569 
L 265.524421 159.05231 
L 272.910831 162.749802 
L 280.297241 164.837153 
L 287.68365 170.16536 
L 295.07006 170.021761 
L 302.456469 170.700382 
L 309.842879 177.157603 
L 317.229288 177.520577 
L 324.615698 174.738255 
L 332.002107 179.942051 
L 339.388517 185.823901 
L 346.774927 179.771319 
L 354.161336 181.706895 
L 361.547746 186.541856 
L 368.934155 186.779182 
L 376.320565 187.336412 
L 383.706974 189.746684 
L 391.093384 192.134329 
L 398.479793 194.739121 
L 405.866203 193.781333 
L 413.252612 196.139845 
L 420.639022 199.331597 
L 428.025432 200.426403 
" clip-path="url(#pb071c6f1fd)" style="fill: none; stroke: #f34a36; stroke-width: 2; stroke-linecap: square"/>
    <defs>
     <path id="mf3d200e849" d="M 0 1.5 
C 0.397805 1.5 0.77937 1.341951 1.06066 1.06066 
C 1.341951 0.77937 1.5 0.397805 1.5 0 
C 1.5 -0.397805 1.341951 -0.77937 1.06066 -1.06066 
C 0.77937 -1.341951 0.397805 -1.5 0 -1.5 
C -0.397805 -1.5 -0.77937 -1.341951 -1.06066 -1.06066 
C -1.341951 -0.77937 -1.5 -0.397805 -1.5 0 
C -1.5 0.397805 -1.341951 0.77937 -1.06066 1.06066 
C -0.77937 1.341951 -0.397805 1.5 0 1.5 
z
" style="stroke: #f34a36"/>
    </defs>
    <g clip-path="url(#pb071c6f1fd)">
     <use xlink:href="#mf3d200e849" x="66.091364" y="109.499706" style="fill: #f34a36; stroke: #f34a36"/>
     <use xlink:href="#mf3d200e849" x="73.477773" y="134.653991" style="fill: #f34a36; stroke: #f34a36"/>
     <use xlink:href="#mf3d200e849" x="80.864183" y="137.876665" style="fill: #f34a36; stroke: #f34a36"/>
     <use xlink:href="#mf3d200e849" x="88.250592" y="139.756655" style="fill: #f34a36; stroke: #f34a36"/>
     <use xlink:href="#mf3d200e849" x="95.637002" y="139.916504" style="fill: #f34a36; stroke: #f34a36"/>
     <use xlink:href="#mf3d200e849" x="103.023411" y="140.825085" style="fill: #f34a36; stroke: #f34a36"/>
     <use xlink:href="#mf3d200e849" x="110.409821" y="142.837937" style="fill: #f34a36; stroke: #f34a36"/>
     <use xlink:href="#mf3d200e849" x="117.79623" y="143.420517" style="fill: #f34a36; stroke: #f34a36"/>
     <use xlink:href="#mf3d200e849" x="125.18264" y="144.39933" style="fill: #f34a36; stroke: #f34a36"/>
     <use xlink:href="#mf3d200e849" x="132.56905" y="144.624147" style="fill: #f34a36; stroke: #f34a36"/>
     <use xlink:href="#mf3d200e849" x="139.955459" y="145.896516" style="fill: #f34a36; stroke: #f34a36"/>
     <use xlink:href="#mf3d200e849" x="147.341869" y="147.691538" style="fill: #f34a36; stroke: #f34a36"/>
     <use xlink:href="#mf3d200e849" x="154.728278" y="149.892229" style="fill: #f34a36; stroke: #f34a36"/>
     <use xlink:href="#mf3d200e849" x="162.114688" y="151.609751" style="fill: #f34a36; stroke: #f34a36"/>
     <use xlink:href="#mf3d200e849" x="169.501097" y="153.818221" style="fill: #f34a36; stroke: #f34a36"/>
     <use xlink:href="#mf3d200e849" x="176.887507" y="154.512605" style="fill: #f34a36; stroke: #f34a36"/>
     <use xlink:href="#mf3d200e849" x="184.273916" y="151.056757" style="fill: #f34a36; stroke: #f34a36"/>
     <use xlink:href="#mf3d200e849" x="191.660326" y="154.939706" style="fill: #f34a36; stroke: #f34a36"/>
     <use xlink:href="#mf3d200e849" x="199.046736" y="153.897182" style="fill: #f34a36; stroke: #f34a36"/>
     <use xlink:href="#mf3d200e849" x="206.433145" y="153.383141" style="fill: #f34a36; stroke: #f34a36"/>
     <use xlink:href="#mf3d200e849" x="213.819555" y="154.593272" style="fill: #f34a36; stroke: #f34a36"/>
     <use xlink:href="#mf3d200e849" x="221.205964" y="156.160727" style="fill: #f34a36; stroke: #f34a36"/>
     <use xlink:href="#mf3d200e849" x="228.592374" y="157.666345" style="fill: #f34a36; stroke: #f34a36"/>
     <use xlink:href="#mf3d200e849" x="235.978783" y="158.453217" style="fill: #f34a36; stroke: #f34a36"/>
     <use xlink:href="#mf3d200e849" x="243.365193" y="158.050821" style="fill: #f34a36; stroke: #f34a36"/>
     <use xlink:href="#mf3d200e849" x="250.751602" y="157.647204" style="fill: #f34a36; stroke: #f34a36"/>
     <use xlink:href="#mf3d200e849" x="258.138012" y="159.880569" style="fill: #f34a36; stroke: #f34a36"/>
     <use xlink:href="#mf3d200e849" x="265.524421" y="159.05231" style="fill: #f34a36; stroke: #f34a36"/>
     <use xlink:href="#mf3d200e849" x="272.910831" y="162.749802" style="fill: #f34a36; stroke: #f34a36"/>
     <use xlink:href="#mf3d200e849" x="280.297241" y="164.837153" style="fill: #f34a36; stroke: #f34a36"/>
     <use xlink:href="#mf3d200e849" x="287.68365" y="170.16536" style="fill: #f34a36; stroke: #f34a36"/>
     <use xlink:href="#mf3d200e849" x="295.07006" y="170.021761" style="fill: #f34a36; stroke: #f34a36"/>
     <use xlink:href="#mf3d200e849" x="302.456469" y="170.700382" style="fill: #f34a36; stroke: #f34a36"/>
     <use xlink:href="#mf3d200e849" x="309.842879" y="177.157603" style="fill: #f34a36; stroke: #f34a36"/>
     <use xlink:href="#mf3d200e849" x="317.229288" y="177.520577" style="fill: #f34a36; stroke: #f34a36"/>
     <use xlink:href="#mf3d200e849" x="324.615698" y="174.738255" style="fill: #f34a36; stroke: #f34a36"/>
     <use xlink:href="#mf3d200e849" x="332.002107" y="179.942051" style="fill: #f34a36; stroke: #f34a36"/>
     <use xlink:href="#mf3d200e849" x="339.388517" y="185.823901" style="fill: #f34a36; stroke: #f34a36"/>
     <use xlink:href="#mf3d200e849" x="346.774927" y="179.771319" style="fill: #f34a36; stroke: #f34a36"/>
     <use xlink:href="#mf3d200e849" x="354.161336" y="181.706895" style="fill: #f34a36; stroke: #f34a36"/>
     <use xlink:href="#mf3d200e849" x="361.547746" y="186.541856" style="fill: #f34a36; stroke: #f34a36"/>
     <use xlink:href="#mf3d200e849" x="368.934155" y="186.779182" style="fill: #f34a36; stroke: #f34a36"/>
     <use xlink:href="#mf3d200e849" x="376.320565" y="187.336412" style="fill: #f34a36; stroke: #f34a36"/>
     <use xlink:href="#mf3d200e849" x="383.706974" y="189.746684" style="fill: #f34a36; stroke: #f34a36"/>
     <use xlink:href="#mf3d200e849" x="391.093384" y="192.134329" style="fill: #f34a36; stroke: #f34a36"/>
     <use xlink:href="#mf3d200e849" x="398.479793" y="194.739121" style="fill: #f34a36; stroke: #f34a36"/>
     <use xlink:href="#mf3d200e849" x="405.866203" y="193.781333" style="fill: #f34a36; stroke: #f34a36"/>
     <use xlink:href="#mf3d200e849" x="413.252612" y="196.139845" style="fill: #f34a36; stroke: #f34a36"/>
     <use xlink:href="#mf3d200e849" x="420.639022" y="199.331597" style="fill: #f34a36; stroke: #f34a36"/>
     <use xlink:href="#mf3d200e849" x="428.025432" y="200.426403" style="fill: #f34a36; stroke: #f34a36"/>
    </g>
   </g>
   <g id="patch_3">
    <path d="M 47.81 303.64 
L 47.81 26.88 
" style="fill: none; stroke: #000000; stroke-width: 0.8; stroke-linejoin: miter; stroke-linecap: square"/>
   </g>
   <g id="patch_4">
    <path d="M 450 303.64 
L 450 26.88 
" style="fill: none; stroke: #000000; stroke-width: 0.8; stroke-linejoin: miter; stroke-linecap: square"/>
   </g>
   <g id="patch_5">
    <path d="M 47.81 303.64 
L 450 303.64 
" style="fill: none; stroke: #000000; stroke-width: 0.8; stroke-linejoin: miter; stroke-linecap: square"/>
   </g>
   <g id="patch_6">
    <path d="M 47.81 26.88 
L 450 26.88 
" style="fill: none; stroke: #000000; stroke-width: 0.8; stroke-linejoin: miter; stroke-linecap: square"/>
   </g>
   <g id="text_20">
    <!-- Loss vs. epoch for split dataset -->
    <g transform="translate(155.797188 20.88)scale(0.12 -0.12)">
     <defs>
      <path id="DejaVuSans-76" d="M 191 3500 
L 800 3500 
L 1894 563 
L 2988 3500 
L 3597 3500 
L 2284 0 
L 1503 0 
L 191 3500 
z
" transform="scale(0.015625)"/>
      <path id="DejaVuSans-65" d="M 3597 1894 
L 3597 1613 
L 953 1613 
Q 991 1019 1311 708 
Q 1631 397 2203 397 
Q 2534 397 2845 478 
Q 3156 559 3463 722 
L 3463 178 
Q 3153 47 2828 -22 
Q 2503 -91 2169 -91 
Q 1331 -91 842 396 
Q 353 884 353 1716 
Q 353 2575 817 3079 
Q 1281 3584 2069 3584 
Q 2775 3584 3186 3129 
Q 3597 2675 3597 1894 
z
M 3022 2063 
Q 3016 2534 2758 2815 
Q 2500 3097 2075 3097 
Q 1594 3097 1305 2825 
Q 1016 2553 972 2059 
L 3022 2063 
z
" transform="scale(0.015625)"/>
      <path id="DejaVuSans-66" d="M 2375 4863 
L 2375 4384 
L 1825 4384 
Q 1516 4384 1395 4259 
Q 1275 4134 1275 3809 
L 1275 3500 
L 2222 3500 
L 2222 3053 
L 1275 3053 
L 1275 0 
L 697 0 
L 697 3053 
L 147 3053 
L 147 3500 
L 697 3500 
L 697 3744 
Q 697 4328 969 4595 
Q 1241 4863 1831 4863 
L 2375 4863 
z
" transform="scale(0.015625)"/>
      <path id="DejaVuSans-72" d="M 2631 2963 
Q 2534 3019 2420 3045 
Q 2306 3072 2169 3072 
Q 1681 3072 1420 2755 
Q 1159 2438 1159 1844 
L 1159 0 
L 581 0 
L 581 3500 
L 1159 3500 
L 1159 2956 
Q 1341 3275 1631 3429 
Q 1922 3584 2338 3584 
Q 2397 3584 2469 3576 
Q 2541 3569 2628 3553 
L 2631 2963 
z
" transform="scale(0.015625)"/>
      <path id="DejaVuSans-6c" d="M 603 4863 
L 1178 4863 
L 1178 0 
L 603 0 
L 603 4863 
z
" transform="scale(0.015625)"/>
      <path id="DejaVuSans-69" d="M 603 3500 
L 1178 3500 
L 1178 0 
L 603 0 
L 603 3500 
z
M 603 4863 
L 1178 4863 
L 1178 4134 
L 603 4134 
L 603 4863 
z
" transform="scale(0.015625)"/>
      <path id="DejaVuSans-74" d="M 1172 4494 
L 1172 3500 
L 2356 3500 
L 2356 3053 
L 1172 3053 
L 1172 1153 
Q 1172 725 1289 603 
Q 1406 481 1766 481 
L 2356 481 
L 2356 0 
L 1766 0 
Q 1100 0 847 248 
Q 594 497 594 1153 
L 594 3053 
L 172 3053 
L 172 3500 
L 594 3500 
L 594 4494 
L 1172 4494 
z
" transform="scale(0.015625)"/>
      <path id="DejaVuSans-64" d="M 2906 2969 
L 2906 4863 
L 3481 4863 
L 3481 0 
L 2906 0 
L 2906 525 
Q 2725 213 2448 61 
Q 2172 -91 1784 -91 
Q 1150 -91 751 415 
Q 353 922 353 1747 
Q 353 2572 751 3078 
Q 1150 3584 1784 3584 
Q 2172 3584 2448 3432 
Q 2725 3281 2906 2969 
z
M 947 1747 
Q 947 1113 1208 752 
Q 1469 391 1925 391 
Q 2381 391 2643 752 
Q 2906 1113 2906 1747 
Q 2906 2381 2643 2742 
Q 2381 3103 1925 3103 
Q 1469 3103 1208 2742 
Q 947 2381 947 1747 
z
" transform="scale(0.015625)"/>
      <path id="DejaVuSans-61" d="M 2194 1759 
Q 1497 1759 1228 1600 
Q 959 1441 959 1056 
Q 959 750 1161 570 
Q 1363 391 1709 391 
Q 2188 391 2477 730 
Q 2766 1069 2766 1631 
L 2766 1759 
L 2194 1759 
z
M 3341 1997 
L 3341 0 
L 2766 0 
L 2766 531 
Q 2569 213 2275 61 
Q 1981 -91 1556 -91 
Q 1019 -91 701 211 
Q 384 513 384 1019 
Q 384 1609 779 1909 
Q 1175 2209 1959 2209 
L 2766 2209 
L 2766 2266 
Q 2766 2663 2505 2880 
Q 2244 3097 1772 3097 
Q 1472 3097 1187 3025 
Q 903 2953 641 2809 
L 641 3341 
Q 956 3463 1253 3523 
Q 1550 3584 1831 3584 
Q 2591 3584 2966 3190 
Q 3341 2797 3341 1997 
z
" transform="scale(0.015625)"/>
     </defs>
     <use xlink:href="#DejaVuSans-4c"/>
     <use xlink:href="#DejaVuSans-6f" x="53.962891"/>
     <use xlink:href="#DejaVuSans-73" x="115.144531"/>
     <use xlink:href="#DejaVuSans-73" x="167.244141"/>
     <use xlink:href="#DejaVuSans-20" x="219.34375"/>
     <use xlink:href="#DejaVuSans-76" x="251.130859"/>
     <use xlink:href="#DejaVuSans-73" x="310.310547"/>
     <use xlink:href="#DejaVuSans-2e" x="362.410156"/>
     <use xlink:href="#DejaVuSans-20" x="394.197266"/>
     <use xlink:href="#DejaVuSans-65" x="425.984375"/>
     <use xlink:href="#DejaVuSans-70" x="487.507812"/>
     <use xlink:href="#DejaVuSans-6f" x="550.984375"/>
     <use xlink:href="#DejaVuSans-63" x="612.166016"/>
     <use xlink:href="#DejaVuSans-68" x="667.146484"/>
     <use xlink:href="#DejaVuSans-20" x="730.525391"/>
     <use xlink:href="#DejaVuSans-66" x="762.3125"/>
     <use xlink:href="#DejaVuSans-6f" x="797.517578"/>
     <use xlink:href="#DejaVuSans-72" x="858.699219"/>
     <use xlink:href="#DejaVuSans-20" x="899.8125"/>
     <use xlink:href="#DejaVuSans-73" x="931.599609"/>
     <use xlink:href="#DejaVuSans-70" x="983.699219"/>
     <use xlink:href="#DejaVuSans-6c" x="1047.175781"/>
     <use xlink:href="#DejaVuSans-69" x="1074.958984"/>
     <use xlink:href="#DejaVuSans-74" x="1102.742188"/>
     <use xlink:href="#DejaVuSans-20" x="1141.951172"/>
     <use xlink:href="#DejaVuSans-64" x="1173.738281"/>
     <use xlink:href="#DejaVuSans-61" x="1237.214844"/>
     <use xlink:href="#DejaVuSans-74" x="1298.494141"/>
     <use xlink:href="#DejaVuSans-61" x="1337.703125"/>
     <use xlink:href="#DejaVuSans-73" x="1398.982422"/>
     <use xlink:href="#DejaVuSans-65" x="1451.082031"/>
     <use xlink:href="#DejaVuSans-74" x="1512.605469"/>
    </g>
   </g>
   <g id="legend_1">
    <g id="patch_7">
     <path d="M 388.826562 49.558125 
L 443 49.558125 
Q 445 49.558125 445 47.558125 
L 445 33.88 
Q 445 31.88 443 31.88 
L 388.826562 31.88 
Q 386.826562 31.88 386.826562 33.88 
L 386.826562 47.558125 
Q 386.826562 49.558125 388.826562 49.558125 
z
" style="fill: #ffffff; opacity: 0.8; stroke: #cccccc; stroke-linejoin: miter"/>
    </g>
    <g id="line2d_36">
     <path d="M 390.826562 39.978437 
L 400.826562 39.978437 
L 410.826562 39.978437 
" style="fill: none; stroke: #f34a36; stroke-width: 2; stroke-linecap: square"/>
     <g>
      <use xlink:href="#mf3d200e849" x="400.826562" y="39.978437" style="fill: #f34a36; stroke: #f34a36"/>
     </g>
    </g>
    <g id="text_21">
     <!-- Split -->
     <g transform="translate(418.826562 43.478437)scale(0.1 -0.1)">
      <defs>
       <path id="DejaVuSans-53" d="M 3425 4513 
L 3425 3897 
Q 3066 4069 2747 4153 
Q 2428 4238 2131 4238 
Q 1616 4238 1336 4038 
Q 1056 3838 1056 3469 
Q 1056 3159 1242 3001 
Q 1428 2844 1947 2747 
L 2328 2669 
Q 3034 2534 3370 2195 
Q 3706 1856 3706 1288 
Q 3706 609 3251 259 
Q 2797 -91 1919 -91 
Q 1588 -91 1214 -16 
Q 841 59 441 206 
L 441 856 
Q 825 641 1194 531 
Q 1563 422 1919 422 
Q 2459 422 2753 634 
Q 3047 847 3047 1241 
Q 3047 1584 2836 1778 
Q 2625 1972 2144 2069 
L 1759 2144 
Q 1053 2284 737 2584 
Q 422 2884 422 3419 
Q 422 4038 858 4394 
Q 1294 4750 2059 4750 
Q 2388 4750 2728 4690 
Q 3069 4631 3425 4513 
z
" transform="scale(0.015625)"/>
      </defs>
      <use xlink:href="#DejaVuSans-53"/>
      <use xlink:href="#DejaVuSans-70" x="63.476562"/>
      <use xlink:href="#DejaVuSans-6c" x="126.953125"/>
      <use xlink:href="#DejaVuSans-69" x="154.736328"/>
      <use xlink:href="#DejaVuSans-74" x="182.519531"/>
     </g>
    </g>
   </g>
  </g>
 </g>
 <defs>
  <clipPath id="pb071c6f1fd">
   <rect x="47.81" y="26.88" width="402.19" height="276.76"/>
  </clipPath>
 </defs>
</svg>
