<?xml version="1.0" encoding="utf-8" standalone="no"?>
<!DOCTYPE svg PUBLIC "-//W3C//DTD SVG 1.1//EN"
  "http://www.w3.org/Graphics/SVG/1.1/DTD/svg11.dtd">
<svg xmlns:xlink="http://www.w3.org/1999/xlink" width="460.8pt" height="345.6pt" viewBox="0 0 460.8 345.6" xmlns="http://www.w3.org/2000/svg" version="1.1">
 <metadata>
  <rdf:RDF xmlns:dc="http://purl.org/dc/elements/1.1/" xmlns:cc="http://creativecommons.org/ns#" xmlns:rdf="http://www.w3.org/1999/02/22-rdf-syntax-ns#">
   <cc:Work>
    <dc:type rdf:resource="http://purl.org/dc/dcmitype/StillImage"/>
    <dc:date>2022-12-16T11:31:09.098119</dc:date>
    <dc:format>image/svg+xml</dc:format>
    <dc:creator>
     <cc:Agent>
      <dc:title>Matplotlib v3.5.1, https://matplotlib.org/</dc:title>
     </cc:Agent>
    </dc:creator>
   </cc:Work>
  </rdf:RDF>
 </metadata>
 <defs>
  <style type="text/css">*{stroke-linejoin: round; stroke-linecap: butt}</style>
 </defs>
 <g id="figure_1">
  <g id="patch_1">
   <path d="M 0 345.6 
L 460.8 345.6 
L 460.8 0 
L 0 0 
z
" style="fill: #ffffff"/>
  </g>
  <g id="axes_1">
   <g id="patch_2">
    <path d="M 47.81 303.64 
L 450 303.64 
L 450 26.88 
L 47.81 26.88 
z
" style="fill: #ffffff"/>
   </g>
   <g id="PolyCollection_1">
    <defs>
     <path id="m2f6856cbeb" d="M 66.091364 -242.901492 
L 66.091364 -218.251029 
L 69.784568 -214.87102 
L 73.477773 -211.240945 
L 77.170978 -205.432842 
L 80.864183 -201.257772 
L 84.557388 -199.78555 
L 88.250592 -194.409751 
L 91.943797 -189.85027 
L 95.637002 -185.33979 
L 99.330207 -182.372515 
L 103.023411 -180.057529 
L 106.716616 -178.62933 
L 110.409821 -177.153343 
L 114.103026 -173.666937 
L 117.79623 -169.390549 
L 121.489435 -165.532108 
L 125.18264 -161.906536 
L 128.875845 -158.331867 
L 132.56905 -154.744509 
L 136.262254 -151.181109 
L 139.955459 -147.706932 
L 143.648664 -144.294342 
L 147.341869 -140.982022 
L 151.035073 -137.785062 
L 154.728278 -134.868741 
L 158.421483 -132.192007 
L 162.114688 -129.671615 
L 165.807893 -127.232497 
L 169.501097 -124.887107 
L 173.194302 -122.562456 
L 176.887507 -120.363639 
L 180.580712 -118.256213 
L 184.273916 -116.291468 
L 187.967121 -114.390385 
L 191.660326 -111.703204 
L 195.353531 -110.051415 
L 199.046736 -108.493268 
L 202.73994 -107.017061 
L 206.433145 -105.58104 
L 210.12635 -103.9048 
L 213.819555 -101.897252 
L 217.512759 -99.936075 
L 221.205964 -98.064291 
L 224.899169 -96.280136 
L 228.592374 -94.581251 
L 232.285579 -92.967228 
L 235.978783 -91.42853 
L 239.671988 -89.971782 
L 243.365193 -88.579305 
L 247.058398 -87.264704 
L 250.751602 -88.011689 
L 254.444807 -86.795849 
L 258.138012 -85.625355 
L 261.831217 -84.493699 
L 265.524421 -83.404853 
L 269.217626 -82.357192 
L 272.910831 -81.350138 
L 276.604036 -80.384545 
L 280.297241 -79.456813 
L 283.990445 -78.568582 
L 287.68365 -78.303415 
L 291.376855 -78.519248 
L 295.07006 -77.320999 
L 298.763264 -76.351706 
L 302.456469 -75.871588 
L 306.149674 -75.408449 
L 309.842879 -74.961095 
L 313.536084 -74.52777 
L 317.229288 -74.108153 
L 320.922493 -73.701451 
L 324.615698 -73.306851 
L 328.308903 -72.923833 
L 332.002107 -72.551993 
L 335.695312 -72.190729 
L 339.388517 -71.839602 
L 343.081722 -71.499645 
L 346.774927 -70.911954 
L 350.468131 -70.327045 
L 354.161336 -69.771228 
L 357.854541 -69.242557 
L 361.547746 -68.739365 
L 365.24095 -68.260095 
L 368.934155 -67.803292 
L 372.62736 -67.287145 
L 376.320565 -66.697529 
L 380.01377 -66.150897 
L 383.706974 -65.691423 
L 387.400179 -65.278845 
L 391.093384 -64.887765 
L 394.786589 -64.554144 
L 398.479793 -64.22327 
L 402.172998 -63.923635 
L 405.866203 -63.633076 
L 409.559408 -63.381674 
L 413.252612 -63.180464 
L 416.945817 -62.983847 
L 420.639022 -62.791647 
L 424.332227 -62.603755 
L 428.025432 -62.420032 
L 431.718636 -62.24024 
L 431.718636 -82.588516 
L 431.718636 -82.588516 
L 428.025432 -83.312974 
L 424.332227 -84.11711 
L 420.639022 -84.053798 
L 416.945817 -84.564667 
L 413.252612 -85.087041 
L 409.559408 -85.622007 
L 405.866203 -86.169618 
L 402.172998 -86.730292 
L 398.479793 -87.304468 
L 394.786589 -87.892599 
L 391.093384 -88.494958 
L 387.400179 -89.112103 
L 383.706974 -89.744963 
L 380.01377 -90.393764 
L 376.320565 -91.059048 
L 372.62736 -91.741378 
L 368.934155 -92.441245 
L 365.24095 -93.15967 
L 361.547746 -93.897704 
L 357.854541 -94.655322 
L 354.161336 -95.432808 
L 350.468131 -96.231983 
L 346.774927 -97.05386 
L 343.081722 -97.898427 
L 339.388517 -103.407631 
L 335.695312 -110.192213 
L 332.002107 -111.663117 
L 328.308903 -113.193106 
L 324.615698 -114.772727 
L 320.922493 -116.396815 
L 317.229288 -117.821073 
L 313.536084 -105.651392 
L 309.842879 -106.762654 
L 306.149674 -107.910857 
L 302.456469 -109.095064 
L 298.763264 -110.401605 
L 295.07006 -111.856766 
L 291.376855 -113.385694 
L 287.68365 -114.958892 
L 283.990445 -116.567559 
L 280.297241 -137.540972 
L 276.604036 -139.839713 
L 272.910831 -142.193401 
L 269.217626 -144.617011 
L 265.524421 -147.095185 
L 261.831217 -130.839615 
L 258.138012 -128.99524 
L 254.444807 -130.963451 
L 250.751602 -132.951328 
L 247.058398 -134.968863 
L 243.365193 -137.043059 
L 239.671988 -139.21043 
L 235.978783 -141.463718 
L 232.285579 -143.757846 
L 228.592374 -146.038013 
L 224.899169 -148.372831 
L 221.205964 -150.705683 
L 217.512759 -153.094292 
L 213.819555 -155.551876 
L 210.12635 -157.955487 
L 206.433145 -160.34901 
L 202.73994 -162.802611 
L 199.046736 -165.244522 
L 195.353531 -167.631611 
L 191.660326 -169.991974 
L 187.967121 -172.280866 
L 184.273916 -174.537312 
L 180.580712 -176.730717 
L 176.887507 -178.866691 
L 173.194302 -180.987988 
L 169.501097 -183.034664 
L 165.807893 -185.024695 
L 162.114688 -186.961394 
L 158.421483 -188.825201 
L 154.728278 -190.578168 
L 151.035073 -192.269716 
L 147.341869 -194.107239 
L 143.648664 -196.388989 
L 139.955459 -198.532762 
L 136.262254 -200.551844 
L 132.56905 -202.459866 
L 128.875845 -204.270606 
L 125.18264 -205.523636 
L 121.489435 -206.131801 
L 117.79623 -206.718211 
L 114.103026 -207.290777 
L 110.409821 -207.844133 
L 106.716616 -208.369026 
L 103.023411 -209.153715 
L 99.330207 -210.272352 
L 95.637002 -212.369783 
L 91.943797 -213.809823 
L 88.250592 -214.742351 
L 84.557388 -215.460076 
L 80.864183 -215.921561 
L 77.170978 -218.994607 
L 73.477773 -219.584823 
L 69.784568 -224.567326 
L 66.091364 -242.901492 
z
" style="stroke: #fcbba1; stroke-opacity: 0.3"/>
    </defs>
    <g clip-path="url(#p6f935bfa42)">
     <use xlink:href="#m2f6856cbeb" x="0" y="345.6" style="fill: #fcbba1; fill-opacity: 0.3; stroke: #fcbba1; stroke-opacity: 0.3"/>
    </g>
   </g>
   <g id="matplotlib.axis_1">
    <g id="xtick_1">
     <g id="line2d_1">
      <path d="M 62.398159 303.64 
L 62.398159 26.88 
" clip-path="url(#p6f935bfa42)" style="fill: none; stroke-dasharray: 2.96,1.28; stroke-dashoffset: 0; stroke: #b0b0b0; stroke-width: 0.8"/>
     </g>
     <g id="line2d_2">
      <defs>
       <path id="ma7d64214aa" d="M 0 0 
L 0 3.5 
" style="stroke: #000000; stroke-width: 0.8"/>
      </defs>
      <g>
       <use xlink:href="#ma7d64214aa" x="62.398159" y="303.64" style="stroke: #000000; stroke-width: 0.8"/>
      </g>
     </g>
     <g id="text_1">
      <!-- 0 -->
      <g transform="translate(59.216909 318.238437)scale(0.1 -0.1)">
       <defs>
        <path id="DejaVuSans-30" d="M 2034 4250 
Q 1547 4250 1301 3770 
Q 1056 3291 1056 2328 
Q 1056 1369 1301 889 
Q 1547 409 2034 409 
Q 2525 409 2770 889 
Q 3016 1369 3016 2328 
Q 3016 3291 2770 3770 
Q 2525 4250 2034 4250 
z
M 2034 4750 
Q 2819 4750 3233 4129 
Q 3647 3509 3647 2328 
Q 3647 1150 3233 529 
Q 2819 -91 2034 -91 
Q 1250 -91 836 529 
Q 422 1150 422 2328 
Q 422 3509 836 4129 
Q 1250 4750 2034 4750 
z
" transform="scale(0.015625)"/>
       </defs>
       <use xlink:href="#DejaVuSans-30"/>
      </g>
     </g>
    </g>
    <g id="xtick_2">
     <g id="line2d_3">
      <path d="M 136.262254 303.64 
L 136.262254 26.88 
" clip-path="url(#p6f935bfa42)" style="fill: none; stroke-dasharray: 2.96,1.28; stroke-dashoffset: 0; stroke: #b0b0b0; stroke-width: 0.8"/>
     </g>
     <g id="line2d_4">
      <g>
       <use xlink:href="#ma7d64214aa" x="136.262254" y="303.64" style="stroke: #000000; stroke-width: 0.8"/>
      </g>
     </g>
     <g id="text_2">
      <!-- 20 -->
      <g transform="translate(129.899754 318.238437)scale(0.1 -0.1)">
       <defs>
        <path id="DejaVuSans-32" d="M 1228 531 
L 3431 531 
L 3431 0 
L 469 0 
L 469 531 
Q 828 903 1448 1529 
Q 2069 2156 2228 2338 
Q 2531 2678 2651 2914 
Q 2772 3150 2772 3378 
Q 2772 3750 2511 3984 
Q 2250 4219 1831 4219 
Q 1534 4219 1204 4116 
Q 875 4013 500 3803 
L 500 4441 
Q 881 4594 1212 4672 
Q 1544 4750 1819 4750 
Q 2544 4750 2975 4387 
Q 3406 4025 3406 3419 
Q 3406 3131 3298 2873 
Q 3191 2616 2906 2266 
Q 2828 2175 2409 1742 
Q 1991 1309 1228 531 
z
" transform="scale(0.015625)"/>
       </defs>
       <use xlink:href="#DejaVuSans-32"/>
       <use xlink:href="#DejaVuSans-30" x="63.623047"/>
      </g>
     </g>
    </g>
    <g id="xtick_3">
     <g id="line2d_5">
      <path d="M 210.12635 303.64 
L 210.12635 26.88 
" clip-path="url(#p6f935bfa42)" style="fill: none; stroke-dasharray: 2.96,1.28; stroke-dashoffset: 0; stroke: #b0b0b0; stroke-width: 0.8"/>
     </g>
     <g id="line2d_6">
      <g>
       <use xlink:href="#ma7d64214aa" x="210.12635" y="303.64" style="stroke: #000000; stroke-width: 0.8"/>
      </g>
     </g>
     <g id="text_3">
      <!-- 40 -->
      <g transform="translate(203.76385 318.238437)scale(0.1 -0.1)">
       <defs>
        <path id="DejaVuSans-34" d="M 2419 4116 
L 825 1625 
L 2419 1625 
L 2419 4116 
z
M 2253 4666 
L 3047 4666 
L 3047 1625 
L 3713 1625 
L 3713 1100 
L 3047 1100 
L 3047 0 
L 2419 0 
L 2419 1100 
L 313 1100 
L 313 1709 
L 2253 4666 
z
" transform="scale(0.015625)"/>
       </defs>
       <use xlink:href="#DejaVuSans-34"/>
       <use xlink:href="#DejaVuSans-30" x="63.623047"/>
      </g>
     </g>
    </g>
    <g id="xtick_4">
     <g id="line2d_7">
      <path d="M 283.990445 303.64 
L 283.990445 26.88 
" clip-path="url(#p6f935bfa42)" style="fill: none; stroke-dasharray: 2.96,1.28; stroke-dashoffset: 0; stroke: #b0b0b0; stroke-width: 0.8"/>
     </g>
     <g id="line2d_8">
      <g>
       <use xlink:href="#ma7d64214aa" x="283.990445" y="303.64" style="stroke: #000000; stroke-width: 0.8"/>
      </g>
     </g>
     <g id="text_4">
      <!-- 60 -->
      <g transform="translate(277.627945 318.238437)scale(0.1 -0.1)">
       <defs>
        <path id="DejaVuSans-36" d="M 2113 2584 
Q 1688 2584 1439 2293 
Q 1191 2003 1191 1497 
Q 1191 994 1439 701 
Q 1688 409 2113 409 
Q 2538 409 2786 701 
Q 3034 994 3034 1497 
Q 3034 2003 2786 2293 
Q 2538 2584 2113 2584 
z
M 3366 4563 
L 3366 3988 
Q 3128 4100 2886 4159 
Q 2644 4219 2406 4219 
Q 1781 4219 1451 3797 
Q 1122 3375 1075 2522 
Q 1259 2794 1537 2939 
Q 1816 3084 2150 3084 
Q 2853 3084 3261 2657 
Q 3669 2231 3669 1497 
Q 3669 778 3244 343 
Q 2819 -91 2113 -91 
Q 1303 -91 875 529 
Q 447 1150 447 2328 
Q 447 3434 972 4092 
Q 1497 4750 2381 4750 
Q 2619 4750 2861 4703 
Q 3103 4656 3366 4563 
z
" transform="scale(0.015625)"/>
       </defs>
       <use xlink:href="#DejaVuSans-36"/>
       <use xlink:href="#DejaVuSans-30" x="63.623047"/>
      </g>
     </g>
    </g>
    <g id="xtick_5">
     <g id="line2d_9">
      <path d="M 357.854541 303.64 
L 357.854541 26.88 
" clip-path="url(#p6f935bfa42)" style="fill: none; stroke-dasharray: 2.96,1.28; stroke-dashoffset: 0; stroke: #b0b0b0; stroke-width: 0.8"/>
     </g>
     <g id="line2d_10">
      <g>
       <use xlink:href="#ma7d64214aa" x="357.854541" y="303.64" style="stroke: #000000; stroke-width: 0.8"/>
      </g>
     </g>
     <g id="text_5">
      <!-- 80 -->
      <g transform="translate(351.492041 318.238437)scale(0.1 -0.1)">
       <defs>
        <path id="DejaVuSans-38" d="M 2034 2216 
Q 1584 2216 1326 1975 
Q 1069 1734 1069 1313 
Q 1069 891 1326 650 
Q 1584 409 2034 409 
Q 2484 409 2743 651 
Q 3003 894 3003 1313 
Q 3003 1734 2745 1975 
Q 2488 2216 2034 2216 
z
M 1403 2484 
Q 997 2584 770 2862 
Q 544 3141 544 3541 
Q 544 4100 942 4425 
Q 1341 4750 2034 4750 
Q 2731 4750 3128 4425 
Q 3525 4100 3525 3541 
Q 3525 3141 3298 2862 
Q 3072 2584 2669 2484 
Q 3125 2378 3379 2068 
Q 3634 1759 3634 1313 
Q 3634 634 3220 271 
Q 2806 -91 2034 -91 
Q 1263 -91 848 271 
Q 434 634 434 1313 
Q 434 1759 690 2068 
Q 947 2378 1403 2484 
z
M 1172 3481 
Q 1172 3119 1398 2916 
Q 1625 2713 2034 2713 
Q 2441 2713 2670 2916 
Q 2900 3119 2900 3481 
Q 2900 3844 2670 4047 
Q 2441 4250 2034 4250 
Q 1625 4250 1398 4047 
Q 1172 3844 1172 3481 
z
" transform="scale(0.015625)"/>
       </defs>
       <use xlink:href="#DejaVuSans-38"/>
       <use xlink:href="#DejaVuSans-30" x="63.623047"/>
      </g>
     </g>
    </g>
    <g id="xtick_6">
     <g id="line2d_11">
      <path d="M 431.718636 303.64 
L 431.718636 26.88 
" clip-path="url(#p6f935bfa42)" style="fill: none; stroke-dasharray: 2.96,1.28; stroke-dashoffset: 0; stroke: #b0b0b0; stroke-width: 0.8"/>
     </g>
     <g id="line2d_12">
      <g>
       <use xlink:href="#ma7d64214aa" x="431.718636" y="303.64" style="stroke: #000000; stroke-width: 0.8"/>
      </g>
     </g>
     <g id="text_6">
      <!-- 100 -->
      <g transform="translate(422.174886 318.238437)scale(0.1 -0.1)">
       <defs>
        <path id="DejaVuSans-31" d="M 794 531 
L 1825 531 
L 1825 4091 
L 703 3866 
L 703 4441 
L 1819 4666 
L 2450 4666 
L 2450 531 
L 3481 531 
L 3481 0 
L 794 0 
L 794 531 
z
" transform="scale(0.015625)"/>
       </defs>
       <use xlink:href="#DejaVuSans-31"/>
       <use xlink:href="#DejaVuSans-30" x="63.623047"/>
       <use xlink:href="#DejaVuSans-30" x="127.246094"/>
      </g>
     </g>
    </g>
    <g id="text_7">
     <!-- Epoch -->
     <g transform="translate(233.594063 331.916562)scale(0.1 -0.1)">
      <defs>
       <path id="DejaVuSans-45" d="M 628 4666 
L 3578 4666 
L 3578 4134 
L 1259 4134 
L 1259 2753 
L 3481 2753 
L 3481 2222 
L 1259 2222 
L 1259 531 
L 3634 531 
L 3634 0 
L 628 0 
L 628 4666 
z
" transform="scale(0.015625)"/>
       <path id="DejaVuSans-70" d="M 1159 525 
L 1159 -1331 
L 581 -1331 
L 581 3500 
L 1159 3500 
L 1159 2969 
Q 1341 3281 1617 3432 
Q 1894 3584 2278 3584 
Q 2916 3584 3314 3078 
Q 3713 2572 3713 1747 
Q 3713 922 3314 415 
Q 2916 -91 2278 -91 
Q 1894 -91 1617 61 
Q 1341 213 1159 525 
z
M 3116 1747 
Q 3116 2381 2855 2742 
Q 2594 3103 2138 3103 
Q 1681 3103 1420 2742 
Q 1159 2381 1159 1747 
Q 1159 1113 1420 752 
Q 1681 391 2138 391 
Q 2594 391 2855 752 
Q 3116 1113 3116 1747 
z
" transform="scale(0.015625)"/>
       <path id="DejaVuSans-6f" d="M 1959 3097 
Q 1497 3097 1228 2736 
Q 959 2375 959 1747 
Q 959 1119 1226 758 
Q 1494 397 1959 397 
Q 2419 397 2687 759 
Q 2956 1122 2956 1747 
Q 2956 2369 2687 2733 
Q 2419 3097 1959 3097 
z
M 1959 3584 
Q 2709 3584 3137 3096 
Q 3566 2609 3566 1747 
Q 3566 888 3137 398 
Q 2709 -91 1959 -91 
Q 1206 -91 779 398 
Q 353 888 353 1747 
Q 353 2609 779 3096 
Q 1206 3584 1959 3584 
z
" transform="scale(0.015625)"/>
       <path id="DejaVuSans-63" d="M 3122 3366 
L 3122 2828 
Q 2878 2963 2633 3030 
Q 2388 3097 2138 3097 
Q 1578 3097 1268 2742 
Q 959 2388 959 1747 
Q 959 1106 1268 751 
Q 1578 397 2138 397 
Q 2388 397 2633 464 
Q 2878 531 3122 666 
L 3122 134 
Q 2881 22 2623 -34 
Q 2366 -91 2075 -91 
Q 1284 -91 818 406 
Q 353 903 353 1747 
Q 353 2603 823 3093 
Q 1294 3584 2113 3584 
Q 2378 3584 2631 3529 
Q 2884 3475 3122 3366 
z
" transform="scale(0.015625)"/>
       <path id="DejaVuSans-68" d="M 3513 2113 
L 3513 0 
L 2938 0 
L 2938 2094 
Q 2938 2591 2744 2837 
Q 2550 3084 2163 3084 
Q 1697 3084 1428 2787 
Q 1159 2491 1159 1978 
L 1159 0 
L 581 0 
L 581 4863 
L 1159 4863 
L 1159 2956 
Q 1366 3272 1645 3428 
Q 1925 3584 2291 3584 
Q 2894 3584 3203 3211 
Q 3513 2838 3513 2113 
z
" transform="scale(0.015625)"/>
      </defs>
      <use xlink:href="#DejaVuSans-45"/>
      <use xlink:href="#DejaVuSans-70" x="63.183594"/>
      <use xlink:href="#DejaVuSans-6f" x="126.660156"/>
      <use xlink:href="#DejaVuSans-63" x="187.841797"/>
      <use xlink:href="#DejaVuSans-68" x="242.822266"/>
     </g>
    </g>
   </g>
   <g id="matplotlib.axis_2">
    <g id="ytick_1">
     <g id="line2d_13">
      <path d="M 47.81 278.48 
L 450 278.48 
" clip-path="url(#p6f935bfa42)" style="fill: none; stroke-dasharray: 2.96,1.28; stroke-dashoffset: 0; stroke: #b0b0b0; stroke-width: 0.8"/>
     </g>
     <g id="line2d_14">
      <defs>
       <path id="mfb1f7a5359" d="M 0 0 
L -3.5 0 
" style="stroke: #000000; stroke-width: 0.8"/>
      </defs>
      <g>
       <use xlink:href="#mfb1f7a5359" x="47.81" y="278.48" style="stroke: #000000; stroke-width: 0.8"/>
      </g>
     </g>
     <g id="text_8">
      <!-- 0.1 -->
      <g transform="translate(24.906875 282.279219)scale(0.1 -0.1)">
       <defs>
        <path id="DejaVuSans-2e" d="M 684 794 
L 1344 794 
L 1344 0 
L 684 0 
L 684 794 
z
" transform="scale(0.015625)"/>
       </defs>
       <use xlink:href="#DejaVuSans-30"/>
       <use xlink:href="#DejaVuSans-2e" x="63.623047"/>
       <use xlink:href="#DejaVuSans-31" x="95.410156"/>
      </g>
     </g>
    </g>
    <g id="ytick_2">
     <g id="line2d_15">
      <path d="M 47.81 253.32 
L 450 253.32 
" clip-path="url(#p6f935bfa42)" style="fill: none; stroke-dasharray: 2.96,1.28; stroke-dashoffset: 0; stroke: #b0b0b0; stroke-width: 0.8"/>
     </g>
     <g id="line2d_16">
      <g>
       <use xlink:href="#mfb1f7a5359" x="47.81" y="253.32" style="stroke: #000000; stroke-width: 0.8"/>
      </g>
     </g>
     <g id="text_9">
      <!-- 0.2 -->
      <g transform="translate(24.906875 257.119219)scale(0.1 -0.1)">
       <use xlink:href="#DejaVuSans-30"/>
       <use xlink:href="#DejaVuSans-2e" x="63.623047"/>
       <use xlink:href="#DejaVuSans-32" x="95.410156"/>
      </g>
     </g>
    </g>
    <g id="ytick_3">
     <g id="line2d_17">
      <path d="M 47.81 228.16 
L 450 228.16 
" clip-path="url(#p6f935bfa42)" style="fill: none; stroke-dasharray: 2.96,1.28; stroke-dashoffset: 0; stroke: #b0b0b0; stroke-width: 0.8"/>
     </g>
     <g id="line2d_18">
      <g>
       <use xlink:href="#mfb1f7a5359" x="47.81" y="228.16" style="stroke: #000000; stroke-width: 0.8"/>
      </g>
     </g>
     <g id="text_10">
      <!-- 0.3 -->
      <g transform="translate(24.906875 231.959219)scale(0.1 -0.1)">
       <defs>
        <path id="DejaVuSans-33" d="M 2597 2516 
Q 3050 2419 3304 2112 
Q 3559 1806 3559 1356 
Q 3559 666 3084 287 
Q 2609 -91 1734 -91 
Q 1441 -91 1130 -33 
Q 819 25 488 141 
L 488 750 
Q 750 597 1062 519 
Q 1375 441 1716 441 
Q 2309 441 2620 675 
Q 2931 909 2931 1356 
Q 2931 1769 2642 2001 
Q 2353 2234 1838 2234 
L 1294 2234 
L 1294 2753 
L 1863 2753 
Q 2328 2753 2575 2939 
Q 2822 3125 2822 3475 
Q 2822 3834 2567 4026 
Q 2313 4219 1838 4219 
Q 1578 4219 1281 4162 
Q 984 4106 628 3988 
L 628 4550 
Q 988 4650 1302 4700 
Q 1616 4750 1894 4750 
Q 2613 4750 3031 4423 
Q 3450 4097 3450 3541 
Q 3450 3153 3228 2886 
Q 3006 2619 2597 2516 
z
" transform="scale(0.015625)"/>
       </defs>
       <use xlink:href="#DejaVuSans-30"/>
       <use xlink:href="#DejaVuSans-2e" x="63.623047"/>
       <use xlink:href="#DejaVuSans-33" x="95.410156"/>
      </g>
     </g>
    </g>
    <g id="ytick_4">
     <g id="line2d_19">
      <path d="M 47.81 203 
L 450 203 
" clip-path="url(#p6f935bfa42)" style="fill: none; stroke-dasharray: 2.96,1.28; stroke-dashoffset: 0; stroke: #b0b0b0; stroke-width: 0.8"/>
     </g>
     <g id="line2d_20">
      <g>
       <use xlink:href="#mfb1f7a5359" x="47.81" y="203" style="stroke: #000000; stroke-width: 0.8"/>
      </g>
     </g>
     <g id="text_11">
      <!-- 0.4 -->
      <g transform="translate(24.906875 206.799219)scale(0.1 -0.1)">
       <use xlink:href="#DejaVuSans-30"/>
       <use xlink:href="#DejaVuSans-2e" x="63.623047"/>
       <use xlink:href="#DejaVuSans-34" x="95.410156"/>
      </g>
     </g>
    </g>
    <g id="ytick_5">
     <g id="line2d_21">
      <path d="M 47.81 177.84 
L 450 177.84 
" clip-path="url(#p6f935bfa42)" style="fill: none; stroke-dasharray: 2.96,1.28; stroke-dashoffset: 0; stroke: #b0b0b0; stroke-width: 0.8"/>
     </g>
     <g id="line2d_22">
      <g>
       <use xlink:href="#mfb1f7a5359" x="47.81" y="177.84" style="stroke: #000000; stroke-width: 0.8"/>
      </g>
     </g>
     <g id="text_12">
      <!-- 0.5 -->
      <g transform="translate(24.906875 181.639219)scale(0.1 -0.1)">
       <defs>
        <path id="DejaVuSans-35" d="M 691 4666 
L 3169 4666 
L 3169 4134 
L 1269 4134 
L 1269 2991 
Q 1406 3038 1543 3061 
Q 1681 3084 1819 3084 
Q 2600 3084 3056 2656 
Q 3513 2228 3513 1497 
Q 3513 744 3044 326 
Q 2575 -91 1722 -91 
Q 1428 -91 1123 -41 
Q 819 9 494 109 
L 494 744 
Q 775 591 1075 516 
Q 1375 441 1709 441 
Q 2250 441 2565 725 
Q 2881 1009 2881 1497 
Q 2881 1984 2565 2268 
Q 2250 2553 1709 2553 
Q 1456 2553 1204 2497 
Q 953 2441 691 2322 
L 691 4666 
z
" transform="scale(0.015625)"/>
       </defs>
       <use xlink:href="#DejaVuSans-30"/>
       <use xlink:href="#DejaVuSans-2e" x="63.623047"/>
       <use xlink:href="#DejaVuSans-35" x="95.410156"/>
      </g>
     </g>
    </g>
    <g id="ytick_6">
     <g id="line2d_23">
      <path d="M 47.81 152.68 
L 450 152.68 
" clip-path="url(#p6f935bfa42)" style="fill: none; stroke-dasharray: 2.96,1.28; stroke-dashoffset: 0; stroke: #b0b0b0; stroke-width: 0.8"/>
     </g>
     <g id="line2d_24">
      <g>
       <use xlink:href="#mfb1f7a5359" x="47.81" y="152.68" style="stroke: #000000; stroke-width: 0.8"/>
      </g>
     </g>
     <g id="text_13">
      <!-- 0.6 -->
      <g transform="translate(24.906875 156.479219)scale(0.1 -0.1)">
       <use xlink:href="#DejaVuSans-30"/>
       <use xlink:href="#DejaVuSans-2e" x="63.623047"/>
       <use xlink:href="#DejaVuSans-36" x="95.410156"/>
      </g>
     </g>
    </g>
    <g id="ytick_7">
     <g id="line2d_25">
      <path d="M 47.81 127.52 
L 450 127.52 
" clip-path="url(#p6f935bfa42)" style="fill: none; stroke-dasharray: 2.96,1.28; stroke-dashoffset: 0; stroke: #b0b0b0; stroke-width: 0.8"/>
     </g>
     <g id="line2d_26">
      <g>
       <use xlink:href="#mfb1f7a5359" x="47.81" y="127.52" style="stroke: #000000; stroke-width: 0.8"/>
      </g>
     </g>
     <g id="text_14">
      <!-- 0.7 -->
      <g transform="translate(24.906875 131.319219)scale(0.1 -0.1)">
       <defs>
        <path id="DejaVuSans-37" d="M 525 4666 
L 3525 4666 
L 3525 4397 
L 1831 0 
L 1172 0 
L 2766 4134 
L 525 4134 
L 525 4666 
z
" transform="scale(0.015625)"/>
       </defs>
       <use xlink:href="#DejaVuSans-30"/>
       <use xlink:href="#DejaVuSans-2e" x="63.623047"/>
       <use xlink:href="#DejaVuSans-37" x="95.410156"/>
      </g>
     </g>
    </g>
    <g id="ytick_8">
     <g id="line2d_27">
      <path d="M 47.81 102.36 
L 450 102.36 
" clip-path="url(#p6f935bfa42)" style="fill: none; stroke-dasharray: 2.96,1.28; stroke-dashoffset: 0; stroke: #b0b0b0; stroke-width: 0.8"/>
     </g>
     <g id="line2d_28">
      <g>
       <use xlink:href="#mfb1f7a5359" x="47.81" y="102.36" style="stroke: #000000; stroke-width: 0.8"/>
      </g>
     </g>
     <g id="text_15">
      <!-- 0.8 -->
      <g transform="translate(24.906875 106.159219)scale(0.1 -0.1)">
       <use xlink:href="#DejaVuSans-30"/>
       <use xlink:href="#DejaVuSans-2e" x="63.623047"/>
       <use xlink:href="#DejaVuSans-38" x="95.410156"/>
      </g>
     </g>
    </g>
    <g id="ytick_9">
     <g id="line2d_29">
      <path d="M 47.81 77.2 
L 450 77.2 
" clip-path="url(#p6f935bfa42)" style="fill: none; stroke-dasharray: 2.96,1.28; stroke-dashoffset: 0; stroke: #b0b0b0; stroke-width: 0.8"/>
     </g>
     <g id="line2d_30">
      <g>
       <use xlink:href="#mfb1f7a5359" x="47.81" y="77.2" style="stroke: #000000; stroke-width: 0.8"/>
      </g>
     </g>
     <g id="text_16">
      <!-- 0.9 -->
      <g transform="translate(24.906875 80.999219)scale(0.1 -0.1)">
       <defs>
        <path id="DejaVuSans-39" d="M 703 97 
L 703 672 
Q 941 559 1184 500 
Q 1428 441 1663 441 
Q 2288 441 2617 861 
Q 2947 1281 2994 2138 
Q 2813 1869 2534 1725 
Q 2256 1581 1919 1581 
Q 1219 1581 811 2004 
Q 403 2428 403 3163 
Q 403 3881 828 4315 
Q 1253 4750 1959 4750 
Q 2769 4750 3195 4129 
Q 3622 3509 3622 2328 
Q 3622 1225 3098 567 
Q 2575 -91 1691 -91 
Q 1453 -91 1209 -44 
Q 966 3 703 97 
z
M 1959 2075 
Q 2384 2075 2632 2365 
Q 2881 2656 2881 3163 
Q 2881 3666 2632 3958 
Q 2384 4250 1959 4250 
Q 1534 4250 1286 3958 
Q 1038 3666 1038 3163 
Q 1038 2656 1286 2365 
Q 1534 2075 1959 2075 
z
" transform="scale(0.015625)"/>
       </defs>
       <use xlink:href="#DejaVuSans-30"/>
       <use xlink:href="#DejaVuSans-2e" x="63.623047"/>
       <use xlink:href="#DejaVuSans-39" x="95.410156"/>
      </g>
     </g>
    </g>
    <g id="ytick_10">
     <g id="line2d_31">
      <path d="M 47.81 52.04 
L 450 52.04 
" clip-path="url(#p6f935bfa42)" style="fill: none; stroke-dasharray: 2.96,1.28; stroke-dashoffset: 0; stroke: #b0b0b0; stroke-width: 0.8"/>
     </g>
     <g id="line2d_32">
      <g>
       <use xlink:href="#mfb1f7a5359" x="47.81" y="52.04" style="stroke: #000000; stroke-width: 0.8"/>
      </g>
     </g>
     <g id="text_17">
      <!-- 1.0 -->
      <g transform="translate(24.906875 55.839219)scale(0.1 -0.1)">
       <use xlink:href="#DejaVuSans-31"/>
       <use xlink:href="#DejaVuSans-2e" x="63.623047"/>
       <use xlink:href="#DejaVuSans-30" x="95.410156"/>
      </g>
     </g>
    </g>
    <g id="ytick_11">
     <g id="line2d_33">
      <path d="M 47.81 26.88 
L 450 26.88 
" clip-path="url(#p6f935bfa42)" style="fill: none; stroke-dasharray: 2.96,1.28; stroke-dashoffset: 0; stroke: #b0b0b0; stroke-width: 0.8"/>
     </g>
     <g id="line2d_34">
      <g>
       <use xlink:href="#mfb1f7a5359" x="47.81" y="26.88" style="stroke: #000000; stroke-width: 0.8"/>
      </g>
     </g>
     <g id="text_18">
      <!-- 1.1 -->
      <g transform="translate(24.906875 30.679219)scale(0.1 -0.1)">
       <use xlink:href="#DejaVuSans-31"/>
       <use xlink:href="#DejaVuSans-2e" x="63.623047"/>
       <use xlink:href="#DejaVuSans-31" x="95.410156"/>
      </g>
     </g>
    </g>
    <g id="text_19">
     <!-- BCE Loss -->
     <g transform="translate(18.827187 187.81)rotate(-90)scale(0.1 -0.1)">
      <defs>
       <path id="DejaVuSans-42" d="M 1259 2228 
L 1259 519 
L 2272 519 
Q 2781 519 3026 730 
Q 3272 941 3272 1375 
Q 3272 1813 3026 2020 
Q 2781 2228 2272 2228 
L 1259 2228 
z
M 1259 4147 
L 1259 2741 
L 2194 2741 
Q 2656 2741 2882 2914 
Q 3109 3088 3109 3444 
Q 3109 3797 2882 3972 
Q 2656 4147 2194 4147 
L 1259 4147 
z
M 628 4666 
L 2241 4666 
Q 2963 4666 3353 4366 
Q 3744 4066 3744 3513 
Q 3744 3084 3544 2831 
Q 3344 2578 2956 2516 
Q 3422 2416 3680 2098 
Q 3938 1781 3938 1306 
Q 3938 681 3513 340 
Q 3088 0 2303 0 
L 628 0 
L 628 4666 
z
" transform="scale(0.015625)"/>
       <path id="DejaVuSans-43" d="M 4122 4306 
L 4122 3641 
Q 3803 3938 3442 4084 
Q 3081 4231 2675 4231 
Q 1875 4231 1450 3742 
Q 1025 3253 1025 2328 
Q 1025 1406 1450 917 
Q 1875 428 2675 428 
Q 3081 428 3442 575 
Q 3803 722 4122 1019 
L 4122 359 
Q 3791 134 3420 21 
Q 3050 -91 2638 -91 
Q 1578 -91 968 557 
Q 359 1206 359 2328 
Q 359 3453 968 4101 
Q 1578 4750 2638 4750 
Q 3056 4750 3426 4639 
Q 3797 4528 4122 4306 
z
" transform="scale(0.015625)"/>
       <path id="DejaVuSans-20" transform="scale(0.015625)"/>
       <path id="DejaVuSans-4c" d="M 628 4666 
L 1259 4666 
L 1259 531 
L 3531 531 
L 3531 0 
L 628 0 
L 628 4666 
z
" transform="scale(0.015625)"/>
       <path id="DejaVuSans-73" d="M 2834 3397 
L 2834 2853 
Q 2591 2978 2328 3040 
Q 2066 3103 1784 3103 
Q 1356 3103 1142 2972 
Q 928 2841 928 2578 
Q 928 2378 1081 2264 
Q 1234 2150 1697 2047 
L 1894 2003 
Q 2506 1872 2764 1633 
Q 3022 1394 3022 966 
Q 3022 478 2636 193 
Q 2250 -91 1575 -91 
Q 1294 -91 989 -36 
Q 684 19 347 128 
L 347 722 
Q 666 556 975 473 
Q 1284 391 1588 391 
Q 1994 391 2212 530 
Q 2431 669 2431 922 
Q 2431 1156 2273 1281 
Q 2116 1406 1581 1522 
L 1381 1569 
Q 847 1681 609 1914 
Q 372 2147 372 2553 
Q 372 3047 722 3315 
Q 1072 3584 1716 3584 
Q 2034 3584 2315 3537 
Q 2597 3491 2834 3397 
z
" transform="scale(0.015625)"/>
      </defs>
      <use xlink:href="#DejaVuSans-42"/>
      <use xlink:href="#DejaVuSans-43" x="66.853516"/>
      <use xlink:href="#DejaVuSans-45" x="136.677734"/>
      <use xlink:href="#DejaVuSans-20" x="199.861328"/>
      <use xlink:href="#DejaVuSans-4c" x="231.648438"/>
      <use xlink:href="#DejaVuSans-6f" x="285.611328"/>
      <use xlink:href="#DejaVuSans-73" x="346.792969"/>
      <use xlink:href="#DejaVuSans-73" x="398.892578"/>
     </g>
    </g>
   </g>
   <g id="line2d_35">
    <path d="M 66.091364 119.501173 
L 73.477773 129.267498 
L 80.864183 132.627623 
L 88.250592 136.827903 
L 95.637002 140.35212 
L 103.023411 142.825297 
L 110.409821 144.561452 
L 117.79623 146.409917 
L 125.18264 148.455037 
L 132.56905 152.478237 
L 139.955459 157.336616 
L 147.341869 162.858341 
L 154.728278 169.104321 
L 162.114688 175.057615 
L 169.501097 178.576597 
L 176.887507 183.849166 
L 184.273916 190.305563 
L 191.660326 196.917681 
L 199.046736 203.497212 
L 206.433145 209.841786 
L 213.819555 216.659475 
L 221.205964 224.050991 
L 228.592374 230.396922 
L 235.978783 233.852289 
L 243.365193 237.20827 
L 250.751602 240.958515 
L 258.138012 243.277086 
L 265.524421 245.878328 
L 272.910831 248.337649 
L 280.297241 250.554914 
L 287.68365 256.628386 
L 295.07006 258.924798 
L 302.456469 261.28838 
L 309.842879 263.071618 
L 317.229288 264.759903 
L 324.615698 265.68435 
L 332.002107 266.552339 
L 339.388517 267.376086 
L 346.774927 268.147564 
L 354.161336 271.572925 
L 361.547746 273.254121 
L 368.934155 274.301095 
L 376.320565 275.279413 
L 383.706974 276.195755 
L 391.093384 277.053363 
L 398.479793 277.767788 
L 405.866203 277.292849 
L 413.252612 277.629062 
L 420.639022 278.509407 
L 428.025432 279.335718 
" clip-path="url(#p6f935bfa42)" style="fill: none; stroke: #fcbba1; stroke-width: 2; stroke-linecap: square"/>
    <defs>
     <path id="m09d2594a00" d="M 0 1.5 
C 0.397805 1.5 0.77937 1.341951 1.06066 1.06066 
C 1.341951 0.77937 1.5 0.397805 1.5 0 
C 1.5 -0.397805 1.341951 -0.77937 1.06066 -1.06066 
C 0.77937 -1.341951 0.397805 -1.5 0 -1.5 
C -0.397805 -1.5 -0.77937 -1.341951 -1.06066 -1.06066 
C -1.341951 -0.77937 -1.5 -0.397805 -1.5 0 
C -1.5 0.397805 -1.341951 0.77937 -1.06066 1.06066 
C -0.77937 1.341951 -0.397805 1.5 0 1.5 
z
" style="stroke: #fcbba1"/>
    </defs>
    <g clip-path="url(#p6f935bfa42)">
     <use xlink:href="#m09d2594a00" x="66.091364" y="119.501173" style="fill: #fcbba1; stroke: #fcbba1"/>
     <use xlink:href="#m09d2594a00" x="73.477773" y="129.267498" style="fill: #fcbba1; stroke: #fcbba1"/>
     <use xlink:href="#m09d2594a00" x="80.864183" y="132.627623" style="fill: #fcbba1; stroke: #fcbba1"/>
     <use xlink:href="#m09d2594a00" x="88.250592" y="136.827903" style="fill: #fcbba1; stroke: #fcbba1"/>
     <use xlink:href="#m09d2594a00" x="95.637002" y="140.35212" style="fill: #fcbba1; stroke: #fcbba1"/>
     <use xlink:href="#m09d2594a00" x="103.023411" y="142.825297" style="fill: #fcbba1; stroke: #fcbba1"/>
     <use xlink:href="#m09d2594a00" x="110.409821" y="144.561452" style="fill: #fcbba1; stroke: #fcbba1"/>
     <use xlink:href="#m09d2594a00" x="117.79623" y="146.409917" style="fill: #fcbba1; stroke: #fcbba1"/>
     <use xlink:href="#m09d2594a00" x="125.18264" y="148.455037" style="fill: #fcbba1; stroke: #fcbba1"/>
     <use xlink:href="#m09d2594a00" x="132.56905" y="152.478237" style="fill: #fcbba1; stroke: #fcbba1"/>
     <use xlink:href="#m09d2594a00" x="139.955459" y="157.336616" style="fill: #fcbba1; stroke: #fcbba1"/>
     <use xlink:href="#m09d2594a00" x="147.341869" y="162.858341" style="fill: #fcbba1; stroke: #fcbba1"/>
     <use xlink:href="#m09d2594a00" x="154.728278" y="169.104321" style="fill: #fcbba1; stroke: #fcbba1"/>
     <use xlink:href="#m09d2594a00" x="162.114688" y="175.057615" style="fill: #fcbba1; stroke: #fcbba1"/>
     <use xlink:href="#m09d2594a00" x="169.501097" y="178.576597" style="fill: #fcbba1; stroke: #fcbba1"/>
     <use xlink:href="#m09d2594a00" x="176.887507" y="183.849166" style="fill: #fcbba1; stroke: #fcbba1"/>
     <use xlink:href="#m09d2594a00" x="184.273916" y="190.305563" style="fill: #fcbba1; stroke: #fcbba1"/>
     <use xlink:href="#m09d2594a00" x="191.660326" y="196.917681" style="fill: #fcbba1; stroke: #fcbba1"/>
     <use xlink:href="#m09d2594a00" x="199.046736" y="203.497212" style="fill: #fcbba1; stroke: #fcbba1"/>
     <use xlink:href="#m09d2594a00" x="206.433145" y="209.841786" style="fill: #fcbba1; stroke: #fcbba1"/>
     <use xlink:href="#m09d2594a00" x="213.819555" y="216.659475" style="fill: #fcbba1; stroke: #fcbba1"/>
     <use xlink:href="#m09d2594a00" x="221.205964" y="224.050991" style="fill: #fcbba1; stroke: #fcbba1"/>
     <use xlink:href="#m09d2594a00" x="228.592374" y="230.396922" style="fill: #fcbba1; stroke: #fcbba1"/>
     <use xlink:href="#m09d2594a00" x="235.978783" y="233.852289" style="fill: #fcbba1; stroke: #fcbba1"/>
     <use xlink:href="#m09d2594a00" x="243.365193" y="237.20827" style="fill: #fcbba1; stroke: #fcbba1"/>
     <use xlink:href="#m09d2594a00" x="250.751602" y="240.958515" style="fill: #fcbba1; stroke: #fcbba1"/>
     <use xlink:href="#m09d2594a00" x="258.138012" y="243.277086" style="fill: #fcbba1; stroke: #fcbba1"/>
     <use xlink:href="#m09d2594a00" x="265.524421" y="245.878328" style="fill: #fcbba1; stroke: #fcbba1"/>
     <use xlink:href="#m09d2594a00" x="272.910831" y="248.337649" style="fill: #fcbba1; stroke: #fcbba1"/>
     <use xlink:href="#m09d2594a00" x="280.297241" y="250.554914" style="fill: #fcbba1; stroke: #fcbba1"/>
     <use xlink:href="#m09d2594a00" x="287.68365" y="256.628386" style="fill: #fcbba1; stroke: #fcbba1"/>
     <use xlink:href="#m09d2594a00" x="295.07006" y="258.924798" style="fill: #fcbba1; stroke: #fcbba1"/>
     <use xlink:href="#m09d2594a00" x="302.456469" y="261.28838" style="fill: #fcbba1; stroke: #fcbba1"/>
     <use xlink:href="#m09d2594a00" x="309.842879" y="263.071618" style="fill: #fcbba1; stroke: #fcbba1"/>
     <use xlink:href="#m09d2594a00" x="317.229288" y="264.759903" style="fill: #fcbba1; stroke: #fcbba1"/>
     <use xlink:href="#m09d2594a00" x="324.615698" y="265.68435" style="fill: #fcbba1; stroke: #fcbba1"/>
     <use xlink:href="#m09d2594a00" x="332.002107" y="266.552339" style="fill: #fcbba1; stroke: #fcbba1"/>
     <use xlink:href="#m09d2594a00" x="339.388517" y="267.376086" style="fill: #fcbba1; stroke: #fcbba1"/>
     <use xlink:href="#m09d2594a00" x="346.774927" y="268.147564" style="fill: #fcbba1; stroke: #fcbba1"/>
     <use xlink:href="#m09d2594a00" x="354.161336" y="271.572925" style="fill: #fcbba1; stroke: #fcbba1"/>
     <use xlink:href="#m09d2594a00" x="361.547746" y="273.254121" style="fill: #fcbba1; stroke: #fcbba1"/>
     <use xlink:href="#m09d2594a00" x="368.934155" y="274.301095" style="fill: #fcbba1; stroke: #fcbba1"/>
     <use xlink:href="#m09d2594a00" x="376.320565" y="275.279413" style="fill: #fcbba1; stroke: #fcbba1"/>
     <use xlink:href="#m09d2594a00" x="383.706974" y="276.195755" style="fill: #fcbba1; stroke: #fcbba1"/>
     <use xlink:href="#m09d2594a00" x="391.093384" y="277.053363" style="fill: #fcbba1; stroke: #fcbba1"/>
     <use xlink:href="#m09d2594a00" x="398.479793" y="277.767788" style="fill: #fcbba1; stroke: #fcbba1"/>
     <use xlink:href="#m09d2594a00" x="405.866203" y="277.292849" style="fill: #fcbba1; stroke: #fcbba1"/>
     <use xlink:href="#m09d2594a00" x="413.252612" y="277.629062" style="fill: #fcbba1; stroke: #fcbba1"/>
     <use xlink:href="#m09d2594a00" x="420.639022" y="278.509407" style="fill: #fcbba1; stroke: #fcbba1"/>
     <use xlink:href="#m09d2594a00" x="428.025432" y="279.335718" style="fill: #fcbba1; stroke: #fcbba1"/>
    </g>
   </g>
   <g id="patch_3">
    <path d="M 47.81 303.64 
L 47.81 26.88 
" style="fill: none; stroke: #000000; stroke-width: 0.8; stroke-linejoin: miter; stroke-linecap: square"/>
   </g>
   <g id="patch_4">
    <path d="M 450 303.64 
L 450 26.88 
" style="fill: none; stroke: #000000; stroke-width: 0.8; stroke-linejoin: miter; stroke-linecap: square"/>
   </g>
   <g id="patch_5">
    <path d="M 47.81 303.64 
L 450 303.64 
" style="fill: none; stroke: #000000; stroke-width: 0.8; stroke-linejoin: miter; stroke-linecap: square"/>
   </g>
   <g id="patch_6">
    <path d="M 47.81 26.88 
L 450 26.88 
" style="fill: none; stroke: #000000; stroke-width: 0.8; stroke-linejoin: miter; stroke-linecap: square"/>
   </g>
   <g id="text_20">
    <!-- Loss vs. epoch for simple dataset -->
    <g transform="translate(148.613125 20.88)scale(0.12 -0.12)">
     <defs>
      <path id="DejaVuSans-76" d="M 191 3500 
L 800 3500 
L 1894 563 
L 2988 3500 
L 3597 3500 
L 2284 0 
L 1503 0 
L 191 3500 
z
" transform="scale(0.015625)"/>
      <path id="DejaVuSans-65" d="M 3597 1894 
L 3597 1613 
L 953 1613 
Q 991 1019 1311 708 
Q 1631 397 2203 397 
Q 2534 397 2845 478 
Q 3156 559 3463 722 
L 3463 178 
Q 3153 47 2828 -22 
Q 2503 -91 2169 -91 
Q 1331 -91 842 396 
Q 353 884 353 1716 
Q 353 2575 817 3079 
Q 1281 3584 2069 3584 
Q 2775 3584 3186 3129 
Q 3597 2675 3597 1894 
z
M 3022 2063 
Q 3016 2534 2758 2815 
Q 2500 3097 2075 3097 
Q 1594 3097 1305 2825 
Q 1016 2553 972 2059 
L 3022 2063 
z
" transform="scale(0.015625)"/>
      <path id="DejaVuSans-66" d="M 2375 4863 
L 2375 4384 
L 1825 4384 
Q 1516 4384 1395 4259 
Q 1275 4134 1275 3809 
L 1275 3500 
L 2222 3500 
L 2222 3053 
L 1275 3053 
L 1275 0 
L 697 0 
L 697 3053 
L 147 3053 
L 147 3500 
L 697 3500 
L 697 3744 
Q 697 4328 969 4595 
Q 1241 4863 1831 4863 
L 2375 4863 
z
" transform="scale(0.015625)"/>
      <path id="DejaVuSans-72" d="M 2631 2963 
Q 2534 3019 2420 3045 
Q 2306 3072 2169 3072 
Q 1681 3072 1420 2755 
Q 1159 2438 1159 1844 
L 1159 0 
L 581 0 
L 581 3500 
L 1159 3500 
L 1159 2956 
Q 1341 3275 1631 3429 
Q 1922 3584 2338 3584 
Q 2397 3584 2469 3576 
Q 2541 3569 2628 3553 
L 2631 2963 
z
" transform="scale(0.015625)"/>
      <path id="DejaVuSans-69" d="M 603 3500 
L 1178 3500 
L 1178 0 
L 603 0 
L 603 3500 
z
M 603 4863 
L 1178 4863 
L 1178 4134 
L 603 4134 
L 603 4863 
z
" transform="scale(0.015625)"/>
      <path id="DejaVuSans-6d" d="M 3328 2828 
Q 3544 3216 3844 3400 
Q 4144 3584 4550 3584 
Q 5097 3584 5394 3201 
Q 5691 2819 5691 2113 
L 5691 0 
L 5113 0 
L 5113 2094 
Q 5113 2597 4934 2840 
Q 4756 3084 4391 3084 
Q 3944 3084 3684 2787 
Q 3425 2491 3425 1978 
L 3425 0 
L 2847 0 
L 2847 2094 
Q 2847 2600 2669 2842 
Q 2491 3084 2119 3084 
Q 1678 3084 1418 2786 
Q 1159 2488 1159 1978 
L 1159 0 
L 581 0 
L 581 3500 
L 1159 3500 
L 1159 2956 
Q 1356 3278 1631 3431 
Q 1906 3584 2284 3584 
Q 2666 3584 2933 3390 
Q 3200 3197 3328 2828 
z
" transform="scale(0.015625)"/>
      <path id="DejaVuSans-6c" d="M 603 4863 
L 1178 4863 
L 1178 0 
L 603 0 
L 603 4863 
z
" transform="scale(0.015625)"/>
      <path id="DejaVuSans-64" d="M 2906 2969 
L 2906 4863 
L 3481 4863 
L 3481 0 
L 2906 0 
L 2906 525 
Q 2725 213 2448 61 
Q 2172 -91 1784 -91 
Q 1150 -91 751 415 
Q 353 922 353 1747 
Q 353 2572 751 3078 
Q 1150 3584 1784 3584 
Q 2172 3584 2448 3432 
Q 2725 3281 2906 2969 
z
M 947 1747 
Q 947 1113 1208 752 
Q 1469 391 1925 391 
Q 2381 391 2643 752 
Q 2906 1113 2906 1747 
Q 2906 2381 2643 2742 
Q 2381 3103 1925 3103 
Q 1469 3103 1208 2742 
Q 947 2381 947 1747 
z
" transform="scale(0.015625)"/>
      <path id="DejaVuSans-61" d="M 2194 1759 
Q 1497 1759 1228 1600 
Q 959 1441 959 1056 
Q 959 750 1161 570 
Q 1363 391 1709 391 
Q 2188 391 2477 730 
Q 2766 1069 2766 1631 
L 2766 1759 
L 2194 1759 
z
M 3341 1997 
L 3341 0 
L 2766 0 
L 2766 531 
Q 2569 213 2275 61 
Q 1981 -91 1556 -91 
Q 1019 -91 701 211 
Q 384 513 384 1019 
Q 384 1609 779 1909 
Q 1175 2209 1959 2209 
L 2766 2209 
L 2766 2266 
Q 2766 2663 2505 2880 
Q 2244 3097 1772 3097 
Q 1472 3097 1187 3025 
Q 903 2953 641 2809 
L 641 3341 
Q 956 3463 1253 3523 
Q 1550 3584 1831 3584 
Q 2591 3584 2966 3190 
Q 3341 2797 3341 1997 
z
" transform="scale(0.015625)"/>
      <path id="DejaVuSans-74" d="M 1172 4494 
L 1172 3500 
L 2356 3500 
L 2356 3053 
L 1172 3053 
L 1172 1153 
Q 1172 725 1289 603 
Q 1406 481 1766 481 
L 2356 481 
L 2356 0 
L 1766 0 
Q 1100 0 847 248 
Q 594 497 594 1153 
L 594 3053 
L 172 3053 
L 172 3500 
L 594 3500 
L 594 4494 
L 1172 4494 
z
" transform="scale(0.015625)"/>
     </defs>
     <use xlink:href="#DejaVuSans-4c"/>
     <use xlink:href="#DejaVuSans-6f" x="53.962891"/>
     <use xlink:href="#DejaVuSans-73" x="115.144531"/>
     <use xlink:href="#DejaVuSans-73" x="167.244141"/>
     <use xlink:href="#DejaVuSans-20" x="219.34375"/>
     <use xlink:href="#DejaVuSans-76" x="251.130859"/>
     <use xlink:href="#DejaVuSans-73" x="310.310547"/>
     <use xlink:href="#DejaVuSans-2e" x="362.410156"/>
     <use xlink:href="#DejaVuSans-20" x="394.197266"/>
     <use xlink:href="#DejaVuSans-65" x="425.984375"/>
     <use xlink:href="#DejaVuSans-70" x="487.507812"/>
     <use xlink:href="#DejaVuSans-6f" x="550.984375"/>
     <use xlink:href="#DejaVuSans-63" x="612.166016"/>
     <use xlink:href="#DejaVuSans-68" x="667.146484"/>
     <use xlink:href="#DejaVuSans-20" x="730.525391"/>
     <use xlink:href="#DejaVuSans-66" x="762.3125"/>
     <use xlink:href="#DejaVuSans-6f" x="797.517578"/>
     <use xlink:href="#DejaVuSans-72" x="858.699219"/>
     <use xlink:href="#DejaVuSans-20" x="899.8125"/>
     <use xlink:href="#DejaVuSans-73" x="931.599609"/>
     <use xlink:href="#DejaVuSans-69" x="983.699219"/>
     <use xlink:href="#DejaVuSans-6d" x="1011.482422"/>
     <use xlink:href="#DejaVuSans-70" x="1108.894531"/>
     <use xlink:href="#DejaVuSans-6c" x="1172.371094"/>
     <use xlink:href="#DejaVuSans-65" x="1200.154297"/>
     <use xlink:href="#DejaVuSans-20" x="1261.677734"/>
     <use xlink:href="#DejaVuSans-64" x="1293.464844"/>
     <use xlink:href="#DejaVuSans-61" x="1356.941406"/>
     <use xlink:href="#DejaVuSans-74" x="1418.220703"/>
     <use xlink:href="#DejaVuSans-61" x="1457.429688"/>
     <use xlink:href="#DejaVuSans-73" x="1518.708984"/>
     <use xlink:href="#DejaVuSans-65" x="1570.808594"/>
     <use xlink:href="#DejaVuSans-74" x="1632.332031"/>
    </g>
   </g>
   <g id="legend_1">
    <g id="patch_7">
     <path d="M 376.853125 49.558125 
L 443 49.558125 
Q 445 49.558125 445 47.558125 
L 445 33.88 
Q 445 31.88 443 31.88 
L 376.853125 31.88 
Q 374.853125 31.88 374.853125 33.88 
L 374.853125 47.558125 
Q 374.853125 49.558125 376.853125 49.558125 
z
" style="fill: #ffffff; opacity: 0.8; stroke: #cccccc; stroke-linejoin: miter"/>
    </g>
    <g id="line2d_36">
     <path d="M 378.853125 39.978437 
L 388.853125 39.978437 
L 398.853125 39.978437 
" style="fill: none; stroke: #fcbba1; stroke-width: 2; stroke-linecap: square"/>
     <g>
      <use xlink:href="#m09d2594a00" x="388.853125" y="39.978437" style="fill: #fcbba1; stroke: #fcbba1"/>
     </g>
    </g>
    <g id="text_21">
     <!-- Simple -->
     <g transform="translate(406.853125 43.478437)scale(0.1 -0.1)">
      <defs>
       <path id="DejaVuSans-53" d="M 3425 4513 
L 3425 3897 
Q 3066 4069 2747 4153 
Q 2428 4238 2131 4238 
Q 1616 4238 1336 4038 
Q 1056 3838 1056 3469 
Q 1056 3159 1242 3001 
Q 1428 2844 1947 2747 
L 2328 2669 
Q 3034 2534 3370 2195 
Q 3706 1856 3706 1288 
Q 3706 609 3251 259 
Q 2797 -91 1919 -91 
Q 1588 -91 1214 -16 
Q 841 59 441 206 
L 441 856 
Q 825 641 1194 531 
Q 1563 422 1919 422 
Q 2459 422 2753 634 
Q 3047 847 3047 1241 
Q 3047 1584 2836 1778 
Q 2625 1972 2144 2069 
L 1759 2144 
Q 1053 2284 737 2584 
Q 422 2884 422 3419 
Q 422 4038 858 4394 
Q 1294 4750 2059 4750 
Q 2388 4750 2728 4690 
Q 3069 4631 3425 4513 
z
" transform="scale(0.015625)"/>
      </defs>
      <use xlink:href="#DejaVuSans-53"/>
      <use xlink:href="#DejaVuSans-69" x="63.476562"/>
      <use xlink:href="#DejaVuSans-6d" x="91.259766"/>
      <use xlink:href="#DejaVuSans-70" x="188.671875"/>
      <use xlink:href="#DejaVuSans-6c" x="252.148438"/>
      <use xlink:href="#DejaVuSans-65" x="279.931641"/>
     </g>
    </g>
   </g>
  </g>
 </g>
 <defs>
  <clipPath id="p6f935bfa42">
   <rect x="47.81" y="26.88" width="402.19" height="276.76"/>
  </clipPath>
 </defs>
</svg>
