<?xml version="1.0" encoding="utf-8" standalone="no"?>
<!DOCTYPE svg PUBLIC "-//W3C//DTD SVG 1.1//EN"
  "http://www.w3.org/Graphics/SVG/1.1/DTD/svg11.dtd">
<svg xmlns:xlink="http://www.w3.org/1999/xlink" width="460.8pt" height="345.6pt" viewBox="0 0 460.8 345.6" xmlns="http://www.w3.org/2000/svg" version="1.1">
 <metadata>
  <rdf:RDF xmlns:dc="http://purl.org/dc/elements/1.1/" xmlns:cc="http://creativecommons.org/ns#" xmlns:rdf="http://www.w3.org/1999/02/22-rdf-syntax-ns#">
   <cc:Work>
    <dc:type rdf:resource="http://purl.org/dc/dcmitype/StillImage"/>
    <dc:date>2022-12-16T11:31:50.381259</dc:date>
    <dc:format>image/svg+xml</dc:format>
    <dc:creator>
     <cc:Agent>
      <dc:title>Matplotlib v3.5.1, https://matplotlib.org/</dc:title>
     </cc:Agent>
    </dc:creator>
   </cc:Work>
  </rdf:RDF>
 </metadata>
 <defs>
  <style type="text/css">*{stroke-linejoin: round; stroke-linecap: butt}</style>
 </defs>
 <g id="figure_1">
  <g id="patch_1">
   <path d="M 0 345.6 
L 460.8 345.6 
L 460.8 0 
L 0 0 
z
" style="fill: #ffffff"/>
  </g>
  <g id="axes_1">
   <g id="patch_2">
    <path d="M 47.81 303.64 
L 450 303.64 
L 450 26.88 
L 47.81 26.88 
z
" style="fill: #ffffff"/>
   </g>
   <g id="PolyCollection_1">
    <defs>
     <path id="mab0d31fa4a" d="M 66.091364 -263.245391 
L 66.091364 -218.568248 
L 69.784568 -211.92571 
L 73.477773 -203.552286 
L 77.170978 -200.261903 
L 80.864183 -196.360617 
L 84.557388 -194.502802 
L 88.250592 -192.707008 
L 91.943797 -190.327834 
L 95.637002 -187.992938 
L 99.330207 -185.653212 
L 103.023411 -183.266557 
L 106.716616 -182.578415 
L 110.409821 -178.437591 
L 114.103026 -176.022913 
L 117.79623 -173.687691 
L 121.489435 -171.445916 
L 125.18264 -169.259144 
L 128.875845 -167.101246 
L 132.56905 -164.986149 
L 136.262254 -162.977926 
L 139.955459 -160.898771 
L 143.648664 -158.894798 
L 147.341869 -156.937347 
L 151.035073 -155.816605 
L 154.728278 -153.107689 
L 158.421483 -151.239125 
L 162.114688 -148.416672 
L 165.807893 -147.619408 
L 169.501097 -143.36893 
L 173.194302 -143.556397 
L 176.887507 -139.499559 
L 180.580712 -138.171644 
L 184.273916 -134.353042 
L 187.967121 -137.641917 
L 191.660326 -129.579893 
L 195.353531 -127.80204 
L 199.046736 -126.951445 
L 202.73994 -127.024435 
L 206.433145 -128.798069 
L 210.12635 -126.879868 
L 213.819555 -125.018134 
L 217.512759 -123.189802 
L 221.205964 -121.393135 
L 224.899169 -119.630697 
L 228.592374 -117.957739 
L 232.285579 -116.3994 
L 235.978783 -114.87822 
L 239.671988 -113.389921 
L 243.365193 -111.942191 
L 247.058398 -110.546281 
L 250.751602 -109.119977 
L 254.444807 -107.229068 
L 258.138012 -105.403884 
L 261.831217 -103.660538 
L 265.524421 -102.001509 
L 269.217626 -100.421161 
L 272.910831 -98.660317 
L 276.604036 -96.925082 
L 280.297241 -95.29364 
L 283.990445 -93.777939 
L 287.68365 -92.344073 
L 291.376855 -90.992268 
L 295.07006 -89.716478 
L 298.763264 -88.508862 
L 302.456469 -87.354437 
L 306.149674 -86.26118 
L 309.842879 -85.225938 
L 313.536084 -85.790039 
L 317.229288 -84.87307 
L 320.922493 -83.999655 
L 324.615698 -84.485075 
L 328.308903 -84.224403 
L 332.002107 -82.774907 
L 335.695312 -81.944657 
L 339.388517 -80.289333 
L 343.081722 -79.766701 
L 346.774927 -79.422541 
L 350.468131 -79.383805 
L 354.161336 -80.036079 
L 357.854541 -79.687192 
L 361.547746 -76.256999 
L 365.24095 -75.899435 
L 368.934155 -75.551059 
L 372.62736 -75.211495 
L 376.320565 -74.880794 
L 380.01377 -74.559171 
L 383.706974 -74.245913 
L 387.400179 -73.939987 
L 391.093384 -73.396389 
L 394.786589 -72.836905 
L 398.479793 -72.298171 
L 402.172998 -71.784067 
L 405.866203 -71.288109 
L 409.559408 -70.817906 
L 413.252612 -70.361498 
L 416.945817 -69.925357 
L 420.639022 -69.506325 
L 424.332227 -69.113026 
L 428.025432 -68.732642 
L 431.718636 -68.392424 
L 431.718636 -106.830274 
L 431.718636 -106.830274 
L 428.025432 -107.871379 
L 424.332227 -108.927315 
L 420.639022 -109.997687 
L 416.945817 -111.082272 
L 413.252612 -112.1831 
L 409.559408 -107.237125 
L 405.866203 -103.877262 
L 402.172998 -108.285744 
L 398.479793 -106.478405 
L 394.786589 -108.685147 
L 391.093384 -114.970645 
L 387.400179 -119.491006 
L 383.706974 -122.238946 
L 380.01377 -123.533203 
L 376.320565 -124.610926 
L 372.62736 -126.301427 
L 368.934155 -126.974414 
L 365.24095 -127.959121 
L 361.547746 -129.137198 
L 357.854541 -130.328766 
L 354.161336 -131.521604 
L 350.468131 -132.722951 
L 346.774927 -133.931587 
L 343.081722 -133.651991 
L 339.388517 -135.029126 
L 335.695312 -126.336348 
L 332.002107 -128.682529 
L 328.308903 -131.144749 
L 324.615698 -133.707927 
L 320.922493 -136.356564 
L 317.229288 -139.110359 
L 313.536084 -141.960628 
L 309.842879 -144.881791 
L 306.149674 -147.851556 
L 302.456469 -149.433995 
L 298.763264 -150.808562 
L 295.07006 -152.178795 
L 291.376855 -153.570142 
L 287.68365 -154.973641 
L 283.990445 -156.369774 
L 280.297241 -157.758414 
L 276.604036 -159.166633 
L 272.910831 -160.573472 
L 269.217626 -161.969485 
L 265.524421 -163.382655 
L 261.831217 -164.795826 
L 258.138012 -166.236236 
L 254.444807 -167.668495 
L 250.751602 -169.160427 
L 247.058398 -170.641372 
L 243.365193 -172.091709 
L 239.671988 -173.43572 
L 235.978783 -174.359304 
L 232.285579 -175.259622 
L 228.592374 -176.144945 
L 224.899169 -177.012488 
L 221.205964 -180.110343 
L 217.512759 -178.673297 
L 213.819555 -179.475487 
L 210.12635 -180.258302 
L 206.433145 -181.019236 
L 202.73994 -181.760935 
L 199.046736 -186.938439 
L 195.353531 -187.968457 
L 191.660326 -188.965166 
L 187.967121 -184.585142 
L 184.273916 -185.261282 
L 180.580712 -186.814656 
L 176.887507 -188.63387 
L 173.194302 -190.371409 
L 169.501097 -191.928633 
L 165.807893 -193.461666 
L 162.114688 -195.318548 
L 158.421483 -196.582855 
L 154.728278 -197.295275 
L 151.035073 -198.364265 
L 147.341869 -199.429924 
L 143.648664 -200.460509 
L 139.955459 -201.444271 
L 136.262254 -202.377484 
L 132.56905 -203.237132 
L 128.875845 -204.038786 
L 125.18264 -204.822219 
L 121.489435 -206.060812 
L 117.79623 -207.261083 
L 114.103026 -208.447811 
L 110.409821 -209.623224 
L 106.716616 -210.812155 
L 103.023411 -212.011084 
L 99.330207 -212.138481 
L 95.637002 -212.261123 
L 91.943797 -212.379148 
L 88.250592 -212.49486 
L 84.557388 -213.610968 
L 80.864183 -215.730972 
L 77.170978 -220.81997 
L 73.477773 -225.856575 
L 69.784568 -238.083995 
L 66.091364 -263.245391 
z
" style="stroke: #fc8565; stroke-opacity: 0.3"/>
    </defs>
    <g clip-path="url(#p84d0e70913)">
     <use xlink:href="#mab0d31fa4a" x="0" y="345.6" style="fill: #fc8565; fill-opacity: 0.3; stroke: #fc8565; stroke-opacity: 0.3"/>
    </g>
   </g>
   <g id="matplotlib.axis_1">
    <g id="xtick_1">
     <g id="line2d_1">
      <path d="M 62.398159 303.64 
L 62.398159 26.88 
" clip-path="url(#p84d0e70913)" style="fill: none; stroke-dasharray: 2.96,1.28; stroke-dashoffset: 0; stroke: #b0b0b0; stroke-width: 0.8"/>
     </g>
     <g id="line2d_2">
      <defs>
       <path id="m366e12cd8f" d="M 0 0 
L 0 3.5 
" style="stroke: #000000; stroke-width: 0.8"/>
      </defs>
      <g>
       <use xlink:href="#m366e12cd8f" x="62.398159" y="303.64" style="stroke: #000000; stroke-width: 0.8"/>
      </g>
     </g>
     <g id="text_1">
      <!-- 0 -->
      <g transform="translate(59.216909 318.238437)scale(0.1 -0.1)">
       <defs>
        <path id="DejaVuSans-30" d="M 2034 4250 
Q 1547 4250 1301 3770 
Q 1056 3291 1056 2328 
Q 1056 1369 1301 889 
Q 1547 409 2034 409 
Q 2525 409 2770 889 
Q 3016 1369 3016 2328 
Q 3016 3291 2770 3770 
Q 2525 4250 2034 4250 
z
M 2034 4750 
Q 2819 4750 3233 4129 
Q 3647 3509 3647 2328 
Q 3647 1150 3233 529 
Q 2819 -91 2034 -91 
Q 1250 -91 836 529 
Q 422 1150 422 2328 
Q 422 3509 836 4129 
Q 1250 4750 2034 4750 
z
" transform="scale(0.015625)"/>
       </defs>
       <use xlink:href="#DejaVuSans-30"/>
      </g>
     </g>
    </g>
    <g id="xtick_2">
     <g id="line2d_3">
      <path d="M 136.262254 303.64 
L 136.262254 26.88 
" clip-path="url(#p84d0e70913)" style="fill: none; stroke-dasharray: 2.96,1.28; stroke-dashoffset: 0; stroke: #b0b0b0; stroke-width: 0.8"/>
     </g>
     <g id="line2d_4">
      <g>
       <use xlink:href="#m366e12cd8f" x="136.262254" y="303.64" style="stroke: #000000; stroke-width: 0.8"/>
      </g>
     </g>
     <g id="text_2">
      <!-- 20 -->
      <g transform="translate(129.899754 318.238437)scale(0.1 -0.1)">
       <defs>
        <path id="DejaVuSans-32" d="M 1228 531 
L 3431 531 
L 3431 0 
L 469 0 
L 469 531 
Q 828 903 1448 1529 
Q 2069 2156 2228 2338 
Q 2531 2678 2651 2914 
Q 2772 3150 2772 3378 
Q 2772 3750 2511 3984 
Q 2250 4219 1831 4219 
Q 1534 4219 1204 4116 
Q 875 4013 500 3803 
L 500 4441 
Q 881 4594 1212 4672 
Q 1544 4750 1819 4750 
Q 2544 4750 2975 4387 
Q 3406 4025 3406 3419 
Q 3406 3131 3298 2873 
Q 3191 2616 2906 2266 
Q 2828 2175 2409 1742 
Q 1991 1309 1228 531 
z
" transform="scale(0.015625)"/>
       </defs>
       <use xlink:href="#DejaVuSans-32"/>
       <use xlink:href="#DejaVuSans-30" x="63.623047"/>
      </g>
     </g>
    </g>
    <g id="xtick_3">
     <g id="line2d_5">
      <path d="M 210.12635 303.64 
L 210.12635 26.88 
" clip-path="url(#p84d0e70913)" style="fill: none; stroke-dasharray: 2.96,1.28; stroke-dashoffset: 0; stroke: #b0b0b0; stroke-width: 0.8"/>
     </g>
     <g id="line2d_6">
      <g>
       <use xlink:href="#m366e12cd8f" x="210.12635" y="303.64" style="stroke: #000000; stroke-width: 0.8"/>
      </g>
     </g>
     <g id="text_3">
      <!-- 40 -->
      <g transform="translate(203.76385 318.238437)scale(0.1 -0.1)">
       <defs>
        <path id="DejaVuSans-34" d="M 2419 4116 
L 825 1625 
L 2419 1625 
L 2419 4116 
z
M 2253 4666 
L 3047 4666 
L 3047 1625 
L 3713 1625 
L 3713 1100 
L 3047 1100 
L 3047 0 
L 2419 0 
L 2419 1100 
L 313 1100 
L 313 1709 
L 2253 4666 
z
" transform="scale(0.015625)"/>
       </defs>
       <use xlink:href="#DejaVuSans-34"/>
       <use xlink:href="#DejaVuSans-30" x="63.623047"/>
      </g>
     </g>
    </g>
    <g id="xtick_4">
     <g id="line2d_7">
      <path d="M 283.990445 303.64 
L 283.990445 26.88 
" clip-path="url(#p84d0e70913)" style="fill: none; stroke-dasharray: 2.96,1.28; stroke-dashoffset: 0; stroke: #b0b0b0; stroke-width: 0.8"/>
     </g>
     <g id="line2d_8">
      <g>
       <use xlink:href="#m366e12cd8f" x="283.990445" y="303.64" style="stroke: #000000; stroke-width: 0.8"/>
      </g>
     </g>
     <g id="text_4">
      <!-- 60 -->
      <g transform="translate(277.627945 318.238437)scale(0.1 -0.1)">
       <defs>
        <path id="DejaVuSans-36" d="M 2113 2584 
Q 1688 2584 1439 2293 
Q 1191 2003 1191 1497 
Q 1191 994 1439 701 
Q 1688 409 2113 409 
Q 2538 409 2786 701 
Q 3034 994 3034 1497 
Q 3034 2003 2786 2293 
Q 2538 2584 2113 2584 
z
M 3366 4563 
L 3366 3988 
Q 3128 4100 2886 4159 
Q 2644 4219 2406 4219 
Q 1781 4219 1451 3797 
Q 1122 3375 1075 2522 
Q 1259 2794 1537 2939 
Q 1816 3084 2150 3084 
Q 2853 3084 3261 2657 
Q 3669 2231 3669 1497 
Q 3669 778 3244 343 
Q 2819 -91 2113 -91 
Q 1303 -91 875 529 
Q 447 1150 447 2328 
Q 447 3434 972 4092 
Q 1497 4750 2381 4750 
Q 2619 4750 2861 4703 
Q 3103 4656 3366 4563 
z
" transform="scale(0.015625)"/>
       </defs>
       <use xlink:href="#DejaVuSans-36"/>
       <use xlink:href="#DejaVuSans-30" x="63.623047"/>
      </g>
     </g>
    </g>
    <g id="xtick_5">
     <g id="line2d_9">
      <path d="M 357.854541 303.64 
L 357.854541 26.88 
" clip-path="url(#p84d0e70913)" style="fill: none; stroke-dasharray: 2.96,1.28; stroke-dashoffset: 0; stroke: #b0b0b0; stroke-width: 0.8"/>
     </g>
     <g id="line2d_10">
      <g>
       <use xlink:href="#m366e12cd8f" x="357.854541" y="303.64" style="stroke: #000000; stroke-width: 0.8"/>
      </g>
     </g>
     <g id="text_5">
      <!-- 80 -->
      <g transform="translate(351.492041 318.238437)scale(0.1 -0.1)">
       <defs>
        <path id="DejaVuSans-38" d="M 2034 2216 
Q 1584 2216 1326 1975 
Q 1069 1734 1069 1313 
Q 1069 891 1326 650 
Q 1584 409 2034 409 
Q 2484 409 2743 651 
Q 3003 894 3003 1313 
Q 3003 1734 2745 1975 
Q 2488 2216 2034 2216 
z
M 1403 2484 
Q 997 2584 770 2862 
Q 544 3141 544 3541 
Q 544 4100 942 4425 
Q 1341 4750 2034 4750 
Q 2731 4750 3128 4425 
Q 3525 4100 3525 3541 
Q 3525 3141 3298 2862 
Q 3072 2584 2669 2484 
Q 3125 2378 3379 2068 
Q 3634 1759 3634 1313 
Q 3634 634 3220 271 
Q 2806 -91 2034 -91 
Q 1263 -91 848 271 
Q 434 634 434 1313 
Q 434 1759 690 2068 
Q 947 2378 1403 2484 
z
M 1172 3481 
Q 1172 3119 1398 2916 
Q 1625 2713 2034 2713 
Q 2441 2713 2670 2916 
Q 2900 3119 2900 3481 
Q 2900 3844 2670 4047 
Q 2441 4250 2034 4250 
Q 1625 4250 1398 4047 
Q 1172 3844 1172 3481 
z
" transform="scale(0.015625)"/>
       </defs>
       <use xlink:href="#DejaVuSans-38"/>
       <use xlink:href="#DejaVuSans-30" x="63.623047"/>
      </g>
     </g>
    </g>
    <g id="xtick_6">
     <g id="line2d_11">
      <path d="M 431.718636 303.64 
L 431.718636 26.88 
" clip-path="url(#p84d0e70913)" style="fill: none; stroke-dasharray: 2.96,1.28; stroke-dashoffset: 0; stroke: #b0b0b0; stroke-width: 0.8"/>
     </g>
     <g id="line2d_12">
      <g>
       <use xlink:href="#m366e12cd8f" x="431.718636" y="303.64" style="stroke: #000000; stroke-width: 0.8"/>
      </g>
     </g>
     <g id="text_6">
      <!-- 100 -->
      <g transform="translate(422.174886 318.238437)scale(0.1 -0.1)">
       <defs>
        <path id="DejaVuSans-31" d="M 794 531 
L 1825 531 
L 1825 4091 
L 703 3866 
L 703 4441 
L 1819 4666 
L 2450 4666 
L 2450 531 
L 3481 531 
L 3481 0 
L 794 0 
L 794 531 
z
" transform="scale(0.015625)"/>
       </defs>
       <use xlink:href="#DejaVuSans-31"/>
       <use xlink:href="#DejaVuSans-30" x="63.623047"/>
       <use xlink:href="#DejaVuSans-30" x="127.246094"/>
      </g>
     </g>
    </g>
    <g id="text_7">
     <!-- Epoch -->
     <g transform="translate(233.594063 331.916562)scale(0.1 -0.1)">
      <defs>
       <path id="DejaVuSans-45" d="M 628 4666 
L 3578 4666 
L 3578 4134 
L 1259 4134 
L 1259 2753 
L 3481 2753 
L 3481 2222 
L 1259 2222 
L 1259 531 
L 3634 531 
L 3634 0 
L 628 0 
L 628 4666 
z
" transform="scale(0.015625)"/>
       <path id="DejaVuSans-70" d="M 1159 525 
L 1159 -1331 
L 581 -1331 
L 581 3500 
L 1159 3500 
L 1159 2969 
Q 1341 3281 1617 3432 
Q 1894 3584 2278 3584 
Q 2916 3584 3314 3078 
Q 3713 2572 3713 1747 
Q 3713 922 3314 415 
Q 2916 -91 2278 -91 
Q 1894 -91 1617 61 
Q 1341 213 1159 525 
z
M 3116 1747 
Q 3116 2381 2855 2742 
Q 2594 3103 2138 3103 
Q 1681 3103 1420 2742 
Q 1159 2381 1159 1747 
Q 1159 1113 1420 752 
Q 1681 391 2138 391 
Q 2594 391 2855 752 
Q 3116 1113 3116 1747 
z
" transform="scale(0.015625)"/>
       <path id="DejaVuSans-6f" d="M 1959 3097 
Q 1497 3097 1228 2736 
Q 959 2375 959 1747 
Q 959 1119 1226 758 
Q 1494 397 1959 397 
Q 2419 397 2687 759 
Q 2956 1122 2956 1747 
Q 2956 2369 2687 2733 
Q 2419 3097 1959 3097 
z
M 1959 3584 
Q 2709 3584 3137 3096 
Q 3566 2609 3566 1747 
Q 3566 888 3137 398 
Q 2709 -91 1959 -91 
Q 1206 -91 779 398 
Q 353 888 353 1747 
Q 353 2609 779 3096 
Q 1206 3584 1959 3584 
z
" transform="scale(0.015625)"/>
       <path id="DejaVuSans-63" d="M 3122 3366 
L 3122 2828 
Q 2878 2963 2633 3030 
Q 2388 3097 2138 3097 
Q 1578 3097 1268 2742 
Q 959 2388 959 1747 
Q 959 1106 1268 751 
Q 1578 397 2138 397 
Q 2388 397 2633 464 
Q 2878 531 3122 666 
L 3122 134 
Q 2881 22 2623 -34 
Q 2366 -91 2075 -91 
Q 1284 -91 818 406 
Q 353 903 353 1747 
Q 353 2603 823 3093 
Q 1294 3584 2113 3584 
Q 2378 3584 2631 3529 
Q 2884 3475 3122 3366 
z
" transform="scale(0.015625)"/>
       <path id="DejaVuSans-68" d="M 3513 2113 
L 3513 0 
L 2938 0 
L 2938 2094 
Q 2938 2591 2744 2837 
Q 2550 3084 2163 3084 
Q 1697 3084 1428 2787 
Q 1159 2491 1159 1978 
L 1159 0 
L 581 0 
L 581 4863 
L 1159 4863 
L 1159 2956 
Q 1366 3272 1645 3428 
Q 1925 3584 2291 3584 
Q 2894 3584 3203 3211 
Q 3513 2838 3513 2113 
z
" transform="scale(0.015625)"/>
      </defs>
      <use xlink:href="#DejaVuSans-45"/>
      <use xlink:href="#DejaVuSans-70" x="63.183594"/>
      <use xlink:href="#DejaVuSans-6f" x="126.660156"/>
      <use xlink:href="#DejaVuSans-63" x="187.841797"/>
      <use xlink:href="#DejaVuSans-68" x="242.822266"/>
     </g>
    </g>
   </g>
   <g id="matplotlib.axis_2">
    <g id="ytick_1">
     <g id="line2d_13">
      <path d="M 47.81 278.48 
L 450 278.48 
" clip-path="url(#p84d0e70913)" style="fill: none; stroke-dasharray: 2.96,1.28; stroke-dashoffset: 0; stroke: #b0b0b0; stroke-width: 0.8"/>
     </g>
     <g id="line2d_14">
      <defs>
       <path id="maf19578e0f" d="M 0 0 
L -3.5 0 
" style="stroke: #000000; stroke-width: 0.8"/>
      </defs>
      <g>
       <use xlink:href="#maf19578e0f" x="47.81" y="278.48" style="stroke: #000000; stroke-width: 0.8"/>
      </g>
     </g>
     <g id="text_8">
      <!-- 0.1 -->
      <g transform="translate(24.906875 282.279219)scale(0.1 -0.1)">
       <defs>
        <path id="DejaVuSans-2e" d="M 684 794 
L 1344 794 
L 1344 0 
L 684 0 
L 684 794 
z
" transform="scale(0.015625)"/>
       </defs>
       <use xlink:href="#DejaVuSans-30"/>
       <use xlink:href="#DejaVuSans-2e" x="63.623047"/>
       <use xlink:href="#DejaVuSans-31" x="95.410156"/>
      </g>
     </g>
    </g>
    <g id="ytick_2">
     <g id="line2d_15">
      <path d="M 47.81 253.32 
L 450 253.32 
" clip-path="url(#p84d0e70913)" style="fill: none; stroke-dasharray: 2.96,1.28; stroke-dashoffset: 0; stroke: #b0b0b0; stroke-width: 0.8"/>
     </g>
     <g id="line2d_16">
      <g>
       <use xlink:href="#maf19578e0f" x="47.81" y="253.32" style="stroke: #000000; stroke-width: 0.8"/>
      </g>
     </g>
     <g id="text_9">
      <!-- 0.2 -->
      <g transform="translate(24.906875 257.119219)scale(0.1 -0.1)">
       <use xlink:href="#DejaVuSans-30"/>
       <use xlink:href="#DejaVuSans-2e" x="63.623047"/>
       <use xlink:href="#DejaVuSans-32" x="95.410156"/>
      </g>
     </g>
    </g>
    <g id="ytick_3">
     <g id="line2d_17">
      <path d="M 47.81 228.16 
L 450 228.16 
" clip-path="url(#p84d0e70913)" style="fill: none; stroke-dasharray: 2.96,1.28; stroke-dashoffset: 0; stroke: #b0b0b0; stroke-width: 0.8"/>
     </g>
     <g id="line2d_18">
      <g>
       <use xlink:href="#maf19578e0f" x="47.81" y="228.16" style="stroke: #000000; stroke-width: 0.8"/>
      </g>
     </g>
     <g id="text_10">
      <!-- 0.3 -->
      <g transform="translate(24.906875 231.959219)scale(0.1 -0.1)">
       <defs>
        <path id="DejaVuSans-33" d="M 2597 2516 
Q 3050 2419 3304 2112 
Q 3559 1806 3559 1356 
Q 3559 666 3084 287 
Q 2609 -91 1734 -91 
Q 1441 -91 1130 -33 
Q 819 25 488 141 
L 488 750 
Q 750 597 1062 519 
Q 1375 441 1716 441 
Q 2309 441 2620 675 
Q 2931 909 2931 1356 
Q 2931 1769 2642 2001 
Q 2353 2234 1838 2234 
L 1294 2234 
L 1294 2753 
L 1863 2753 
Q 2328 2753 2575 2939 
Q 2822 3125 2822 3475 
Q 2822 3834 2567 4026 
Q 2313 4219 1838 4219 
Q 1578 4219 1281 4162 
Q 984 4106 628 3988 
L 628 4550 
Q 988 4650 1302 4700 
Q 1616 4750 1894 4750 
Q 2613 4750 3031 4423 
Q 3450 4097 3450 3541 
Q 3450 3153 3228 2886 
Q 3006 2619 2597 2516 
z
" transform="scale(0.015625)"/>
       </defs>
       <use xlink:href="#DejaVuSans-30"/>
       <use xlink:href="#DejaVuSans-2e" x="63.623047"/>
       <use xlink:href="#DejaVuSans-33" x="95.410156"/>
      </g>
     </g>
    </g>
    <g id="ytick_4">
     <g id="line2d_19">
      <path d="M 47.81 203 
L 450 203 
" clip-path="url(#p84d0e70913)" style="fill: none; stroke-dasharray: 2.96,1.28; stroke-dashoffset: 0; stroke: #b0b0b0; stroke-width: 0.8"/>
     </g>
     <g id="line2d_20">
      <g>
       <use xlink:href="#maf19578e0f" x="47.81" y="203" style="stroke: #000000; stroke-width: 0.8"/>
      </g>
     </g>
     <g id="text_11">
      <!-- 0.4 -->
      <g transform="translate(24.906875 206.799219)scale(0.1 -0.1)">
       <use xlink:href="#DejaVuSans-30"/>
       <use xlink:href="#DejaVuSans-2e" x="63.623047"/>
       <use xlink:href="#DejaVuSans-34" x="95.410156"/>
      </g>
     </g>
    </g>
    <g id="ytick_5">
     <g id="line2d_21">
      <path d="M 47.81 177.84 
L 450 177.84 
" clip-path="url(#p84d0e70913)" style="fill: none; stroke-dasharray: 2.96,1.28; stroke-dashoffset: 0; stroke: #b0b0b0; stroke-width: 0.8"/>
     </g>
     <g id="line2d_22">
      <g>
       <use xlink:href="#maf19578e0f" x="47.81" y="177.84" style="stroke: #000000; stroke-width: 0.8"/>
      </g>
     </g>
     <g id="text_12">
      <!-- 0.5 -->
      <g transform="translate(24.906875 181.639219)scale(0.1 -0.1)">
       <defs>
        <path id="DejaVuSans-35" d="M 691 4666 
L 3169 4666 
L 3169 4134 
L 1269 4134 
L 1269 2991 
Q 1406 3038 1543 3061 
Q 1681 3084 1819 3084 
Q 2600 3084 3056 2656 
Q 3513 2228 3513 1497 
Q 3513 744 3044 326 
Q 2575 -91 1722 -91 
Q 1428 -91 1123 -41 
Q 819 9 494 109 
L 494 744 
Q 775 591 1075 516 
Q 1375 441 1709 441 
Q 2250 441 2565 725 
Q 2881 1009 2881 1497 
Q 2881 1984 2565 2268 
Q 2250 2553 1709 2553 
Q 1456 2553 1204 2497 
Q 953 2441 691 2322 
L 691 4666 
z
" transform="scale(0.015625)"/>
       </defs>
       <use xlink:href="#DejaVuSans-30"/>
       <use xlink:href="#DejaVuSans-2e" x="63.623047"/>
       <use xlink:href="#DejaVuSans-35" x="95.410156"/>
      </g>
     </g>
    </g>
    <g id="ytick_6">
     <g id="line2d_23">
      <path d="M 47.81 152.68 
L 450 152.68 
" clip-path="url(#p84d0e70913)" style="fill: none; stroke-dasharray: 2.96,1.28; stroke-dashoffset: 0; stroke: #b0b0b0; stroke-width: 0.8"/>
     </g>
     <g id="line2d_24">
      <g>
       <use xlink:href="#maf19578e0f" x="47.81" y="152.68" style="stroke: #000000; stroke-width: 0.8"/>
      </g>
     </g>
     <g id="text_13">
      <!-- 0.6 -->
      <g transform="translate(24.906875 156.479219)scale(0.1 -0.1)">
       <use xlink:href="#DejaVuSans-30"/>
       <use xlink:href="#DejaVuSans-2e" x="63.623047"/>
       <use xlink:href="#DejaVuSans-36" x="95.410156"/>
      </g>
     </g>
    </g>
    <g id="ytick_7">
     <g id="line2d_25">
      <path d="M 47.81 127.52 
L 450 127.52 
" clip-path="url(#p84d0e70913)" style="fill: none; stroke-dasharray: 2.96,1.28; stroke-dashoffset: 0; stroke: #b0b0b0; stroke-width: 0.8"/>
     </g>
     <g id="line2d_26">
      <g>
       <use xlink:href="#maf19578e0f" x="47.81" y="127.52" style="stroke: #000000; stroke-width: 0.8"/>
      </g>
     </g>
     <g id="text_14">
      <!-- 0.7 -->
      <g transform="translate(24.906875 131.319219)scale(0.1 -0.1)">
       <defs>
        <path id="DejaVuSans-37" d="M 525 4666 
L 3525 4666 
L 3525 4397 
L 1831 0 
L 1172 0 
L 2766 4134 
L 525 4134 
L 525 4666 
z
" transform="scale(0.015625)"/>
       </defs>
       <use xlink:href="#DejaVuSans-30"/>
       <use xlink:href="#DejaVuSans-2e" x="63.623047"/>
       <use xlink:href="#DejaVuSans-37" x="95.410156"/>
      </g>
     </g>
    </g>
    <g id="ytick_8">
     <g id="line2d_27">
      <path d="M 47.81 102.36 
L 450 102.36 
" clip-path="url(#p84d0e70913)" style="fill: none; stroke-dasharray: 2.96,1.28; stroke-dashoffset: 0; stroke: #b0b0b0; stroke-width: 0.8"/>
     </g>
     <g id="line2d_28">
      <g>
       <use xlink:href="#maf19578e0f" x="47.81" y="102.36" style="stroke: #000000; stroke-width: 0.8"/>
      </g>
     </g>
     <g id="text_15">
      <!-- 0.8 -->
      <g transform="translate(24.906875 106.159219)scale(0.1 -0.1)">
       <use xlink:href="#DejaVuSans-30"/>
       <use xlink:href="#DejaVuSans-2e" x="63.623047"/>
       <use xlink:href="#DejaVuSans-38" x="95.410156"/>
      </g>
     </g>
    </g>
    <g id="ytick_9">
     <g id="line2d_29">
      <path d="M 47.81 77.2 
L 450 77.2 
" clip-path="url(#p84d0e70913)" style="fill: none; stroke-dasharray: 2.96,1.28; stroke-dashoffset: 0; stroke: #b0b0b0; stroke-width: 0.8"/>
     </g>
     <g id="line2d_30">
      <g>
       <use xlink:href="#maf19578e0f" x="47.81" y="77.2" style="stroke: #000000; stroke-width: 0.8"/>
      </g>
     </g>
     <g id="text_16">
      <!-- 0.9 -->
      <g transform="translate(24.906875 80.999219)scale(0.1 -0.1)">
       <defs>
        <path id="DejaVuSans-39" d="M 703 97 
L 703 672 
Q 941 559 1184 500 
Q 1428 441 1663 441 
Q 2288 441 2617 861 
Q 2947 1281 2994 2138 
Q 2813 1869 2534 1725 
Q 2256 1581 1919 1581 
Q 1219 1581 811 2004 
Q 403 2428 403 3163 
Q 403 3881 828 4315 
Q 1253 4750 1959 4750 
Q 2769 4750 3195 4129 
Q 3622 3509 3622 2328 
Q 3622 1225 3098 567 
Q 2575 -91 1691 -91 
Q 1453 -91 1209 -44 
Q 966 3 703 97 
z
M 1959 2075 
Q 2384 2075 2632 2365 
Q 2881 2656 2881 3163 
Q 2881 3666 2632 3958 
Q 2384 4250 1959 4250 
Q 1534 4250 1286 3958 
Q 1038 3666 1038 3163 
Q 1038 2656 1286 2365 
Q 1534 2075 1959 2075 
z
" transform="scale(0.015625)"/>
       </defs>
       <use xlink:href="#DejaVuSans-30"/>
       <use xlink:href="#DejaVuSans-2e" x="63.623047"/>
       <use xlink:href="#DejaVuSans-39" x="95.410156"/>
      </g>
     </g>
    </g>
    <g id="ytick_10">
     <g id="line2d_31">
      <path d="M 47.81 52.04 
L 450 52.04 
" clip-path="url(#p84d0e70913)" style="fill: none; stroke-dasharray: 2.96,1.28; stroke-dashoffset: 0; stroke: #b0b0b0; stroke-width: 0.8"/>
     </g>
     <g id="line2d_32">
      <g>
       <use xlink:href="#maf19578e0f" x="47.81" y="52.04" style="stroke: #000000; stroke-width: 0.8"/>
      </g>
     </g>
     <g id="text_17">
      <!-- 1.0 -->
      <g transform="translate(24.906875 55.839219)scale(0.1 -0.1)">
       <use xlink:href="#DejaVuSans-31"/>
       <use xlink:href="#DejaVuSans-2e" x="63.623047"/>
       <use xlink:href="#DejaVuSans-30" x="95.410156"/>
      </g>
     </g>
    </g>
    <g id="ytick_11">
     <g id="line2d_33">
      <path d="M 47.81 26.88 
L 450 26.88 
" clip-path="url(#p84d0e70913)" style="fill: none; stroke-dasharray: 2.96,1.28; stroke-dashoffset: 0; stroke: #b0b0b0; stroke-width: 0.8"/>
     </g>
     <g id="line2d_34">
      <g>
       <use xlink:href="#maf19578e0f" x="47.81" y="26.88" style="stroke: #000000; stroke-width: 0.8"/>
      </g>
     </g>
     <g id="text_18">
      <!-- 1.1 -->
      <g transform="translate(24.906875 30.679219)scale(0.1 -0.1)">
       <use xlink:href="#DejaVuSans-31"/>
       <use xlink:href="#DejaVuSans-2e" x="63.623047"/>
       <use xlink:href="#DejaVuSans-31" x="95.410156"/>
      </g>
     </g>
    </g>
    <g id="text_19">
     <!-- BCE Loss -->
     <g transform="translate(18.827187 187.81)rotate(-90)scale(0.1 -0.1)">
      <defs>
       <path id="DejaVuSans-42" d="M 1259 2228 
L 1259 519 
L 2272 519 
Q 2781 519 3026 730 
Q 3272 941 3272 1375 
Q 3272 1813 3026 2020 
Q 2781 2228 2272 2228 
L 1259 2228 
z
M 1259 4147 
L 1259 2741 
L 2194 2741 
Q 2656 2741 2882 2914 
Q 3109 3088 3109 3444 
Q 3109 3797 2882 3972 
Q 2656 4147 2194 4147 
L 1259 4147 
z
M 628 4666 
L 2241 4666 
Q 2963 4666 3353 4366 
Q 3744 4066 3744 3513 
Q 3744 3084 3544 2831 
Q 3344 2578 2956 2516 
Q 3422 2416 3680 2098 
Q 3938 1781 3938 1306 
Q 3938 681 3513 340 
Q 3088 0 2303 0 
L 628 0 
L 628 4666 
z
" transform="scale(0.015625)"/>
       <path id="DejaVuSans-43" d="M 4122 4306 
L 4122 3641 
Q 3803 3938 3442 4084 
Q 3081 4231 2675 4231 
Q 1875 4231 1450 3742 
Q 1025 3253 1025 2328 
Q 1025 1406 1450 917 
Q 1875 428 2675 428 
Q 3081 428 3442 575 
Q 3803 722 4122 1019 
L 4122 359 
Q 3791 134 3420 21 
Q 3050 -91 2638 -91 
Q 1578 -91 968 557 
Q 359 1206 359 2328 
Q 359 3453 968 4101 
Q 1578 4750 2638 4750 
Q 3056 4750 3426 4639 
Q 3797 4528 4122 4306 
z
" transform="scale(0.015625)"/>
       <path id="DejaVuSans-20" transform="scale(0.015625)"/>
       <path id="DejaVuSans-4c" d="M 628 4666 
L 1259 4666 
L 1259 531 
L 3531 531 
L 3531 0 
L 628 0 
L 628 4666 
z
" transform="scale(0.015625)"/>
       <path id="DejaVuSans-73" d="M 2834 3397 
L 2834 2853 
Q 2591 2978 2328 3040 
Q 2066 3103 1784 3103 
Q 1356 3103 1142 2972 
Q 928 2841 928 2578 
Q 928 2378 1081 2264 
Q 1234 2150 1697 2047 
L 1894 2003 
Q 2506 1872 2764 1633 
Q 3022 1394 3022 966 
Q 3022 478 2636 193 
Q 2250 -91 1575 -91 
Q 1294 -91 989 -36 
Q 684 19 347 128 
L 347 722 
Q 666 556 975 473 
Q 1284 391 1588 391 
Q 1994 391 2212 530 
Q 2431 669 2431 922 
Q 2431 1156 2273 1281 
Q 2116 1406 1581 1522 
L 1381 1569 
Q 847 1681 609 1914 
Q 372 2147 372 2553 
Q 372 3047 722 3315 
Q 1072 3584 1716 3584 
Q 2034 3584 2315 3537 
Q 2597 3491 2834 3397 
z
" transform="scale(0.015625)"/>
      </defs>
      <use xlink:href="#DejaVuSans-42"/>
      <use xlink:href="#DejaVuSans-43" x="66.853516"/>
      <use xlink:href="#DejaVuSans-45" x="136.677734"/>
      <use xlink:href="#DejaVuSans-20" x="199.861328"/>
      <use xlink:href="#DejaVuSans-4c" x="231.648438"/>
      <use xlink:href="#DejaVuSans-6f" x="285.611328"/>
      <use xlink:href="#DejaVuSans-73" x="346.792969"/>
      <use xlink:href="#DejaVuSans-73" x="398.892578"/>
     </g>
    </g>
   </g>
   <g id="line2d_35">
    <path d="M 66.091364 102.294964 
L 73.477773 132.126734 
L 80.864183 134.751813 
L 88.250592 138.474915 
L 95.637002 139.74947 
L 103.023411 143.61179 
L 110.409821 145.633153 
L 117.79623 149.289806 
L 125.18264 151.030365 
L 132.56905 152.02361 
L 139.955459 154.049068 
L 147.341869 156.427579 
L 154.728278 158.891561 
L 162.114688 166.978543 
L 169.501097 174.416917 
L 176.887507 177.805302 
L 184.273916 181.282967 
L 191.660326 173.017924 
L 199.046736 177.673762 
L 206.433145 187.016545 
L 213.819555 195.539367 
L 221.205964 199.122939 
L 228.592374 202.683732 
L 235.978783 206.193707 
L 243.365193 210.750097 
L 250.751602 216.133382 
L 258.138012 216.101318 
L 265.524421 219.209334 
L 272.910831 222.182152 
L 280.297241 224.941213 
L 287.68365 227.565644 
L 295.07006 230.845902 
L 302.456469 232.557449 
L 309.842879 234.736189 
L 317.229288 236.391617 
L 324.615698 237.183468 
L 332.002107 237.88668 
L 339.388517 237.222417 
L 346.774927 235.312481 
L 354.161336 245.930049 
L 361.547746 240.846374 
L 368.934155 239.697381 
L 376.320565 239.684017 
L 383.706974 241.018911 
L 391.093384 242.675642 
L 398.479793 247.018034 
L 405.866203 246.515366 
L 413.252612 246.855718 
L 420.639022 250.124524 
L 428.025432 253.021102 
" clip-path="url(#p84d0e70913)" style="fill: none; stroke: #fc8565; stroke-width: 2; stroke-linecap: square"/>
    <defs>
     <path id="mb8f5ad0db5" d="M 0 1.5 
C 0.397805 1.5 0.77937 1.341951 1.06066 1.06066 
C 1.341951 0.77937 1.5 0.397805 1.5 0 
C 1.5 -0.397805 1.341951 -0.77937 1.06066 -1.06066 
C 0.77937 -1.341951 0.397805 -1.5 0 -1.5 
C -0.397805 -1.5 -0.77937 -1.341951 -1.06066 -1.06066 
C -1.341951 -0.77937 -1.5 -0.397805 -1.5 0 
C -1.5 0.397805 -1.341951 0.77937 -1.06066 1.06066 
C -0.77937 1.341951 -0.397805 1.5 0 1.5 
z
" style="stroke: #fc8565"/>
    </defs>
    <g clip-path="url(#p84d0e70913)">
     <use xlink:href="#mb8f5ad0db5" x="66.091364" y="102.294964" style="fill: #fc8565; stroke: #fc8565"/>
     <use xlink:href="#mb8f5ad0db5" x="73.477773" y="132.126734" style="fill: #fc8565; stroke: #fc8565"/>
     <use xlink:href="#mb8f5ad0db5" x="80.864183" y="134.751813" style="fill: #fc8565; stroke: #fc8565"/>
     <use xlink:href="#mb8f5ad0db5" x="88.250592" y="138.474915" style="fill: #fc8565; stroke: #fc8565"/>
     <use xlink:href="#mb8f5ad0db5" x="95.637002" y="139.74947" style="fill: #fc8565; stroke: #fc8565"/>
     <use xlink:href="#mb8f5ad0db5" x="103.023411" y="143.61179" style="fill: #fc8565; stroke: #fc8565"/>
     <use xlink:href="#mb8f5ad0db5" x="110.409821" y="145.633153" style="fill: #fc8565; stroke: #fc8565"/>
     <use xlink:href="#mb8f5ad0db5" x="117.79623" y="149.289806" style="fill: #fc8565; stroke: #fc8565"/>
     <use xlink:href="#mb8f5ad0db5" x="125.18264" y="151.030365" style="fill: #fc8565; stroke: #fc8565"/>
     <use xlink:href="#mb8f5ad0db5" x="132.56905" y="152.02361" style="fill: #fc8565; stroke: #fc8565"/>
     <use xlink:href="#mb8f5ad0db5" x="139.955459" y="154.049068" style="fill: #fc8565; stroke: #fc8565"/>
     <use xlink:href="#mb8f5ad0db5" x="147.341869" y="156.427579" style="fill: #fc8565; stroke: #fc8565"/>
     <use xlink:href="#mb8f5ad0db5" x="154.728278" y="158.891561" style="fill: #fc8565; stroke: #fc8565"/>
     <use xlink:href="#mb8f5ad0db5" x="162.114688" y="166.978543" style="fill: #fc8565; stroke: #fc8565"/>
     <use xlink:href="#mb8f5ad0db5" x="169.501097" y="174.416917" style="fill: #fc8565; stroke: #fc8565"/>
     <use xlink:href="#mb8f5ad0db5" x="176.887507" y="177.805302" style="fill: #fc8565; stroke: #fc8565"/>
     <use xlink:href="#mb8f5ad0db5" x="184.273916" y="181.282967" style="fill: #fc8565; stroke: #fc8565"/>
     <use xlink:href="#mb8f5ad0db5" x="191.660326" y="173.017924" style="fill: #fc8565; stroke: #fc8565"/>
     <use xlink:href="#mb8f5ad0db5" x="199.046736" y="177.673762" style="fill: #fc8565; stroke: #fc8565"/>
     <use xlink:href="#mb8f5ad0db5" x="206.433145" y="187.016545" style="fill: #fc8565; stroke: #fc8565"/>
     <use xlink:href="#mb8f5ad0db5" x="213.819555" y="195.539367" style="fill: #fc8565; stroke: #fc8565"/>
     <use xlink:href="#mb8f5ad0db5" x="221.205964" y="199.122939" style="fill: #fc8565; stroke: #fc8565"/>
     <use xlink:href="#mb8f5ad0db5" x="228.592374" y="202.683732" style="fill: #fc8565; stroke: #fc8565"/>
     <use xlink:href="#mb8f5ad0db5" x="235.978783" y="206.193707" style="fill: #fc8565; stroke: #fc8565"/>
     <use xlink:href="#mb8f5ad0db5" x="243.365193" y="210.750097" style="fill: #fc8565; stroke: #fc8565"/>
     <use xlink:href="#mb8f5ad0db5" x="250.751602" y="216.133382" style="fill: #fc8565; stroke: #fc8565"/>
     <use xlink:href="#mb8f5ad0db5" x="258.138012" y="216.101318" style="fill: #fc8565; stroke: #fc8565"/>
     <use xlink:href="#mb8f5ad0db5" x="265.524421" y="219.209334" style="fill: #fc8565; stroke: #fc8565"/>
     <use xlink:href="#mb8f5ad0db5" x="272.910831" y="222.182152" style="fill: #fc8565; stroke: #fc8565"/>
     <use xlink:href="#mb8f5ad0db5" x="280.297241" y="224.941213" style="fill: #fc8565; stroke: #fc8565"/>
     <use xlink:href="#mb8f5ad0db5" x="287.68365" y="227.565644" style="fill: #fc8565; stroke: #fc8565"/>
     <use xlink:href="#mb8f5ad0db5" x="295.07006" y="230.845902" style="fill: #fc8565; stroke: #fc8565"/>
     <use xlink:href="#mb8f5ad0db5" x="302.456469" y="232.557449" style="fill: #fc8565; stroke: #fc8565"/>
     <use xlink:href="#mb8f5ad0db5" x="309.842879" y="234.736189" style="fill: #fc8565; stroke: #fc8565"/>
     <use xlink:href="#mb8f5ad0db5" x="317.229288" y="236.391617" style="fill: #fc8565; stroke: #fc8565"/>
     <use xlink:href="#mb8f5ad0db5" x="324.615698" y="237.183468" style="fill: #fc8565; stroke: #fc8565"/>
     <use xlink:href="#mb8f5ad0db5" x="332.002107" y="237.88668" style="fill: #fc8565; stroke: #fc8565"/>
     <use xlink:href="#mb8f5ad0db5" x="339.388517" y="237.222417" style="fill: #fc8565; stroke: #fc8565"/>
     <use xlink:href="#mb8f5ad0db5" x="346.774927" y="235.312481" style="fill: #fc8565; stroke: #fc8565"/>
     <use xlink:href="#mb8f5ad0db5" x="354.161336" y="245.930049" style="fill: #fc8565; stroke: #fc8565"/>
     <use xlink:href="#mb8f5ad0db5" x="361.547746" y="240.846374" style="fill: #fc8565; stroke: #fc8565"/>
     <use xlink:href="#mb8f5ad0db5" x="368.934155" y="239.697381" style="fill: #fc8565; stroke: #fc8565"/>
     <use xlink:href="#mb8f5ad0db5" x="376.320565" y="239.684017" style="fill: #fc8565; stroke: #fc8565"/>
     <use xlink:href="#mb8f5ad0db5" x="383.706974" y="241.018911" style="fill: #fc8565; stroke: #fc8565"/>
     <use xlink:href="#mb8f5ad0db5" x="391.093384" y="242.675642" style="fill: #fc8565; stroke: #fc8565"/>
     <use xlink:href="#mb8f5ad0db5" x="398.479793" y="247.018034" style="fill: #fc8565; stroke: #fc8565"/>
     <use xlink:href="#mb8f5ad0db5" x="405.866203" y="246.515366" style="fill: #fc8565; stroke: #fc8565"/>
     <use xlink:href="#mb8f5ad0db5" x="413.252612" y="246.855718" style="fill: #fc8565; stroke: #fc8565"/>
     <use xlink:href="#mb8f5ad0db5" x="420.639022" y="250.124524" style="fill: #fc8565; stroke: #fc8565"/>
     <use xlink:href="#mb8f5ad0db5" x="428.025432" y="253.021102" style="fill: #fc8565; stroke: #fc8565"/>
    </g>
   </g>
   <g id="patch_3">
    <path d="M 47.81 303.64 
L 47.81 26.88 
" style="fill: none; stroke: #000000; stroke-width: 0.8; stroke-linejoin: miter; stroke-linecap: square"/>
   </g>
   <g id="patch_4">
    <path d="M 450 303.64 
L 450 26.88 
" style="fill: none; stroke: #000000; stroke-width: 0.8; stroke-linejoin: miter; stroke-linecap: square"/>
   </g>
   <g id="patch_5">
    <path d="M 47.81 303.64 
L 450 303.64 
" style="fill: none; stroke: #000000; stroke-width: 0.8; stroke-linejoin: miter; stroke-linecap: square"/>
   </g>
   <g id="patch_6">
    <path d="M 47.81 26.88 
L 450 26.88 
" style="fill: none; stroke: #000000; stroke-width: 0.8; stroke-linejoin: miter; stroke-linecap: square"/>
   </g>
   <g id="text_20">
    <!-- Loss vs. epoch for diagonal dataset -->
    <g transform="translate(142.638438 20.88)scale(0.12 -0.12)">
     <defs>
      <path id="DejaVuSans-76" d="M 191 3500 
L 800 3500 
L 1894 563 
L 2988 3500 
L 3597 3500 
L 2284 0 
L 1503 0 
L 191 3500 
z
" transform="scale(0.015625)"/>
      <path id="DejaVuSans-65" d="M 3597 1894 
L 3597 1613 
L 953 1613 
Q 991 1019 1311 708 
Q 1631 397 2203 397 
Q 2534 397 2845 478 
Q 3156 559 3463 722 
L 3463 178 
Q 3153 47 2828 -22 
Q 2503 -91 2169 -91 
Q 1331 -91 842 396 
Q 353 884 353 1716 
Q 353 2575 817 3079 
Q 1281 3584 2069 3584 
Q 2775 3584 3186 3129 
Q 3597 2675 3597 1894 
z
M 3022 2063 
Q 3016 2534 2758 2815 
Q 2500 3097 2075 3097 
Q 1594 3097 1305 2825 
Q 1016 2553 972 2059 
L 3022 2063 
z
" transform="scale(0.015625)"/>
      <path id="DejaVuSans-66" d="M 2375 4863 
L 2375 4384 
L 1825 4384 
Q 1516 4384 1395 4259 
Q 1275 4134 1275 3809 
L 1275 3500 
L 2222 3500 
L 2222 3053 
L 1275 3053 
L 1275 0 
L 697 0 
L 697 3053 
L 147 3053 
L 147 3500 
L 697 3500 
L 697 3744 
Q 697 4328 969 4595 
Q 1241 4863 1831 4863 
L 2375 4863 
z
" transform="scale(0.015625)"/>
      <path id="DejaVuSans-72" d="M 2631 2963 
Q 2534 3019 2420 3045 
Q 2306 3072 2169 3072 
Q 1681 3072 1420 2755 
Q 1159 2438 1159 1844 
L 1159 0 
L 581 0 
L 581 3500 
L 1159 3500 
L 1159 2956 
Q 1341 3275 1631 3429 
Q 1922 3584 2338 3584 
Q 2397 3584 2469 3576 
Q 2541 3569 2628 3553 
L 2631 2963 
z
" transform="scale(0.015625)"/>
      <path id="DejaVuSans-64" d="M 2906 2969 
L 2906 4863 
L 3481 4863 
L 3481 0 
L 2906 0 
L 2906 525 
Q 2725 213 2448 61 
Q 2172 -91 1784 -91 
Q 1150 -91 751 415 
Q 353 922 353 1747 
Q 353 2572 751 3078 
Q 1150 3584 1784 3584 
Q 2172 3584 2448 3432 
Q 2725 3281 2906 2969 
z
M 947 1747 
Q 947 1113 1208 752 
Q 1469 391 1925 391 
Q 2381 391 2643 752 
Q 2906 1113 2906 1747 
Q 2906 2381 2643 2742 
Q 2381 3103 1925 3103 
Q 1469 3103 1208 2742 
Q 947 2381 947 1747 
z
" transform="scale(0.015625)"/>
      <path id="DejaVuSans-69" d="M 603 3500 
L 1178 3500 
L 1178 0 
L 603 0 
L 603 3500 
z
M 603 4863 
L 1178 4863 
L 1178 4134 
L 603 4134 
L 603 4863 
z
" transform="scale(0.015625)"/>
      <path id="DejaVuSans-61" d="M 2194 1759 
Q 1497 1759 1228 1600 
Q 959 1441 959 1056 
Q 959 750 1161 570 
Q 1363 391 1709 391 
Q 2188 391 2477 730 
Q 2766 1069 2766 1631 
L 2766 1759 
L 2194 1759 
z
M 3341 1997 
L 3341 0 
L 2766 0 
L 2766 531 
Q 2569 213 2275 61 
Q 1981 -91 1556 -91 
Q 1019 -91 701 211 
Q 384 513 384 1019 
Q 384 1609 779 1909 
Q 1175 2209 1959 2209 
L 2766 2209 
L 2766 2266 
Q 2766 2663 2505 2880 
Q 2244 3097 1772 3097 
Q 1472 3097 1187 3025 
Q 903 2953 641 2809 
L 641 3341 
Q 956 3463 1253 3523 
Q 1550 3584 1831 3584 
Q 2591 3584 2966 3190 
Q 3341 2797 3341 1997 
z
" transform="scale(0.015625)"/>
      <path id="DejaVuSans-67" d="M 2906 1791 
Q 2906 2416 2648 2759 
Q 2391 3103 1925 3103 
Q 1463 3103 1205 2759 
Q 947 2416 947 1791 
Q 947 1169 1205 825 
Q 1463 481 1925 481 
Q 2391 481 2648 825 
Q 2906 1169 2906 1791 
z
M 3481 434 
Q 3481 -459 3084 -895 
Q 2688 -1331 1869 -1331 
Q 1566 -1331 1297 -1286 
Q 1028 -1241 775 -1147 
L 775 -588 
Q 1028 -725 1275 -790 
Q 1522 -856 1778 -856 
Q 2344 -856 2625 -561 
Q 2906 -266 2906 331 
L 2906 616 
Q 2728 306 2450 153 
Q 2172 0 1784 0 
Q 1141 0 747 490 
Q 353 981 353 1791 
Q 353 2603 747 3093 
Q 1141 3584 1784 3584 
Q 2172 3584 2450 3431 
Q 2728 3278 2906 2969 
L 2906 3500 
L 3481 3500 
L 3481 434 
z
" transform="scale(0.015625)"/>
      <path id="DejaVuSans-6e" d="M 3513 2113 
L 3513 0 
L 2938 0 
L 2938 2094 
Q 2938 2591 2744 2837 
Q 2550 3084 2163 3084 
Q 1697 3084 1428 2787 
Q 1159 2491 1159 1978 
L 1159 0 
L 581 0 
L 581 3500 
L 1159 3500 
L 1159 2956 
Q 1366 3272 1645 3428 
Q 1925 3584 2291 3584 
Q 2894 3584 3203 3211 
Q 3513 2838 3513 2113 
z
" transform="scale(0.015625)"/>
      <path id="DejaVuSans-6c" d="M 603 4863 
L 1178 4863 
L 1178 0 
L 603 0 
L 603 4863 
z
" transform="scale(0.015625)"/>
      <path id="DejaVuSans-74" d="M 1172 4494 
L 1172 3500 
L 2356 3500 
L 2356 3053 
L 1172 3053 
L 1172 1153 
Q 1172 725 1289 603 
Q 1406 481 1766 481 
L 2356 481 
L 2356 0 
L 1766 0 
Q 1100 0 847 248 
Q 594 497 594 1153 
L 594 3053 
L 172 3053 
L 172 3500 
L 594 3500 
L 594 4494 
L 1172 4494 
z
" transform="scale(0.015625)"/>
     </defs>
     <use xlink:href="#DejaVuSans-4c"/>
     <use xlink:href="#DejaVuSans-6f" x="53.962891"/>
     <use xlink:href="#DejaVuSans-73" x="115.144531"/>
     <use xlink:href="#DejaVuSans-73" x="167.244141"/>
     <use xlink:href="#DejaVuSans-20" x="219.34375"/>
     <use xlink:href="#DejaVuSans-76" x="251.130859"/>
     <use xlink:href="#DejaVuSans-73" x="310.310547"/>
     <use xlink:href="#DejaVuSans-2e" x="362.410156"/>
     <use xlink:href="#DejaVuSans-20" x="394.197266"/>
     <use xlink:href="#DejaVuSans-65" x="425.984375"/>
     <use xlink:href="#DejaVuSans-70" x="487.507812"/>
     <use xlink:href="#DejaVuSans-6f" x="550.984375"/>
     <use xlink:href="#DejaVuSans-63" x="612.166016"/>
     <use xlink:href="#DejaVuSans-68" x="667.146484"/>
     <use xlink:href="#DejaVuSans-20" x="730.525391"/>
     <use xlink:href="#DejaVuSans-66" x="762.3125"/>
     <use xlink:href="#DejaVuSans-6f" x="797.517578"/>
     <use xlink:href="#DejaVuSans-72" x="858.699219"/>
     <use xlink:href="#DejaVuSans-20" x="899.8125"/>
     <use xlink:href="#DejaVuSans-64" x="931.599609"/>
     <use xlink:href="#DejaVuSans-69" x="995.076172"/>
     <use xlink:href="#DejaVuSans-61" x="1022.859375"/>
     <use xlink:href="#DejaVuSans-67" x="1084.138672"/>
     <use xlink:href="#DejaVuSans-6f" x="1147.615234"/>
     <use xlink:href="#DejaVuSans-6e" x="1208.796875"/>
     <use xlink:href="#DejaVuSans-61" x="1272.175781"/>
     <use xlink:href="#DejaVuSans-6c" x="1333.455078"/>
     <use xlink:href="#DejaVuSans-20" x="1361.238281"/>
     <use xlink:href="#DejaVuSans-64" x="1393.025391"/>
     <use xlink:href="#DejaVuSans-61" x="1456.501953"/>
     <use xlink:href="#DejaVuSans-74" x="1517.78125"/>
     <use xlink:href="#DejaVuSans-61" x="1556.990234"/>
     <use xlink:href="#DejaVuSans-73" x="1618.269531"/>
     <use xlink:href="#DejaVuSans-65" x="1670.369141"/>
     <use xlink:href="#DejaVuSans-74" x="1731.892578"/>
    </g>
   </g>
   <g id="legend_1">
    <g id="patch_7">
     <path d="M 366.682813 49.558125 
L 443 49.558125 
Q 445 49.558125 445 47.558125 
L 445 33.88 
Q 445 31.88 443 31.88 
L 366.682813 31.88 
Q 364.682813 31.88 364.682813 33.88 
L 364.682813 47.558125 
Q 364.682813 49.558125 366.682813 49.558125 
z
" style="fill: #ffffff; opacity: 0.8; stroke: #cccccc; stroke-linejoin: miter"/>
    </g>
    <g id="line2d_36">
     <path d="M 368.682813 39.978437 
L 378.682813 39.978437 
L 388.682813 39.978437 
" style="fill: none; stroke: #fc8565; stroke-width: 2; stroke-linecap: square"/>
     <g>
      <use xlink:href="#mb8f5ad0db5" x="378.682813" y="39.978437" style="fill: #fc8565; stroke: #fc8565"/>
     </g>
    </g>
    <g id="text_21">
     <!-- Diagonal -->
     <g transform="translate(396.682813 43.478437)scale(0.1 -0.1)">
      <defs>
       <path id="DejaVuSans-44" d="M 1259 4147 
L 1259 519 
L 2022 519 
Q 2988 519 3436 956 
Q 3884 1394 3884 2338 
Q 3884 3275 3436 3711 
Q 2988 4147 2022 4147 
L 1259 4147 
z
M 628 4666 
L 1925 4666 
Q 3281 4666 3915 4102 
Q 4550 3538 4550 2338 
Q 4550 1131 3912 565 
Q 3275 0 1925 0 
L 628 0 
L 628 4666 
z
" transform="scale(0.015625)"/>
      </defs>
      <use xlink:href="#DejaVuSans-44"/>
      <use xlink:href="#DejaVuSans-69" x="77.001953"/>
      <use xlink:href="#DejaVuSans-61" x="104.785156"/>
      <use xlink:href="#DejaVuSans-67" x="166.064453"/>
      <use xlink:href="#DejaVuSans-6f" x="229.541016"/>
      <use xlink:href="#DejaVuSans-6e" x="290.722656"/>
      <use xlink:href="#DejaVuSans-61" x="354.101562"/>
      <use xlink:href="#DejaVuSans-6c" x="415.380859"/>
     </g>
    </g>
   </g>
  </g>
 </g>
 <defs>
  <clipPath id="p84d0e70913">
   <rect x="47.81" y="26.88" width="402.19" height="276.76"/>
  </clipPath>
 </defs>
</svg>
