<?xml version="1.0" encoding="utf-8" standalone="no"?>
<!DOCTYPE svg PUBLIC "-//W3C//DTD SVG 1.1//EN"
  "http://www.w3.org/Graphics/SVG/1.1/DTD/svg11.dtd">
<svg xmlns:xlink="http://www.w3.org/1999/xlink" width="460.8pt" height="345.6pt" viewBox="0 0 460.8 345.6" xmlns="http://www.w3.org/2000/svg" version="1.1">
 <metadata>
  <rdf:RDF xmlns:dc="http://purl.org/dc/elements/1.1/" xmlns:cc="http://creativecommons.org/ns#" xmlns:rdf="http://www.w3.org/1999/02/22-rdf-syntax-ns#">
   <cc:Work>
    <dc:type rdf:resource="http://purl.org/dc/dcmitype/StillImage"/>
    <dc:date>2022-12-16T11:29:46.151249</dc:date>
    <dc:format>image/svg+xml</dc:format>
    <dc:creator>
     <cc:Agent>
      <dc:title>Matplotlib v3.5.1, https://matplotlib.org/</dc:title>
     </cc:Agent>
    </dc:creator>
   </cc:Work>
  </rdf:RDF>
 </metadata>
 <defs>
  <style type="text/css">*{stroke-linejoin: round; stroke-linecap: butt}</style>
 </defs>
 <g id="figure_1">
  <g id="patch_1">
   <path d="M 0 345.6 
L 460.8 345.6 
L 460.8 0 
L 0 0 
z
" style="fill: #ffffff"/>
  </g>
  <g id="axes_1">
   <g id="patch_2">
    <path d="M 47.81 303.64 
L 450 303.64 
L 450 26.88 
L 47.81 26.88 
z
" style="fill: #ffffff"/>
   </g>
   <g id="PolyCollection_1">
    <defs>
     <path id="m5aee8c4f39" d="M 66.091364 -294.582021 
L 66.091364 -222.300554 
L 69.784568 -213.025563 
L 73.477773 -212.173792 
L 77.170978 -209.626522 
L 80.864183 -206.061869 
L 84.557388 -205.069678 
L 88.250592 -204.236734 
L 91.943797 -203.360609 
L 95.637002 -201.705684 
L 99.330207 -200.964794 
L 103.023411 -199.648609 
L 106.716616 -198.846812 
L 110.409821 -198.109338 
L 114.103026 -197.424622 
L 117.79623 -196.768942 
L 121.489435 -196.108011 
L 125.18264 -195.44395 
L 128.875845 -194.589095 
L 132.56905 -193.438452 
L 136.262254 -192.482034 
L 139.955459 -191.225029 
L 143.648664 -189.738256 
L 147.341869 -188.541788 
L 151.035073 -187.832712 
L 154.728278 -186.982581 
L 158.421483 -186.154326 
L 162.114688 -184.568845 
L 165.807893 -184.488511 
L 169.501097 -183.74113 
L 173.194302 -182.835586 
L 176.887507 -183.057846 
L 180.580712 -181.181 
L 184.273916 -181.546349 
L 187.967121 -179.508533 
L 191.660326 -181.919795 
L 195.353531 -181.732832 
L 199.046736 -180.042399 
L 202.73994 -179.258556 
L 206.433145 -177.997071 
L 210.12635 -176.73098 
L 213.819555 -175.43241 
L 217.512759 -172.270414 
L 221.205964 -172.689058 
L 224.899169 -170.328759 
L 228.592374 -169.80879 
L 232.285579 -167.5931 
L 235.978783 -167.354462 
L 239.671988 -165.062792 
L 243.365193 -165.325265 
L 247.058398 -161.953006 
L 250.751602 -163.346597 
L 254.444807 -159.464467 
L 258.138012 -160.860839 
L 261.831217 -156.846912 
L 265.524421 -158.120722 
L 269.217626 -157.40629 
L 272.910831 -156.021267 
L 276.604036 -154.725532 
L 280.297241 -155.167277 
L 283.990445 -153.077766 
L 287.68365 -151.588672 
L 291.376855 -153.935639 
L 295.07006 -156.428953 
L 298.763264 -151.422848 
L 302.456469 -151.521359 
L 306.149674 -148.675525 
L 309.842879 -148.315865 
L 313.536084 -147.239331 
L 317.229288 -151.076653 
L 320.922493 -152.403562 
L 324.615698 -154.25411 
L 328.308903 -151.33868 
L 332.002107 -153.018119 
L 335.695312 -149.184229 
L 339.388517 -149.683189 
L 343.081722 -148.301051 
L 346.774927 -150.231331 
L 350.468131 -147.253181 
L 354.161336 -149.236882 
L 357.854541 -146.749366 
L 361.547746 -146.438672 
L 365.24095 -145.330894 
L 368.934155 -144.629573 
L 372.62736 -143.421786 
L 376.320565 -136.047935 
L 380.01377 -136.933641 
L 383.706974 -135.213963 
L 387.400179 -137.19832 
L 391.093384 -133.634536 
L 394.786589 -138.173938 
L 398.479793 -137.336869 
L 402.172998 -135.728671 
L 405.866203 -136.02384 
L 409.559408 -138.793929 
L 413.252612 -134.431789 
L 416.945817 -137.279061 
L 420.639022 -132.513622 
L 424.332227 -132.898529 
L 428.025432 -129.312987 
L 431.718636 -130.151624 
L 431.718636 -150.450939 
L 431.718636 -150.450939 
L 428.025432 -151.914757 
L 424.332227 -153.386451 
L 420.639022 -152.306545 
L 416.945817 -155.331838 
L 413.252612 -156.123984 
L 409.559408 -160.812417 
L 405.866203 -154.732254 
L 402.172998 -160.288331 
L 398.479793 -155.347263 
L 394.786589 -159.120256 
L 391.093384 -156.028499 
L 387.400179 -160.899803 
L 383.706974 -155.292486 
L 380.01377 -155.22416 
L 376.320565 -154.783877 
L 372.62736 -157.064465 
L 368.934155 -156.467459 
L 365.24095 -157.821723 
L 361.547746 -161.16263 
L 357.854541 -162.985919 
L 354.161336 -164.872322 
L 350.468131 -166.563271 
L 346.774927 -161.51491 
L 343.081722 -165.726266 
L 339.388517 -163.903057 
L 335.695312 -166.749851 
L 332.002107 -166.022204 
L 328.308903 -170.388092 
L 324.615698 -167.762947 
L 320.922493 -172.238953 
L 317.229288 -169.55237 
L 313.536084 -172.267827 
L 309.842879 -170.187771 
L 306.149674 -175.037557 
L 302.456469 -175.907052 
L 298.763264 -176.181327 
L 295.07006 -173.474496 
L 291.376855 -179.770593 
L 287.68365 -176.091891 
L 283.990445 -176.969658 
L 280.297241 -175.745162 
L 276.604036 -173.918756 
L 272.910831 -177.344615 
L 269.217626 -180.719398 
L 265.524421 -181.030785 
L 261.831217 -182.629134 
L 258.138012 -183.493871 
L 254.444807 -184.395194 
L 250.751602 -185.295403 
L 247.058398 -185.066225 
L 243.365193 -183.890803 
L 239.671988 -187.172907 
L 235.978783 -182.391344 
L 232.285579 -185.166196 
L 228.592374 -186.187735 
L 224.899169 -184.570482 
L 221.205964 -184.556062 
L 217.512759 -184.049612 
L 213.819555 -187.442309 
L 210.12635 -188.727346 
L 206.433145 -194.981304 
L 202.73994 -191.087455 
L 199.046736 -192.25507 
L 195.353531 -192.272539 
L 191.660326 -192.276331 
L 187.967121 -192.186832 
L 184.273916 -195.938612 
L 180.580712 -196.659067 
L 176.887507 -197.479121 
L 173.194302 -199.11747 
L 169.501097 -200.092214 
L 165.807893 -201.029753 
L 162.114688 -201.948171 
L 158.421483 -202.835663 
L 154.728278 -203.6868 
L 151.035073 -204.249772 
L 147.341869 -204.733265 
L 143.648664 -205.261067 
L 139.955459 -205.776384 
L 136.262254 -206.443567 
L 132.56905 -207.025013 
L 128.875845 -207.523606 
L 125.18264 -208.530071 
L 121.489435 -208.986134 
L 117.79623 -209.392388 
L 114.103026 -209.806796 
L 110.409821 -209.84206 
L 106.716616 -210.59763 
L 103.023411 -210.745833 
L 99.330207 -210.905197 
L 95.637002 -211.335072 
L 91.943797 -211.871063 
L 88.250592 -212.706101 
L 84.557388 -213.802486 
L 80.864183 -215.446812 
L 77.170978 -216.984445 
L 73.477773 -219.392985 
L 69.784568 -225.881134 
L 66.091364 -294.582021 
z
" style="stroke: #ca181d; stroke-opacity: 0.3"/>
    </defs>
    <g clip-path="url(#p9866387ff8)">
     <use xlink:href="#m5aee8c4f39" x="0" y="345.6" style="fill: #ca181d; fill-opacity: 0.3; stroke: #ca181d; stroke-opacity: 0.3"/>
    </g>
   </g>
   <g id="matplotlib.axis_1">
    <g id="xtick_1">
     <g id="line2d_1">
      <path d="M 62.398159 303.64 
L 62.398159 26.88 
" clip-path="url(#p9866387ff8)" style="fill: none; stroke-dasharray: 2.96,1.28; stroke-dashoffset: 0; stroke: #b0b0b0; stroke-width: 0.8"/>
     </g>
     <g id="line2d_2">
      <defs>
       <path id="me5d4ddf87d" d="M 0 0 
L 0 3.5 
" style="stroke: #000000; stroke-width: 0.8"/>
      </defs>
      <g>
       <use xlink:href="#me5d4ddf87d" x="62.398159" y="303.64" style="stroke: #000000; stroke-width: 0.8"/>
      </g>
     </g>
     <g id="text_1">
      <!-- 0 -->
      <g transform="translate(59.216909 318.238437)scale(0.1 -0.1)">
       <defs>
        <path id="DejaVuSans-30" d="M 2034 4250 
Q 1547 4250 1301 3770 
Q 1056 3291 1056 2328 
Q 1056 1369 1301 889 
Q 1547 409 2034 409 
Q 2525 409 2770 889 
Q 3016 1369 3016 2328 
Q 3016 3291 2770 3770 
Q 2525 4250 2034 4250 
z
M 2034 4750 
Q 2819 4750 3233 4129 
Q 3647 3509 3647 2328 
Q 3647 1150 3233 529 
Q 2819 -91 2034 -91 
Q 1250 -91 836 529 
Q 422 1150 422 2328 
Q 422 3509 836 4129 
Q 1250 4750 2034 4750 
z
" transform="scale(0.015625)"/>
       </defs>
       <use xlink:href="#DejaVuSans-30"/>
      </g>
     </g>
    </g>
    <g id="xtick_2">
     <g id="line2d_3">
      <path d="M 136.262254 303.64 
L 136.262254 26.88 
" clip-path="url(#p9866387ff8)" style="fill: none; stroke-dasharray: 2.96,1.28; stroke-dashoffset: 0; stroke: #b0b0b0; stroke-width: 0.8"/>
     </g>
     <g id="line2d_4">
      <g>
       <use xlink:href="#me5d4ddf87d" x="136.262254" y="303.64" style="stroke: #000000; stroke-width: 0.8"/>
      </g>
     </g>
     <g id="text_2">
      <!-- 20 -->
      <g transform="translate(129.899754 318.238437)scale(0.1 -0.1)">
       <defs>
        <path id="DejaVuSans-32" d="M 1228 531 
L 3431 531 
L 3431 0 
L 469 0 
L 469 531 
Q 828 903 1448 1529 
Q 2069 2156 2228 2338 
Q 2531 2678 2651 2914 
Q 2772 3150 2772 3378 
Q 2772 3750 2511 3984 
Q 2250 4219 1831 4219 
Q 1534 4219 1204 4116 
Q 875 4013 500 3803 
L 500 4441 
Q 881 4594 1212 4672 
Q 1544 4750 1819 4750 
Q 2544 4750 2975 4387 
Q 3406 4025 3406 3419 
Q 3406 3131 3298 2873 
Q 3191 2616 2906 2266 
Q 2828 2175 2409 1742 
Q 1991 1309 1228 531 
z
" transform="scale(0.015625)"/>
       </defs>
       <use xlink:href="#DejaVuSans-32"/>
       <use xlink:href="#DejaVuSans-30" x="63.623047"/>
      </g>
     </g>
    </g>
    <g id="xtick_3">
     <g id="line2d_5">
      <path d="M 210.12635 303.64 
L 210.12635 26.88 
" clip-path="url(#p9866387ff8)" style="fill: none; stroke-dasharray: 2.96,1.28; stroke-dashoffset: 0; stroke: #b0b0b0; stroke-width: 0.8"/>
     </g>
     <g id="line2d_6">
      <g>
       <use xlink:href="#me5d4ddf87d" x="210.12635" y="303.64" style="stroke: #000000; stroke-width: 0.8"/>
      </g>
     </g>
     <g id="text_3">
      <!-- 40 -->
      <g transform="translate(203.76385 318.238437)scale(0.1 -0.1)">
       <defs>
        <path id="DejaVuSans-34" d="M 2419 4116 
L 825 1625 
L 2419 1625 
L 2419 4116 
z
M 2253 4666 
L 3047 4666 
L 3047 1625 
L 3713 1625 
L 3713 1100 
L 3047 1100 
L 3047 0 
L 2419 0 
L 2419 1100 
L 313 1100 
L 313 1709 
L 2253 4666 
z
" transform="scale(0.015625)"/>
       </defs>
       <use xlink:href="#DejaVuSans-34"/>
       <use xlink:href="#DejaVuSans-30" x="63.623047"/>
      </g>
     </g>
    </g>
    <g id="xtick_4">
     <g id="line2d_7">
      <path d="M 283.990445 303.64 
L 283.990445 26.88 
" clip-path="url(#p9866387ff8)" style="fill: none; stroke-dasharray: 2.96,1.28; stroke-dashoffset: 0; stroke: #b0b0b0; stroke-width: 0.8"/>
     </g>
     <g id="line2d_8">
      <g>
       <use xlink:href="#me5d4ddf87d" x="283.990445" y="303.64" style="stroke: #000000; stroke-width: 0.8"/>
      </g>
     </g>
     <g id="text_4">
      <!-- 60 -->
      <g transform="translate(277.627945 318.238437)scale(0.1 -0.1)">
       <defs>
        <path id="DejaVuSans-36" d="M 2113 2584 
Q 1688 2584 1439 2293 
Q 1191 2003 1191 1497 
Q 1191 994 1439 701 
Q 1688 409 2113 409 
Q 2538 409 2786 701 
Q 3034 994 3034 1497 
Q 3034 2003 2786 2293 
Q 2538 2584 2113 2584 
z
M 3366 4563 
L 3366 3988 
Q 3128 4100 2886 4159 
Q 2644 4219 2406 4219 
Q 1781 4219 1451 3797 
Q 1122 3375 1075 2522 
Q 1259 2794 1537 2939 
Q 1816 3084 2150 3084 
Q 2853 3084 3261 2657 
Q 3669 2231 3669 1497 
Q 3669 778 3244 343 
Q 2819 -91 2113 -91 
Q 1303 -91 875 529 
Q 447 1150 447 2328 
Q 447 3434 972 4092 
Q 1497 4750 2381 4750 
Q 2619 4750 2861 4703 
Q 3103 4656 3366 4563 
z
" transform="scale(0.015625)"/>
       </defs>
       <use xlink:href="#DejaVuSans-36"/>
       <use xlink:href="#DejaVuSans-30" x="63.623047"/>
      </g>
     </g>
    </g>
    <g id="xtick_5">
     <g id="line2d_9">
      <path d="M 357.854541 303.64 
L 357.854541 26.88 
" clip-path="url(#p9866387ff8)" style="fill: none; stroke-dasharray: 2.96,1.28; stroke-dashoffset: 0; stroke: #b0b0b0; stroke-width: 0.8"/>
     </g>
     <g id="line2d_10">
      <g>
       <use xlink:href="#me5d4ddf87d" x="357.854541" y="303.64" style="stroke: #000000; stroke-width: 0.8"/>
      </g>
     </g>
     <g id="text_5">
      <!-- 80 -->
      <g transform="translate(351.492041 318.238437)scale(0.1 -0.1)">
       <defs>
        <path id="DejaVuSans-38" d="M 2034 2216 
Q 1584 2216 1326 1975 
Q 1069 1734 1069 1313 
Q 1069 891 1326 650 
Q 1584 409 2034 409 
Q 2484 409 2743 651 
Q 3003 894 3003 1313 
Q 3003 1734 2745 1975 
Q 2488 2216 2034 2216 
z
M 1403 2484 
Q 997 2584 770 2862 
Q 544 3141 544 3541 
Q 544 4100 942 4425 
Q 1341 4750 2034 4750 
Q 2731 4750 3128 4425 
Q 3525 4100 3525 3541 
Q 3525 3141 3298 2862 
Q 3072 2584 2669 2484 
Q 3125 2378 3379 2068 
Q 3634 1759 3634 1313 
Q 3634 634 3220 271 
Q 2806 -91 2034 -91 
Q 1263 -91 848 271 
Q 434 634 434 1313 
Q 434 1759 690 2068 
Q 947 2378 1403 2484 
z
M 1172 3481 
Q 1172 3119 1398 2916 
Q 1625 2713 2034 2713 
Q 2441 2713 2670 2916 
Q 2900 3119 2900 3481 
Q 2900 3844 2670 4047 
Q 2441 4250 2034 4250 
Q 1625 4250 1398 4047 
Q 1172 3844 1172 3481 
z
" transform="scale(0.015625)"/>
       </defs>
       <use xlink:href="#DejaVuSans-38"/>
       <use xlink:href="#DejaVuSans-30" x="63.623047"/>
      </g>
     </g>
    </g>
    <g id="xtick_6">
     <g id="line2d_11">
      <path d="M 431.718636 303.64 
L 431.718636 26.88 
" clip-path="url(#p9866387ff8)" style="fill: none; stroke-dasharray: 2.96,1.28; stroke-dashoffset: 0; stroke: #b0b0b0; stroke-width: 0.8"/>
     </g>
     <g id="line2d_12">
      <g>
       <use xlink:href="#me5d4ddf87d" x="431.718636" y="303.64" style="stroke: #000000; stroke-width: 0.8"/>
      </g>
     </g>
     <g id="text_6">
      <!-- 100 -->
      <g transform="translate(422.174886 318.238437)scale(0.1 -0.1)">
       <defs>
        <path id="DejaVuSans-31" d="M 794 531 
L 1825 531 
L 1825 4091 
L 703 3866 
L 703 4441 
L 1819 4666 
L 2450 4666 
L 2450 531 
L 3481 531 
L 3481 0 
L 794 0 
L 794 531 
z
" transform="scale(0.015625)"/>
       </defs>
       <use xlink:href="#DejaVuSans-31"/>
       <use xlink:href="#DejaVuSans-30" x="63.623047"/>
       <use xlink:href="#DejaVuSans-30" x="127.246094"/>
      </g>
     </g>
    </g>
    <g id="text_7">
     <!-- Epoch -->
     <g transform="translate(233.594063 331.916562)scale(0.1 -0.1)">
      <defs>
       <path id="DejaVuSans-45" d="M 628 4666 
L 3578 4666 
L 3578 4134 
L 1259 4134 
L 1259 2753 
L 3481 2753 
L 3481 2222 
L 1259 2222 
L 1259 531 
L 3634 531 
L 3634 0 
L 628 0 
L 628 4666 
z
" transform="scale(0.015625)"/>
       <path id="DejaVuSans-70" d="M 1159 525 
L 1159 -1331 
L 581 -1331 
L 581 3500 
L 1159 3500 
L 1159 2969 
Q 1341 3281 1617 3432 
Q 1894 3584 2278 3584 
Q 2916 3584 3314 3078 
Q 3713 2572 3713 1747 
Q 3713 922 3314 415 
Q 2916 -91 2278 -91 
Q 1894 -91 1617 61 
Q 1341 213 1159 525 
z
M 3116 1747 
Q 3116 2381 2855 2742 
Q 2594 3103 2138 3103 
Q 1681 3103 1420 2742 
Q 1159 2381 1159 1747 
Q 1159 1113 1420 752 
Q 1681 391 2138 391 
Q 2594 391 2855 752 
Q 3116 1113 3116 1747 
z
" transform="scale(0.015625)"/>
       <path id="DejaVuSans-6f" d="M 1959 3097 
Q 1497 3097 1228 2736 
Q 959 2375 959 1747 
Q 959 1119 1226 758 
Q 1494 397 1959 397 
Q 2419 397 2687 759 
Q 2956 1122 2956 1747 
Q 2956 2369 2687 2733 
Q 2419 3097 1959 3097 
z
M 1959 3584 
Q 2709 3584 3137 3096 
Q 3566 2609 3566 1747 
Q 3566 888 3137 398 
Q 2709 -91 1959 -91 
Q 1206 -91 779 398 
Q 353 888 353 1747 
Q 353 2609 779 3096 
Q 1206 3584 1959 3584 
z
" transform="scale(0.015625)"/>
       <path id="DejaVuSans-63" d="M 3122 3366 
L 3122 2828 
Q 2878 2963 2633 3030 
Q 2388 3097 2138 3097 
Q 1578 3097 1268 2742 
Q 959 2388 959 1747 
Q 959 1106 1268 751 
Q 1578 397 2138 397 
Q 2388 397 2633 464 
Q 2878 531 3122 666 
L 3122 134 
Q 2881 22 2623 -34 
Q 2366 -91 2075 -91 
Q 1284 -91 818 406 
Q 353 903 353 1747 
Q 353 2603 823 3093 
Q 1294 3584 2113 3584 
Q 2378 3584 2631 3529 
Q 2884 3475 3122 3366 
z
" transform="scale(0.015625)"/>
       <path id="DejaVuSans-68" d="M 3513 2113 
L 3513 0 
L 2938 0 
L 2938 2094 
Q 2938 2591 2744 2837 
Q 2550 3084 2163 3084 
Q 1697 3084 1428 2787 
Q 1159 2491 1159 1978 
L 1159 0 
L 581 0 
L 581 4863 
L 1159 4863 
L 1159 2956 
Q 1366 3272 1645 3428 
Q 1925 3584 2291 3584 
Q 2894 3584 3203 3211 
Q 3513 2838 3513 2113 
z
" transform="scale(0.015625)"/>
      </defs>
      <use xlink:href="#DejaVuSans-45"/>
      <use xlink:href="#DejaVuSans-70" x="63.183594"/>
      <use xlink:href="#DejaVuSans-6f" x="126.660156"/>
      <use xlink:href="#DejaVuSans-63" x="187.841797"/>
      <use xlink:href="#DejaVuSans-68" x="242.822266"/>
     </g>
    </g>
   </g>
   <g id="matplotlib.axis_2">
    <g id="ytick_1">
     <g id="line2d_13">
      <path d="M 47.81 278.48 
L 450 278.48 
" clip-path="url(#p9866387ff8)" style="fill: none; stroke-dasharray: 2.96,1.28; stroke-dashoffset: 0; stroke: #b0b0b0; stroke-width: 0.8"/>
     </g>
     <g id="line2d_14">
      <defs>
       <path id="m731ea8a868" d="M 0 0 
L -3.5 0 
" style="stroke: #000000; stroke-width: 0.8"/>
      </defs>
      <g>
       <use xlink:href="#m731ea8a868" x="47.81" y="278.48" style="stroke: #000000; stroke-width: 0.8"/>
      </g>
     </g>
     <g id="text_8">
      <!-- 0.1 -->
      <g transform="translate(24.906875 282.279219)scale(0.1 -0.1)">
       <defs>
        <path id="DejaVuSans-2e" d="M 684 794 
L 1344 794 
L 1344 0 
L 684 0 
L 684 794 
z
" transform="scale(0.015625)"/>
       </defs>
       <use xlink:href="#DejaVuSans-30"/>
       <use xlink:href="#DejaVuSans-2e" x="63.623047"/>
       <use xlink:href="#DejaVuSans-31" x="95.410156"/>
      </g>
     </g>
    </g>
    <g id="ytick_2">
     <g id="line2d_15">
      <path d="M 47.81 253.32 
L 450 253.32 
" clip-path="url(#p9866387ff8)" style="fill: none; stroke-dasharray: 2.96,1.28; stroke-dashoffset: 0; stroke: #b0b0b0; stroke-width: 0.8"/>
     </g>
     <g id="line2d_16">
      <g>
       <use xlink:href="#m731ea8a868" x="47.81" y="253.32" style="stroke: #000000; stroke-width: 0.8"/>
      </g>
     </g>
     <g id="text_9">
      <!-- 0.2 -->
      <g transform="translate(24.906875 257.119219)scale(0.1 -0.1)">
       <use xlink:href="#DejaVuSans-30"/>
       <use xlink:href="#DejaVuSans-2e" x="63.623047"/>
       <use xlink:href="#DejaVuSans-32" x="95.410156"/>
      </g>
     </g>
    </g>
    <g id="ytick_3">
     <g id="line2d_17">
      <path d="M 47.81 228.16 
L 450 228.16 
" clip-path="url(#p9866387ff8)" style="fill: none; stroke-dasharray: 2.96,1.28; stroke-dashoffset: 0; stroke: #b0b0b0; stroke-width: 0.8"/>
     </g>
     <g id="line2d_18">
      <g>
       <use xlink:href="#m731ea8a868" x="47.81" y="228.16" style="stroke: #000000; stroke-width: 0.8"/>
      </g>
     </g>
     <g id="text_10">
      <!-- 0.3 -->
      <g transform="translate(24.906875 231.959219)scale(0.1 -0.1)">
       <defs>
        <path id="DejaVuSans-33" d="M 2597 2516 
Q 3050 2419 3304 2112 
Q 3559 1806 3559 1356 
Q 3559 666 3084 287 
Q 2609 -91 1734 -91 
Q 1441 -91 1130 -33 
Q 819 25 488 141 
L 488 750 
Q 750 597 1062 519 
Q 1375 441 1716 441 
Q 2309 441 2620 675 
Q 2931 909 2931 1356 
Q 2931 1769 2642 2001 
Q 2353 2234 1838 2234 
L 1294 2234 
L 1294 2753 
L 1863 2753 
Q 2328 2753 2575 2939 
Q 2822 3125 2822 3475 
Q 2822 3834 2567 4026 
Q 2313 4219 1838 4219 
Q 1578 4219 1281 4162 
Q 984 4106 628 3988 
L 628 4550 
Q 988 4650 1302 4700 
Q 1616 4750 1894 4750 
Q 2613 4750 3031 4423 
Q 3450 4097 3450 3541 
Q 3450 3153 3228 2886 
Q 3006 2619 2597 2516 
z
" transform="scale(0.015625)"/>
       </defs>
       <use xlink:href="#DejaVuSans-30"/>
       <use xlink:href="#DejaVuSans-2e" x="63.623047"/>
       <use xlink:href="#DejaVuSans-33" x="95.410156"/>
      </g>
     </g>
    </g>
    <g id="ytick_4">
     <g id="line2d_19">
      <path d="M 47.81 203 
L 450 203 
" clip-path="url(#p9866387ff8)" style="fill: none; stroke-dasharray: 2.96,1.28; stroke-dashoffset: 0; stroke: #b0b0b0; stroke-width: 0.8"/>
     </g>
     <g id="line2d_20">
      <g>
       <use xlink:href="#m731ea8a868" x="47.81" y="203" style="stroke: #000000; stroke-width: 0.8"/>
      </g>
     </g>
     <g id="text_11">
      <!-- 0.4 -->
      <g transform="translate(24.906875 206.799219)scale(0.1 -0.1)">
       <use xlink:href="#DejaVuSans-30"/>
       <use xlink:href="#DejaVuSans-2e" x="63.623047"/>
       <use xlink:href="#DejaVuSans-34" x="95.410156"/>
      </g>
     </g>
    </g>
    <g id="ytick_5">
     <g id="line2d_21">
      <path d="M 47.81 177.84 
L 450 177.84 
" clip-path="url(#p9866387ff8)" style="fill: none; stroke-dasharray: 2.96,1.28; stroke-dashoffset: 0; stroke: #b0b0b0; stroke-width: 0.8"/>
     </g>
     <g id="line2d_22">
      <g>
       <use xlink:href="#m731ea8a868" x="47.81" y="177.84" style="stroke: #000000; stroke-width: 0.8"/>
      </g>
     </g>
     <g id="text_12">
      <!-- 0.5 -->
      <g transform="translate(24.906875 181.639219)scale(0.1 -0.1)">
       <defs>
        <path id="DejaVuSans-35" d="M 691 4666 
L 3169 4666 
L 3169 4134 
L 1269 4134 
L 1269 2991 
Q 1406 3038 1543 3061 
Q 1681 3084 1819 3084 
Q 2600 3084 3056 2656 
Q 3513 2228 3513 1497 
Q 3513 744 3044 326 
Q 2575 -91 1722 -91 
Q 1428 -91 1123 -41 
Q 819 9 494 109 
L 494 744 
Q 775 591 1075 516 
Q 1375 441 1709 441 
Q 2250 441 2565 725 
Q 2881 1009 2881 1497 
Q 2881 1984 2565 2268 
Q 2250 2553 1709 2553 
Q 1456 2553 1204 2497 
Q 953 2441 691 2322 
L 691 4666 
z
" transform="scale(0.015625)"/>
       </defs>
       <use xlink:href="#DejaVuSans-30"/>
       <use xlink:href="#DejaVuSans-2e" x="63.623047"/>
       <use xlink:href="#DejaVuSans-35" x="95.410156"/>
      </g>
     </g>
    </g>
    <g id="ytick_6">
     <g id="line2d_23">
      <path d="M 47.81 152.68 
L 450 152.68 
" clip-path="url(#p9866387ff8)" style="fill: none; stroke-dasharray: 2.96,1.28; stroke-dashoffset: 0; stroke: #b0b0b0; stroke-width: 0.8"/>
     </g>
     <g id="line2d_24">
      <g>
       <use xlink:href="#m731ea8a868" x="47.81" y="152.68" style="stroke: #000000; stroke-width: 0.8"/>
      </g>
     </g>
     <g id="text_13">
      <!-- 0.6 -->
      <g transform="translate(24.906875 156.479219)scale(0.1 -0.1)">
       <use xlink:href="#DejaVuSans-30"/>
       <use xlink:href="#DejaVuSans-2e" x="63.623047"/>
       <use xlink:href="#DejaVuSans-36" x="95.410156"/>
      </g>
     </g>
    </g>
    <g id="ytick_7">
     <g id="line2d_25">
      <path d="M 47.81 127.52 
L 450 127.52 
" clip-path="url(#p9866387ff8)" style="fill: none; stroke-dasharray: 2.96,1.28; stroke-dashoffset: 0; stroke: #b0b0b0; stroke-width: 0.8"/>
     </g>
     <g id="line2d_26">
      <g>
       <use xlink:href="#m731ea8a868" x="47.81" y="127.52" style="stroke: #000000; stroke-width: 0.8"/>
      </g>
     </g>
     <g id="text_14">
      <!-- 0.7 -->
      <g transform="translate(24.906875 131.319219)scale(0.1 -0.1)">
       <defs>
        <path id="DejaVuSans-37" d="M 525 4666 
L 3525 4666 
L 3525 4397 
L 1831 0 
L 1172 0 
L 2766 4134 
L 525 4134 
L 525 4666 
z
" transform="scale(0.015625)"/>
       </defs>
       <use xlink:href="#DejaVuSans-30"/>
       <use xlink:href="#DejaVuSans-2e" x="63.623047"/>
       <use xlink:href="#DejaVuSans-37" x="95.410156"/>
      </g>
     </g>
    </g>
    <g id="ytick_8">
     <g id="line2d_27">
      <path d="M 47.81 102.36 
L 450 102.36 
" clip-path="url(#p9866387ff8)" style="fill: none; stroke-dasharray: 2.96,1.28; stroke-dashoffset: 0; stroke: #b0b0b0; stroke-width: 0.8"/>
     </g>
     <g id="line2d_28">
      <g>
       <use xlink:href="#m731ea8a868" x="47.81" y="102.36" style="stroke: #000000; stroke-width: 0.8"/>
      </g>
     </g>
     <g id="text_15">
      <!-- 0.8 -->
      <g transform="translate(24.906875 106.159219)scale(0.1 -0.1)">
       <use xlink:href="#DejaVuSans-30"/>
       <use xlink:href="#DejaVuSans-2e" x="63.623047"/>
       <use xlink:href="#DejaVuSans-38" x="95.410156"/>
      </g>
     </g>
    </g>
    <g id="ytick_9">
     <g id="line2d_29">
      <path d="M 47.81 77.2 
L 450 77.2 
" clip-path="url(#p9866387ff8)" style="fill: none; stroke-dasharray: 2.96,1.28; stroke-dashoffset: 0; stroke: #b0b0b0; stroke-width: 0.8"/>
     </g>
     <g id="line2d_30">
      <g>
       <use xlink:href="#m731ea8a868" x="47.81" y="77.2" style="stroke: #000000; stroke-width: 0.8"/>
      </g>
     </g>
     <g id="text_16">
      <!-- 0.9 -->
      <g transform="translate(24.906875 80.999219)scale(0.1 -0.1)">
       <defs>
        <path id="DejaVuSans-39" d="M 703 97 
L 703 672 
Q 941 559 1184 500 
Q 1428 441 1663 441 
Q 2288 441 2617 861 
Q 2947 1281 2994 2138 
Q 2813 1869 2534 1725 
Q 2256 1581 1919 1581 
Q 1219 1581 811 2004 
Q 403 2428 403 3163 
Q 403 3881 828 4315 
Q 1253 4750 1959 4750 
Q 2769 4750 3195 4129 
Q 3622 3509 3622 2328 
Q 3622 1225 3098 567 
Q 2575 -91 1691 -91 
Q 1453 -91 1209 -44 
Q 966 3 703 97 
z
M 1959 2075 
Q 2384 2075 2632 2365 
Q 2881 2656 2881 3163 
Q 2881 3666 2632 3958 
Q 2384 4250 1959 4250 
Q 1534 4250 1286 3958 
Q 1038 3666 1038 3163 
Q 1038 2656 1286 2365 
Q 1534 2075 1959 2075 
z
" transform="scale(0.015625)"/>
       </defs>
       <use xlink:href="#DejaVuSans-30"/>
       <use xlink:href="#DejaVuSans-2e" x="63.623047"/>
       <use xlink:href="#DejaVuSans-39" x="95.410156"/>
      </g>
     </g>
    </g>
    <g id="ytick_10">
     <g id="line2d_31">
      <path d="M 47.81 52.04 
L 450 52.04 
" clip-path="url(#p9866387ff8)" style="fill: none; stroke-dasharray: 2.96,1.28; stroke-dashoffset: 0; stroke: #b0b0b0; stroke-width: 0.8"/>
     </g>
     <g id="line2d_32">
      <g>
       <use xlink:href="#m731ea8a868" x="47.81" y="52.04" style="stroke: #000000; stroke-width: 0.8"/>
      </g>
     </g>
     <g id="text_17">
      <!-- 1.0 -->
      <g transform="translate(24.906875 55.839219)scale(0.1 -0.1)">
       <use xlink:href="#DejaVuSans-31"/>
       <use xlink:href="#DejaVuSans-2e" x="63.623047"/>
       <use xlink:href="#DejaVuSans-30" x="95.410156"/>
      </g>
     </g>
    </g>
    <g id="ytick_11">
     <g id="line2d_33">
      <path d="M 47.81 26.88 
L 450 26.88 
" clip-path="url(#p9866387ff8)" style="fill: none; stroke-dasharray: 2.96,1.28; stroke-dashoffset: 0; stroke: #b0b0b0; stroke-width: 0.8"/>
     </g>
     <g id="line2d_34">
      <g>
       <use xlink:href="#m731ea8a868" x="47.81" y="26.88" style="stroke: #000000; stroke-width: 0.8"/>
      </g>
     </g>
     <g id="text_18">
      <!-- 1.1 -->
      <g transform="translate(24.906875 30.679219)scale(0.1 -0.1)">
       <use xlink:href="#DejaVuSans-31"/>
       <use xlink:href="#DejaVuSans-2e" x="63.623047"/>
       <use xlink:href="#DejaVuSans-31" x="95.410156"/>
      </g>
     </g>
    </g>
    <g id="text_19">
     <!-- BCE Loss -->
     <g transform="translate(18.827187 187.81)rotate(-90)scale(0.1 -0.1)">
      <defs>
       <path id="DejaVuSans-42" d="M 1259 2228 
L 1259 519 
L 2272 519 
Q 2781 519 3026 730 
Q 3272 941 3272 1375 
Q 3272 1813 3026 2020 
Q 2781 2228 2272 2228 
L 1259 2228 
z
M 1259 4147 
L 1259 2741 
L 2194 2741 
Q 2656 2741 2882 2914 
Q 3109 3088 3109 3444 
Q 3109 3797 2882 3972 
Q 2656 4147 2194 4147 
L 1259 4147 
z
M 628 4666 
L 2241 4666 
Q 2963 4666 3353 4366 
Q 3744 4066 3744 3513 
Q 3744 3084 3544 2831 
Q 3344 2578 2956 2516 
Q 3422 2416 3680 2098 
Q 3938 1781 3938 1306 
Q 3938 681 3513 340 
Q 3088 0 2303 0 
L 628 0 
L 628 4666 
z
" transform="scale(0.015625)"/>
       <path id="DejaVuSans-43" d="M 4122 4306 
L 4122 3641 
Q 3803 3938 3442 4084 
Q 3081 4231 2675 4231 
Q 1875 4231 1450 3742 
Q 1025 3253 1025 2328 
Q 1025 1406 1450 917 
Q 1875 428 2675 428 
Q 3081 428 3442 575 
Q 3803 722 4122 1019 
L 4122 359 
Q 3791 134 3420 21 
Q 3050 -91 2638 -91 
Q 1578 -91 968 557 
Q 359 1206 359 2328 
Q 359 3453 968 4101 
Q 1578 4750 2638 4750 
Q 3056 4750 3426 4639 
Q 3797 4528 4122 4306 
z
" transform="scale(0.015625)"/>
       <path id="DejaVuSans-20" transform="scale(0.015625)"/>
       <path id="DejaVuSans-4c" d="M 628 4666 
L 1259 4666 
L 1259 531 
L 3531 531 
L 3531 0 
L 628 0 
L 628 4666 
z
" transform="scale(0.015625)"/>
       <path id="DejaVuSans-73" d="M 2834 3397 
L 2834 2853 
Q 2591 2978 2328 3040 
Q 2066 3103 1784 3103 
Q 1356 3103 1142 2972 
Q 928 2841 928 2578 
Q 928 2378 1081 2264 
Q 1234 2150 1697 2047 
L 1894 2003 
Q 2506 1872 2764 1633 
Q 3022 1394 3022 966 
Q 3022 478 2636 193 
Q 2250 -91 1575 -91 
Q 1294 -91 989 -36 
Q 684 19 347 128 
L 347 722 
Q 666 556 975 473 
Q 1284 391 1588 391 
Q 1994 391 2212 530 
Q 2431 669 2431 922 
Q 2431 1156 2273 1281 
Q 2116 1406 1581 1522 
L 1381 1569 
Q 847 1681 609 1914 
Q 372 2147 372 2553 
Q 372 3047 722 3315 
Q 1072 3584 1716 3584 
Q 2034 3584 2315 3537 
Q 2597 3491 2834 3397 
z
" transform="scale(0.015625)"/>
      </defs>
      <use xlink:href="#DejaVuSans-42"/>
      <use xlink:href="#DejaVuSans-43" x="66.853516"/>
      <use xlink:href="#DejaVuSans-45" x="136.677734"/>
      <use xlink:href="#DejaVuSans-20" x="199.861328"/>
      <use xlink:href="#DejaVuSans-4c" x="231.648438"/>
      <use xlink:href="#DejaVuSans-6f" x="285.611328"/>
      <use xlink:href="#DejaVuSans-73" x="346.792969"/>
      <use xlink:href="#DejaVuSans-73" x="398.892578"/>
     </g>
    </g>
   </g>
   <g id="line2d_35">
    <path d="M 66.091364 108.12691 
L 73.477773 130.227893 
L 80.864183 132.443417 
L 88.250592 134.223503 
L 95.637002 136.152028 
L 103.023411 137.422757 
L 110.409821 139.199815 
L 117.79623 139.917063 
L 125.18264 141.45424 
L 132.56905 143.084345 
L 139.955459 144.725505 
L 147.341869 146.51175 
L 154.728278 148.443148 
L 162.114688 150.345134 
L 169.501097 152.423739 
L 176.887507 153.588947 
L 184.273916 155.529023 
L 191.660326 157.708369 
L 199.046736 160.006992 
L 206.433145 163.31082 
L 213.819555 165.896432 
L 221.205964 168.14631 
L 228.592374 170.272865 
L 235.978783 173.797684 
L 243.365193 176.427692 
L 250.751602 176.859169 
L 258.138012 177.455743 
L 265.524421 181.030274 
L 272.910831 180.548906 
L 280.297241 182.043947 
L 287.68365 180.383825 
L 295.07006 186.239886 
L 302.456469 182.15249 
L 309.842879 184.949263 
L 317.229288 185.207249 
L 324.615698 184.075399 
L 332.002107 187.595389 
L 339.388517 187.749542 
L 346.774927 186.474555 
L 354.161336 188.224461 
L 361.547746 190.269559 
L 368.934155 194.864634 
L 376.320565 195.360896 
L 383.706974 195.769151 
L 391.093384 197.69732 
L 398.479793 196.287261 
L 405.866203 194.550754 
L 413.252612 194.288347 
L 420.639022 198.868565 
L 428.025432 200.074101 
" clip-path="url(#p9866387ff8)" style="fill: none; stroke: #ca181d; stroke-width: 2; stroke-linecap: square"/>
    <defs>
     <path id="m503f45e30e" d="M 0 1.5 
C 0.397805 1.5 0.77937 1.341951 1.06066 1.06066 
C 1.341951 0.77937 1.5 0.397805 1.5 0 
C 1.5 -0.397805 1.341951 -0.77937 1.06066 -1.06066 
C 0.77937 -1.341951 0.397805 -1.5 0 -1.5 
C -0.397805 -1.5 -0.77937 -1.341951 -1.06066 -1.06066 
C -1.341951 -0.77937 -1.5 -0.397805 -1.5 0 
C -1.5 0.397805 -1.341951 0.77937 -1.06066 1.06066 
C -0.77937 1.341951 -0.397805 1.5 0 1.5 
z
" style="stroke: #ca181d"/>
    </defs>
    <g clip-path="url(#p9866387ff8)">
     <use xlink:href="#m503f45e30e" x="66.091364" y="108.12691" style="fill: #ca181d; stroke: #ca181d"/>
     <use xlink:href="#m503f45e30e" x="73.477773" y="130.227893" style="fill: #ca181d; stroke: #ca181d"/>
     <use xlink:href="#m503f45e30e" x="80.864183" y="132.443417" style="fill: #ca181d; stroke: #ca181d"/>
     <use xlink:href="#m503f45e30e" x="88.250592" y="134.223503" style="fill: #ca181d; stroke: #ca181d"/>
     <use xlink:href="#m503f45e30e" x="95.637002" y="136.152028" style="fill: #ca181d; stroke: #ca181d"/>
     <use xlink:href="#m503f45e30e" x="103.023411" y="137.422757" style="fill: #ca181d; stroke: #ca181d"/>
     <use xlink:href="#m503f45e30e" x="110.409821" y="139.199815" style="fill: #ca181d; stroke: #ca181d"/>
     <use xlink:href="#m503f45e30e" x="117.79623" y="139.917063" style="fill: #ca181d; stroke: #ca181d"/>
     <use xlink:href="#m503f45e30e" x="125.18264" y="141.45424" style="fill: #ca181d; stroke: #ca181d"/>
     <use xlink:href="#m503f45e30e" x="132.56905" y="143.084345" style="fill: #ca181d; stroke: #ca181d"/>
     <use xlink:href="#m503f45e30e" x="139.955459" y="144.725505" style="fill: #ca181d; stroke: #ca181d"/>
     <use xlink:href="#m503f45e30e" x="147.341869" y="146.51175" style="fill: #ca181d; stroke: #ca181d"/>
     <use xlink:href="#m503f45e30e" x="154.728278" y="148.443148" style="fill: #ca181d; stroke: #ca181d"/>
     <use xlink:href="#m503f45e30e" x="162.114688" y="150.345134" style="fill: #ca181d; stroke: #ca181d"/>
     <use xlink:href="#m503f45e30e" x="169.501097" y="152.423739" style="fill: #ca181d; stroke: #ca181d"/>
     <use xlink:href="#m503f45e30e" x="176.887507" y="153.588947" style="fill: #ca181d; stroke: #ca181d"/>
     <use xlink:href="#m503f45e30e" x="184.273916" y="155.529023" style="fill: #ca181d; stroke: #ca181d"/>
     <use xlink:href="#m503f45e30e" x="191.660326" y="157.708369" style="fill: #ca181d; stroke: #ca181d"/>
     <use xlink:href="#m503f45e30e" x="199.046736" y="160.006992" style="fill: #ca181d; stroke: #ca181d"/>
     <use xlink:href="#m503f45e30e" x="206.433145" y="163.31082" style="fill: #ca181d; stroke: #ca181d"/>
     <use xlink:href="#m503f45e30e" x="213.819555" y="165.896432" style="fill: #ca181d; stroke: #ca181d"/>
     <use xlink:href="#m503f45e30e" x="221.205964" y="168.14631" style="fill: #ca181d; stroke: #ca181d"/>
     <use xlink:href="#m503f45e30e" x="228.592374" y="170.272865" style="fill: #ca181d; stroke: #ca181d"/>
     <use xlink:href="#m503f45e30e" x="235.978783" y="173.797684" style="fill: #ca181d; stroke: #ca181d"/>
     <use xlink:href="#m503f45e30e" x="243.365193" y="176.427692" style="fill: #ca181d; stroke: #ca181d"/>
     <use xlink:href="#m503f45e30e" x="250.751602" y="176.859169" style="fill: #ca181d; stroke: #ca181d"/>
     <use xlink:href="#m503f45e30e" x="258.138012" y="177.455743" style="fill: #ca181d; stroke: #ca181d"/>
     <use xlink:href="#m503f45e30e" x="265.524421" y="181.030274" style="fill: #ca181d; stroke: #ca181d"/>
     <use xlink:href="#m503f45e30e" x="272.910831" y="180.548906" style="fill: #ca181d; stroke: #ca181d"/>
     <use xlink:href="#m503f45e30e" x="280.297241" y="182.043947" style="fill: #ca181d; stroke: #ca181d"/>
     <use xlink:href="#m503f45e30e" x="287.68365" y="180.383825" style="fill: #ca181d; stroke: #ca181d"/>
     <use xlink:href="#m503f45e30e" x="295.07006" y="186.239886" style="fill: #ca181d; stroke: #ca181d"/>
     <use xlink:href="#m503f45e30e" x="302.456469" y="182.15249" style="fill: #ca181d; stroke: #ca181d"/>
     <use xlink:href="#m503f45e30e" x="309.842879" y="184.949263" style="fill: #ca181d; stroke: #ca181d"/>
     <use xlink:href="#m503f45e30e" x="317.229288" y="185.207249" style="fill: #ca181d; stroke: #ca181d"/>
     <use xlink:href="#m503f45e30e" x="324.615698" y="184.075399" style="fill: #ca181d; stroke: #ca181d"/>
     <use xlink:href="#m503f45e30e" x="332.002107" y="187.595389" style="fill: #ca181d; stroke: #ca181d"/>
     <use xlink:href="#m503f45e30e" x="339.388517" y="187.749542" style="fill: #ca181d; stroke: #ca181d"/>
     <use xlink:href="#m503f45e30e" x="346.774927" y="186.474555" style="fill: #ca181d; stroke: #ca181d"/>
     <use xlink:href="#m503f45e30e" x="354.161336" y="188.224461" style="fill: #ca181d; stroke: #ca181d"/>
     <use xlink:href="#m503f45e30e" x="361.547746" y="190.269559" style="fill: #ca181d; stroke: #ca181d"/>
     <use xlink:href="#m503f45e30e" x="368.934155" y="194.864634" style="fill: #ca181d; stroke: #ca181d"/>
     <use xlink:href="#m503f45e30e" x="376.320565" y="195.360896" style="fill: #ca181d; stroke: #ca181d"/>
     <use xlink:href="#m503f45e30e" x="383.706974" y="195.769151" style="fill: #ca181d; stroke: #ca181d"/>
     <use xlink:href="#m503f45e30e" x="391.093384" y="197.69732" style="fill: #ca181d; stroke: #ca181d"/>
     <use xlink:href="#m503f45e30e" x="398.479793" y="196.287261" style="fill: #ca181d; stroke: #ca181d"/>
     <use xlink:href="#m503f45e30e" x="405.866203" y="194.550754" style="fill: #ca181d; stroke: #ca181d"/>
     <use xlink:href="#m503f45e30e" x="413.252612" y="194.288347" style="fill: #ca181d; stroke: #ca181d"/>
     <use xlink:href="#m503f45e30e" x="420.639022" y="198.868565" style="fill: #ca181d; stroke: #ca181d"/>
     <use xlink:href="#m503f45e30e" x="428.025432" y="200.074101" style="fill: #ca181d; stroke: #ca181d"/>
    </g>
   </g>
   <g id="patch_3">
    <path d="M 47.81 303.64 
L 47.81 26.88 
" style="fill: none; stroke: #000000; stroke-width: 0.8; stroke-linejoin: miter; stroke-linecap: square"/>
   </g>
   <g id="patch_4">
    <path d="M 450 303.64 
L 450 26.88 
" style="fill: none; stroke: #000000; stroke-width: 0.8; stroke-linejoin: miter; stroke-linecap: square"/>
   </g>
   <g id="patch_5">
    <path d="M 47.81 303.64 
L 450 303.64 
" style="fill: none; stroke: #000000; stroke-width: 0.8; stroke-linejoin: miter; stroke-linecap: square"/>
   </g>
   <g id="patch_6">
    <path d="M 47.81 26.88 
L 450 26.88 
" style="fill: none; stroke: #000000; stroke-width: 0.8; stroke-linejoin: miter; stroke-linecap: square"/>
   </g>
   <g id="text_20">
    <!-- Loss vs. epoch for xor dataset -->
    <g transform="translate(158.91625 20.88)scale(0.12 -0.12)">
     <defs>
      <path id="DejaVuSans-76" d="M 191 3500 
L 800 3500 
L 1894 563 
L 2988 3500 
L 3597 3500 
L 2284 0 
L 1503 0 
L 191 3500 
z
" transform="scale(0.015625)"/>
      <path id="DejaVuSans-65" d="M 3597 1894 
L 3597 1613 
L 953 1613 
Q 991 1019 1311 708 
Q 1631 397 2203 397 
Q 2534 397 2845 478 
Q 3156 559 3463 722 
L 3463 178 
Q 3153 47 2828 -22 
Q 2503 -91 2169 -91 
Q 1331 -91 842 396 
Q 353 884 353 1716 
Q 353 2575 817 3079 
Q 1281 3584 2069 3584 
Q 2775 3584 3186 3129 
Q 3597 2675 3597 1894 
z
M 3022 2063 
Q 3016 2534 2758 2815 
Q 2500 3097 2075 3097 
Q 1594 3097 1305 2825 
Q 1016 2553 972 2059 
L 3022 2063 
z
" transform="scale(0.015625)"/>
      <path id="DejaVuSans-66" d="M 2375 4863 
L 2375 4384 
L 1825 4384 
Q 1516 4384 1395 4259 
Q 1275 4134 1275 3809 
L 1275 3500 
L 2222 3500 
L 2222 3053 
L 1275 3053 
L 1275 0 
L 697 0 
L 697 3053 
L 147 3053 
L 147 3500 
L 697 3500 
L 697 3744 
Q 697 4328 969 4595 
Q 1241 4863 1831 4863 
L 2375 4863 
z
" transform="scale(0.015625)"/>
      <path id="DejaVuSans-72" d="M 2631 2963 
Q 2534 3019 2420 3045 
Q 2306 3072 2169 3072 
Q 1681 3072 1420 2755 
Q 1159 2438 1159 1844 
L 1159 0 
L 581 0 
L 581 3500 
L 1159 3500 
L 1159 2956 
Q 1341 3275 1631 3429 
Q 1922 3584 2338 3584 
Q 2397 3584 2469 3576 
Q 2541 3569 2628 3553 
L 2631 2963 
z
" transform="scale(0.015625)"/>
      <path id="DejaVuSans-78" d="M 3513 3500 
L 2247 1797 
L 3578 0 
L 2900 0 
L 1881 1375 
L 863 0 
L 184 0 
L 1544 1831 
L 300 3500 
L 978 3500 
L 1906 2253 
L 2834 3500 
L 3513 3500 
z
" transform="scale(0.015625)"/>
      <path id="DejaVuSans-64" d="M 2906 2969 
L 2906 4863 
L 3481 4863 
L 3481 0 
L 2906 0 
L 2906 525 
Q 2725 213 2448 61 
Q 2172 -91 1784 -91 
Q 1150 -91 751 415 
Q 353 922 353 1747 
Q 353 2572 751 3078 
Q 1150 3584 1784 3584 
Q 2172 3584 2448 3432 
Q 2725 3281 2906 2969 
z
M 947 1747 
Q 947 1113 1208 752 
Q 1469 391 1925 391 
Q 2381 391 2643 752 
Q 2906 1113 2906 1747 
Q 2906 2381 2643 2742 
Q 2381 3103 1925 3103 
Q 1469 3103 1208 2742 
Q 947 2381 947 1747 
z
" transform="scale(0.015625)"/>
      <path id="DejaVuSans-61" d="M 2194 1759 
Q 1497 1759 1228 1600 
Q 959 1441 959 1056 
Q 959 750 1161 570 
Q 1363 391 1709 391 
Q 2188 391 2477 730 
Q 2766 1069 2766 1631 
L 2766 1759 
L 2194 1759 
z
M 3341 1997 
L 3341 0 
L 2766 0 
L 2766 531 
Q 2569 213 2275 61 
Q 1981 -91 1556 -91 
Q 1019 -91 701 211 
Q 384 513 384 1019 
Q 384 1609 779 1909 
Q 1175 2209 1959 2209 
L 2766 2209 
L 2766 2266 
Q 2766 2663 2505 2880 
Q 2244 3097 1772 3097 
Q 1472 3097 1187 3025 
Q 903 2953 641 2809 
L 641 3341 
Q 956 3463 1253 3523 
Q 1550 3584 1831 3584 
Q 2591 3584 2966 3190 
Q 3341 2797 3341 1997 
z
" transform="scale(0.015625)"/>
      <path id="DejaVuSans-74" d="M 1172 4494 
L 1172 3500 
L 2356 3500 
L 2356 3053 
L 1172 3053 
L 1172 1153 
Q 1172 725 1289 603 
Q 1406 481 1766 481 
L 2356 481 
L 2356 0 
L 1766 0 
Q 1100 0 847 248 
Q 594 497 594 1153 
L 594 3053 
L 172 3053 
L 172 3500 
L 594 3500 
L 594 4494 
L 1172 4494 
z
" transform="scale(0.015625)"/>
     </defs>
     <use xlink:href="#DejaVuSans-4c"/>
     <use xlink:href="#DejaVuSans-6f" x="53.962891"/>
     <use xlink:href="#DejaVuSans-73" x="115.144531"/>
     <use xlink:href="#DejaVuSans-73" x="167.244141"/>
     <use xlink:href="#DejaVuSans-20" x="219.34375"/>
     <use xlink:href="#DejaVuSans-76" x="251.130859"/>
     <use xlink:href="#DejaVuSans-73" x="310.310547"/>
     <use xlink:href="#DejaVuSans-2e" x="362.410156"/>
     <use xlink:href="#DejaVuSans-20" x="394.197266"/>
     <use xlink:href="#DejaVuSans-65" x="425.984375"/>
     <use xlink:href="#DejaVuSans-70" x="487.507812"/>
     <use xlink:href="#DejaVuSans-6f" x="550.984375"/>
     <use xlink:href="#DejaVuSans-63" x="612.166016"/>
     <use xlink:href="#DejaVuSans-68" x="667.146484"/>
     <use xlink:href="#DejaVuSans-20" x="730.525391"/>
     <use xlink:href="#DejaVuSans-66" x="762.3125"/>
     <use xlink:href="#DejaVuSans-6f" x="797.517578"/>
     <use xlink:href="#DejaVuSans-72" x="858.699219"/>
     <use xlink:href="#DejaVuSans-20" x="899.8125"/>
     <use xlink:href="#DejaVuSans-78" x="931.599609"/>
     <use xlink:href="#DejaVuSans-6f" x="987.654297"/>
     <use xlink:href="#DejaVuSans-72" x="1048.835938"/>
     <use xlink:href="#DejaVuSans-20" x="1089.949219"/>
     <use xlink:href="#DejaVuSans-64" x="1121.736328"/>
     <use xlink:href="#DejaVuSans-61" x="1185.212891"/>
     <use xlink:href="#DejaVuSans-74" x="1246.492188"/>
     <use xlink:href="#DejaVuSans-61" x="1285.701172"/>
     <use xlink:href="#DejaVuSans-73" x="1346.980469"/>
     <use xlink:href="#DejaVuSans-65" x="1399.080078"/>
     <use xlink:href="#DejaVuSans-74" x="1460.603516"/>
    </g>
   </g>
   <g id="legend_1">
    <g id="patch_7">
     <path d="M 393.920312 49.558125 
L 443 49.558125 
Q 445 49.558125 445 47.558125 
L 445 33.88 
Q 445 31.88 443 31.88 
L 393.920312 31.88 
Q 391.920312 31.88 391.920312 33.88 
L 391.920312 47.558125 
Q 391.920312 49.558125 393.920312 49.558125 
z
" style="fill: #ffffff; opacity: 0.8; stroke: #cccccc; stroke-linejoin: miter"/>
    </g>
    <g id="line2d_36">
     <path d="M 395.920312 39.978437 
L 405.920312 39.978437 
L 415.920312 39.978437 
" style="fill: none; stroke: #ca181d; stroke-width: 2; stroke-linecap: square"/>
     <g>
      <use xlink:href="#m503f45e30e" x="405.920312" y="39.978437" style="fill: #ca181d; stroke: #ca181d"/>
     </g>
    </g>
    <g id="text_21">
     <!-- Xor -->
     <g transform="translate(423.920312 43.478437)scale(0.1 -0.1)">
      <defs>
       <path id="DejaVuSans-58" d="M 403 4666 
L 1081 4666 
L 2241 2931 
L 3406 4666 
L 4084 4666 
L 2584 2425 
L 4184 0 
L 3506 0 
L 2194 1984 
L 872 0 
L 191 0 
L 1856 2491 
L 403 4666 
z
" transform="scale(0.015625)"/>
      </defs>
      <use xlink:href="#DejaVuSans-58"/>
      <use xlink:href="#DejaVuSans-6f" x="68.505859"/>
      <use xlink:href="#DejaVuSans-72" x="129.6875"/>
     </g>
    </g>
   </g>
  </g>
 </g>
 <defs>
  <clipPath id="p9866387ff8">
   <rect x="47.81" y="26.88" width="402.19" height="276.76"/>
  </clipPath>
 </defs>
</svg>
